<svg id="SvgjsSvg1006" width="447" height="400" xmlns="http://www.w3.org/2000/svg" version="1.1" xmlns:xlink="http://www.w3.org/1999/xlink" xmlns:svgjs="http://svgjs.com/svgjs"><defs id="SvgjsDefs1007"></defs><g id="SvgjsG1008" transform="translate(108,205)"><path id="SvgjsPath1009" d="M 0 0L 258 0L 258 78L 0 78Z" stroke="rgba(50,50,50,1)" stroke-width="2" fill-opacity="1" fill="#ffffff"></path><g id="SvgjsG1010"><text id="SvgjsText1011" font-family="微软雅黑" text-anchor="middle" font-size="13px" width="238px" fill="#323232" font-weight="400" align="middle" lineHeight="125%" anchor="middle" family="微软雅黑" size="13px" weight="400" font-style="" opacity="1" y="29.375" transform="rotate(0)"></text></g></g><g id="SvgjsG1012" transform="translate(108,111)"><path id="SvgjsPath1013" d="M 0 0L 258 0L 258 78L 0 78Z" stroke="rgba(50,50,50,1)" stroke-width="2" fill-opacity="1" fill="#ffffff"></path><g id="SvgjsG1014"><text id="SvgjsText1015" font-family="微软雅黑" text-anchor="middle" font-size="13px" width="238px" fill="#323232" font-weight="400" align="middle" lineHeight="125%" anchor="middle" family="微软雅黑" size="13px" weight="400" font-style="" opacity="1" y="29.375" transform="rotate(0)"></text></g></g><g id="SvgjsG1016" transform="translate(202,115)"><path id="SvgjsPath1017" d="M 0 35C 0 -11.666666666666666 70 -11.666666666666666 70 35C 70 81.66666666666667 0 81.66666666666667 0 35Z" stroke="rgba(50,50,50,1)" stroke-width="2" fill-opacity="1" fill="#ffffff"></path><g id="SvgjsG1018"><text id="SvgjsText1019" font-family="&quot;Lucida Console&quot;" text-anchor="middle" font-size="13px" width="50px" fill="#323232" font-weight="400" align="middle" lineHeight="125%" anchor="middle" family="&quot;Lucida Console&quot;" size="13px" weight="400" font-style="" opacity="1" y="25.375" transform="rotate(0)"><tspan id="SvgjsTspan1020" dy="16" x="35"><tspan id="SvgjsTspan1021" style="text-decoration:;">y2</tspan></tspan></text></g></g><g id="SvgjsG1022" transform="translate(288,115)"><path id="SvgjsPath1023" d="M 0 35C 0 -11.666666666666666 70 -11.666666666666666 70 35C 70 81.66666666666667 0 81.66666666666667 0 35Z" stroke="rgba(50,50,50,1)" stroke-width="2" fill-opacity="1" fill="#ffffff"></path><g id="SvgjsG1024"><text id="SvgjsText1025" font-family="&quot;Lucida Console&quot;" text-anchor="middle" font-size="13px" width="50px" fill="#323232" font-weight="400" align="middle" lineHeight="125%" anchor="middle" family="&quot;Lucida Console&quot;" size="13px" weight="400" font-style="" opacity="1" y="25.375" transform="rotate(0)"><tspan id="SvgjsTspan1026" dy="16" x="35"><tspan id="SvgjsTspan1027" style="text-decoration:;">y1</tspan></tspan></text></g></g><g id="SvgjsG1028" transform="translate(202,209)"><path id="SvgjsPath1029" d="M 0 35C 0 -11.666666666666666 70 -11.666666666666666 70 35C 70 81.66666666666667 0 81.66666666666667 0 35Z" stroke="rgba(50,50,50,1)" stroke-width="2" fill-opacity="1" fill="#ffffff"></path><g id="SvgjsG1030"><text id="SvgjsText1031" font-family="&quot;Lucida Console&quot;" text-anchor="middle" font-size="13px" width="50px" fill="#323232" font-weight="400" align="middle" lineHeight="125%" anchor="middle" family="&quot;Lucida Console&quot;" size="13px" weight="400" font-style="" opacity="1" y="25.375" transform="rotate(0)"><tspan id="SvgjsTspan1032" dy="16" x="35"><tspan id="SvgjsTspan1033" style="text-decoration:;">x2</tspan></tspan></text></g></g><g id="SvgjsG1034" transform="translate(288,209)"><path id="SvgjsPath1035" d="M 0 35C 0 -11.666666666666666 70 -11.666666666666666 70 35C 70 81.66666666666667 0 81.66666666666667 0 35Z" stroke="rgba(50,50,50,1)" stroke-width="2" fill-opacity="1" fill="#ffffff"></path><g id="SvgjsG1036"><text id="SvgjsText1037" font-family="&quot;Lucida Console&quot;" text-anchor="middle" font-size="13px" width="50px" fill="#323232" font-weight="400" align="middle" lineHeight="125%" anchor="middle" family="&quot;Lucida Console&quot;" size="13px" weight="400" font-style="" opacity="1" y="25.375" transform="rotate(0)"><tspan id="SvgjsTspan1038" dy="16" x="35"><tspan id="SvgjsTspan1039" style="text-decoration:;">x1</tspan></tspan></text></g></g><g id="SvgjsG1040"><path id="SvgjsPath1041" d="M36 301L229 301L229 301L422 301" stroke="#323232" stroke-width="2" fill="none"></path></g><g id="SvgjsG1042" transform="translate(25,209)"><path id="SvgjsPath1043" d="M 26.25 0L 43.75 0L 43.75 26.25L 70 26.25L 70 43.75L 43.75 43.75L 43.75 70L 26.25 70L 26.25 43.75L 0 43.75L 0 26.25L 26.25 26.25Z" stroke="rgba(50,50,50,1)" stroke-width="2" fill-opacity="1" fill="#ffffff"></path><g id="SvgjsG1044"><text id="SvgjsText1045" font-family="微软雅黑" text-anchor="middle" font-size="13px" width="70px" fill="#323232" font-weight="400" align="middle" lineHeight="125%" anchor="middle" family="微软雅黑" size="13px" weight="400" font-style="" opacity="1" y="25.375" transform="rotate(0)"></text></g></g><g id="SvgjsG1046" transform="translate(288,316)"><path id="SvgjsPath1047" d="M 0 0L 123 0L 123 59L 0 59Z" stroke="rgba(50,50,50,1)" stroke-width="2" fill-opacity="1" fill="#ffffff"></path><g id="SvgjsG1048"><text id="SvgjsText1049" font-family="&quot;Lucida Console&quot;" text-anchor="middle" font-size="12px" width="103px" fill="#323232" font-weight="400" align="middle" lineHeight="125%" anchor="middle" family="&quot;Lucida Console&quot;" size="12px" weight="400" font-style="" opacity="1" y="13" transform="rotate(0)"><tspan id="SvgjsTspan1050" dy="15" x="61.5"><tspan id="SvgjsTspan1051" style="text-decoration:;">(x1 + y1 + c1)</tspan></tspan><tspan id="SvgjsTspan1052" dy="15" x="61.5"><tspan id="SvgjsTspan1053" style="text-decoration:;">mod 10</tspan></tspan></text></g></g><g id="SvgjsG1054" transform="translate(288,25)"><path id="SvgjsPath1055" d="M 0 0L 78 0L 78 64L 0 64Z" stroke="rgba(50,50,50,1)" stroke-width="2" fill-opacity="1" fill="#ffffff"></path><g id="SvgjsG1056"><text id="SvgjsText1057" font-family="&quot;Lucida Console&quot;" text-anchor="middle" font-size="13px" width="58px" fill="#323232" font-weight="400" align="middle" lineHeight="125%" anchor="middle" family="&quot;Lucida Console&quot;" size="13px" weight="400" font-style="" opacity="1" y="22.375" transform="rotate(0)"><tspan id="SvgjsTspan1058" dy="16" x="39"><tspan id="SvgjsTspan1059" style="text-decoration:;">c1 = 0</tspan></tspan></text></g></g><g id="SvgjsG1060" transform="translate(95,25)"><path id="SvgjsPath1061" d="M 0 0L 181 0L 181 64L 0 64Z" stroke="rgba(50,50,50,1)" stroke-width="2" fill-opacity="1" fill="#ffffff"></path><g id="SvgjsG1062"><text id="SvgjsText1063" font-family="&quot;Lucida Console&quot;" text-anchor="middle" font-size="13px" width="161px" fill="#323232" font-weight="400" align="middle" lineHeight="125%" anchor="middle" family="&quot;Lucida Console&quot;" size="13px" weight="400" font-style="" opacity="1" y="14.375" transform="rotate(0)"><tspan id="SvgjsTspan1064" dy="16" x="90.5"><tspan id="SvgjsTspan1065" style="text-decoration:;">c2 = </tspan></tspan><tspan id="SvgjsTspan1066" dy="16" x="90.5"><tspan id="SvgjsTspan1067" style="text-decoration:;">(x1 + y1 + c1) // 10</tspan></tspan></text></g></g></svg>