<?xml version="1.0" encoding="UTF-8" standalone="no"?>
<!DOCTYPE svg PUBLIC "-//W3C//DTD SVG 1.1//EN"
 "http://www.w3.org/Graphics/SVG/1.1/DTD/svg11.dtd">
<!-- Generated by graphviz version 2.40.1 (20161225.0304)
 -->
<!-- Title: G Pages: 1 -->
<svg width="369pt" height="53pt"
 viewBox="0.00 0.00 369.44 53.00" xmlns="http://www.w3.org/2000/svg" xmlns:xlink="http://www.w3.org/1999/xlink">
<g id="graph0" class="graph" transform="scale(1 1) rotate(0) translate(4 49)">
<title>G</title>
<polygon fill="#ffffff" stroke="transparent" points="-4,4 -4,-49 365.4395,-49 365.4395,4 -4,4"/>
<!-- magic -->
<g id="node1" class="node">
<title>magic</title>
<polygon fill="none" stroke="#000000" points="0,-.5 0,-44.5 361.4395,-44.5 361.4395,-.5 0,-.5"/>
<text text-anchor="middle" x="17.7241" y="-29.3" font-family="Times,serif" font-size="14.00" fill="#000000">CA</text>
<polyline fill="none" stroke="#000000" points="35.4482,-22.5 35.4482,-44.5 "/>
<text text-anchor="middle" x="51.6172" y="-29.3" font-family="Times,serif" font-size="14.00" fill="#000000">FE</text>
<polyline fill="none" stroke="#000000" points="67.7861,-22.5 67.7861,-44.5 "/>
<text text-anchor="middle" x="85.5103" y="-29.3" font-family="Times,serif" font-size="14.00" fill="#000000">BA</text>
<polyline fill="none" stroke="#000000" points="103.2344,-22.5 103.2344,-44.5 "/>
<text text-anchor="middle" x="120.1792" y="-29.3" font-family="Times,serif" font-size="14.00" fill="#000000">BE</text>
<polyline fill="none" stroke="#000000" points="0,-22.5 137.124,-22.5 "/>
<text text-anchor="middle" x="68.562" y="-7.3" font-family="Times,serif" font-size="14.00" fill="#000000">magic number</text>
<polyline fill="none" stroke="#000000" points="137.124,-.5 137.124,-44.5 "/>
<text text-anchor="middle" x="164.124" y="-29.3" font-family="Times,serif" font-size="14.00" fill="#000000">00</text>
<polyline fill="none" stroke="#000000" points="191.124,-22.5 191.124,-44.5 "/>
<text text-anchor="middle" x="218.624" y="-29.3" font-family="Times,serif" font-size="14.00" fill="#000000">00</text>
<polyline fill="none" stroke="#000000" points="137.124,-22.5 246.1748,-22.5 "/>
<text text-anchor="middle" x="191.6494" y="-7.3" font-family="Times,serif" font-size="14.00" fill="#000000">minor version=0</text>
<polyline fill="none" stroke="#000000" points="246.1748,-.5 246.1748,-44.5 "/>
<text text-anchor="middle" x="274.6748" y="-29.3" font-family="Times,serif" font-size="14.00" fill="#000000">00</text>
<polyline fill="none" stroke="#000000" points="303.1748,-22.5 303.1748,-44.5 "/>
<text text-anchor="middle" x="332.1748" y="-29.3" font-family="Times,serif" font-size="14.00" fill="#000000">34</text>
<polyline fill="none" stroke="#000000" points="246.1748,-22.5 361.4395,-22.5 "/>
<text text-anchor="middle" x="303.8071" y="-7.3" font-family="Times,serif" font-size="14.00" fill="#000000">major version=52</text>
</g>
</g>
</svg>
