<svg id="SvgjsSvg3226" width="745" height="625.765625" xmlns="http://www.w3.org/2000/svg" version="1.1" xmlns:xlink="http://www.w3.org/1999/xlink" xmlns:svgjs="http://svgjs.com/svgjs"><defs id="SvgjsDefs3227"></defs><g id="SvgjsG3228" transform="translate(55,450)"><path id="SvgjsPath3229" d="M 0 35C 0 -11.666666666666666 70 -11.666666666666666 70 35C 70 81.66666666666667 0 81.66666666666667 0 35Z" stroke="rgba(50,50,50,1)" stroke-width="2" fill-opacity="1" fill="#ffffff"></path><g id="SvgjsG3230"><text id="SvgjsText3231" font-family="&quot;Lucida Console&quot;" text-anchor="middle" font-size="19px" width="50px" fill="#323232" font-weight="400" align="middle" lineHeight="125%" anchor="middle" family="&quot;Lucida Console&quot;" size="19px" weight="400" font-style="" opacity="1" y="21.125" transform="rotate(0)"><tspan id="SvgjsTspan3232" dy="23" x="35"><tspan id="SvgjsTspan3233" style="text-decoration:;">d</tspan></tspan></text></g></g><g id="SvgjsG3234" transform="translate(160,450)"><path id="SvgjsPath3235" d="M 0 35C 0 -11.666666666666666 70 -11.666666666666666 70 35C 70 81.66666666666667 0 81.66666666666667 0 35Z" stroke="rgba(50,50,50,1)" stroke-width="2" fill-opacity="1" fill="#ffffff"></path><g id="SvgjsG3236"><text id="SvgjsText3237" font-family="&quot;Lucida Console&quot;" text-anchor="middle" font-size="19px" width="50px" fill="#323232" font-weight="400" align="middle" lineHeight="125%" anchor="middle" family="&quot;Lucida Console&quot;" size="19px" weight="400" font-style="" opacity="1" y="21.125" transform="rotate(0)"><tspan id="SvgjsTspan3238" dy="23" x="35"><tspan id="SvgjsTspan3239" style="text-decoration:;">e</tspan></tspan></text></g></g><g id="SvgjsG3240" transform="translate(263,450)"><path id="SvgjsPath3241" d="M 0 35C 0 -11.666666666666666 70 -11.666666666666666 70 35C 70 81.66666666666667 0 81.66666666666667 0 35Z" stroke="rgba(50,50,50,1)" stroke-width="2" fill-opacity="1" fill="#ffffff"></path><g id="SvgjsG3242"><text id="SvgjsText3243" font-family="&quot;Lucida Console&quot;" text-anchor="middle" font-size="19px" width="50px" fill="#323232" font-weight="400" align="middle" lineHeight="125%" anchor="middle" family="&quot;Lucida Console&quot;" size="19px" weight="400" font-style="" opacity="1" y="21.125" transform="rotate(0)"><tspan id="SvgjsTspan3244" dy="23" x="35"><tspan id="SvgjsTspan3245" style="text-decoration:;">f</tspan></tspan></text></g></g><g id="SvgjsG3246" transform="translate(159,266)"><path id="SvgjsPath3247" d="M 0 35C 0 -11.666666666666666 70 -11.666666666666666 70 35C 70 81.66666666666667 0 81.66666666666667 0 35Z" stroke="rgba(50,50,50,1)" stroke-width="2" fill-opacity="1" fill="#ffffff"></path><g id="SvgjsG3248"><text id="SvgjsText3249" font-family="&quot;Lucida Console&quot;" text-anchor="middle" font-size="19px" width="50px" fill="#323232" font-weight="400" align="middle" lineHeight="125%" anchor="middle" family="&quot;Lucida Console&quot;" size="19px" weight="400" font-style="" opacity="1" y="21.125" transform="rotate(0)"><tspan id="SvgjsTspan3250" dy="23" x="35"><tspan id="SvgjsTspan3251" style="text-decoration:;">d</tspan></tspan></text></g></g><g id="SvgjsG3252" transform="translate(409,266)"><path id="SvgjsPath3253" d="M 0 35C 0 -11.666666666666666 70 -11.666666666666666 70 35C 70 81.66666666666667 0 81.66666666666667 0 35Z" stroke="rgba(50,50,50,1)" stroke-width="2" fill-opacity="1" fill="#ffffff"></path><g id="SvgjsG3254"><text id="SvgjsText3255" font-family="&quot;Lucida Console&quot;" text-anchor="middle" font-size="19px" width="50px" fill="#323232" font-weight="400" align="middle" lineHeight="125%" anchor="middle" family="&quot;Lucida Console&quot;" size="19px" weight="400" font-style="" opacity="1" y="21.125" transform="rotate(0)"><tspan id="SvgjsTspan3256" dy="23" x="35"><tspan id="SvgjsTspan3257" style="text-decoration:;">e</tspan></tspan></text></g></g><g id="SvgjsG3258" transform="translate(650,263)"><path id="SvgjsPath3259" d="M 0 35C 0 -11.666666666666666 70 -11.666666666666666 70 35C 70 81.66666666666667 0 81.66666666666667 0 35Z" stroke="rgba(50,50,50,1)" stroke-width="2" fill-opacity="1" fill="#ffffff"></path><g id="SvgjsG3260"><text id="SvgjsText3261" font-family="&quot;Lucida Console&quot;" text-anchor="middle" font-size="19px" width="50px" fill="#323232" font-weight="400" align="middle" lineHeight="125%" anchor="middle" family="&quot;Lucida Console&quot;" size="19px" weight="400" font-style="" opacity="1" y="21.125" transform="rotate(0)"><tspan id="SvgjsTspan3262" dy="23" x="35"><tspan id="SvgjsTspan3263" style="text-decoration:;">f</tspan></tspan></text></g></g><g id="SvgjsG3264"><path id="SvgjsPath3265" d="M192 336L90 450" stroke="#323232" stroke-width="2" fill="none"></path></g><g id="SvgjsG3266"><path id="SvgjsPath3267" d="M194 336L195 450" stroke="#323232" stroke-width="2" fill="none"></path></g><g id="SvgjsG3268"><path id="SvgjsPath3269" d="M193 337L298 450" stroke="#323232" stroke-width="2" fill="none"></path></g><g id="SvgjsG3270"><path id="SvgjsPath3271" d="M444 95L194 266" stroke="#323232" stroke-width="2" fill="none"></path></g><g id="SvgjsG3272"><path id="SvgjsPath3273" d="M444 95L444 266" stroke="#323232" stroke-width="2" fill="none"></path></g><g id="SvgjsG3274"><path id="SvgjsPath3275" d="M444 95L685 263" stroke="#323232" stroke-width="2" fill="none"></path></g><g id="SvgjsG3276" transform="translate(409,25)"><path id="SvgjsPath3277" d="M 0 35C 0 -11.666666666666666 70 -11.666666666666666 70 35C 70 81.66666666666667 0 81.66666666666667 0 35Z" stroke="rgba(50,50,50,1)" stroke-width="2" fill-opacity="1" fill="#ffffff"></path><g id="SvgjsG3278"><text id="SvgjsText3279" font-family="&quot;Lucida Console&quot;" text-anchor="middle" font-size="19px" width="50px" fill="#323232" font-weight="400" align="middle" lineHeight="125%" anchor="middle" family="&quot;Lucida Console&quot;" size="19px" weight="400" font-style="" opacity="1" y="21.125" transform="rotate(0)"></text></g></g><g id="SvgjsG3280"><path id="SvgjsPath3281" d="M90 520L25 601" stroke="#323232" stroke-width="2" fill="none"></path></g><g id="SvgjsG3282"><path id="SvgjsPath3283" d="M89 523L89 597" stroke="#323232" stroke-width="2" fill="none"></path></g><g id="SvgjsG3284"><path id="SvgjsPath3285" d="M88 523L141 596" stroke="#323232" stroke-width="2" fill="none"></path></g></svg>