<svg id="SvgjsSvg1068" width="417" height="1004" xmlns="http://www.w3.org/2000/svg" version="1.1" xmlns:xlink="http://www.w3.org/1999/xlink" xmlns:svgjs="http://svgjs.com/svgjs"><defs id="SvgjsDefs1069"><marker id="SvgjsMarker1408" markerWidth="16" markerHeight="12" refX="16" refY="6" viewBox="0 0 16 12" orient="auto" markerUnits="userSpaceOnUse" stroke-dasharray="0,0"><path id="SvgjsPath1409" d="M0,2 L14,6 L0,11 L0,2" fill="#323232" stroke="#323232" stroke-width="2"></path></marker><marker id="SvgjsMarker1412" markerWidth="16" markerHeight="12" refX="16" refY="6" viewBox="0 0 16 12" orient="auto" markerUnits="userSpaceOnUse" stroke-dasharray="0,0"><path id="SvgjsPath1413" d="M0,2 L14,6 L0,11 L0,2" fill="#323232" stroke="#323232" stroke-width="2"></path></marker><marker id="SvgjsMarker1416" markerWidth="16" markerHeight="12" refX="16" refY="6" viewBox="0 0 16 12" orient="auto" markerUnits="userSpaceOnUse" stroke-dasharray="0,0"><path id="SvgjsPath1417" d="M0,2 L14,6 L0,11 L0,2" fill="#323232" stroke="#323232" stroke-width="2"></path></marker><marker id="SvgjsMarker1420" markerWidth="16" markerHeight="12" refX="16" refY="6" viewBox="0 0 16 12" orient="auto" markerUnits="userSpaceOnUse" stroke-dasharray="0,0"><path id="SvgjsPath1421" d="M0,2 L14,6 L0,11 L0,2" fill="#323232" stroke="#323232" stroke-width="2"></path></marker></defs><g id="SvgjsG1070" transform="translate(45,232)"><path id="SvgjsPath1071" d="M 0 0L 38 0L 38 63L 0 63Z" stroke="rgba(50,50,50,1)" stroke-width="2" fill-opacity="1" fill="#ffffff"></path><g id="SvgjsG1072"><text id="SvgjsText1073" font-family="&quot;Lucida Console&quot;" text-anchor="middle" font-size="17px" width="18px" fill="#323232" font-weight="400" align="middle" lineHeight="125%" anchor="middle" family="&quot;Lucida Console&quot;" size="17px" weight="400" font-style="" opacity="1" y="18.875" transform="rotate(0)"><tspan id="SvgjsTspan1074" dy="21" x="19"><tspan id="SvgjsTspan1075" style="text-decoration:;">a</tspan></tspan></text></g></g><g id="SvgjsG1076" transform="translate(83,232)"><path id="SvgjsPath1077" d="M 0 0L 38 0L 38 63L 0 63Z" stroke="rgba(50,50,50,1)" stroke-width="2" fill-opacity="1" fill="#ffffff"></path><g id="SvgjsG1078"><text id="SvgjsText1079" font-family="&quot;Lucida Console&quot;" text-anchor="middle" font-size="17px" width="18px" fill="#323232" font-weight="400" align="middle" lineHeight="125%" anchor="middle" family="&quot;Lucida Console&quot;" size="17px" weight="400" font-style="" opacity="1" y="18.875" transform="rotate(0)"><tspan id="SvgjsTspan1080" dy="21" x="19"><tspan id="SvgjsTspan1081" style="text-decoration:;">b</tspan></tspan></text></g></g><g id="SvgjsG1082" transform="translate(121,232)"><path id="SvgjsPath1083" d="M 0 0L 38 0L 38 63L 0 63Z" stroke="rgba(50,50,50,1)" stroke-width="2" fill-opacity="1" fill="#ffffff"></path><g id="SvgjsG1084"><text id="SvgjsText1085" font-family="&quot;Lucida Console&quot;" text-anchor="middle" font-size="17px" width="18px" fill="#323232" font-weight="400" align="middle" lineHeight="125%" anchor="middle" family="&quot;Lucida Console&quot;" size="17px" weight="400" font-style="" opacity="1" y="18.875" transform="rotate(0)"><tspan id="SvgjsTspan1086" dy="21" x="19"><tspan id="SvgjsTspan1087" style="text-decoration:;">c</tspan></tspan></text></g></g><g id="SvgjsG1088" transform="translate(159,232)"><path id="SvgjsPath1089" d="M 0 0L 38 0L 38 63L 0 63Z" stroke="rgba(50,50,50,1)" stroke-width="2" fill-opacity="1" fill="#ffffff"></path><g id="SvgjsG1090"><text id="SvgjsText1091" font-family="&quot;Lucida Console&quot;" text-anchor="middle" font-size="17px" width="18px" fill="#323232" font-weight="400" align="middle" lineHeight="125%" anchor="middle" family="&quot;Lucida Console&quot;" size="17px" weight="400" font-style="" opacity="1" y="18.875" transform="rotate(0)"><tspan id="SvgjsTspan1092" dy="21" x="19"><tspan id="SvgjsTspan1093" style="text-decoration:;">d</tspan></tspan></text></g></g><g id="SvgjsG1094" transform="translate(197,232)"><path id="SvgjsPath1095" d="M 0 0L 38 0L 38 63L 0 63Z" stroke="rgba(50,50,50,1)" stroke-width="2" fill-opacity="1" fill="#ffffff"></path><g id="SvgjsG1096"><text id="SvgjsText1097" font-family="&quot;Lucida Console&quot;" text-anchor="middle" font-size="17px" width="18px" fill="#323232" font-weight="400" align="middle" lineHeight="125%" anchor="middle" family="&quot;Lucida Console&quot;" size="17px" weight="400" font-style="" opacity="1" y="18.875" transform="rotate(0)"><tspan id="SvgjsTspan1098" dy="21" x="19"><tspan id="SvgjsTspan1099" style="text-decoration:;">a</tspan></tspan></text></g></g><g id="SvgjsG1100" transform="translate(235,232)"><path id="SvgjsPath1101" d="M 0 0L 38 0L 38 63L 0 63Z" stroke="rgba(50,50,50,1)" stroke-width="2" fill-opacity="1" fill="#ffffff"></path><g id="SvgjsG1102"><text id="SvgjsText1103" font-family="&quot;Lucida Console&quot;" text-anchor="middle" font-size="17px" width="18px" fill="#323232" font-weight="400" align="middle" lineHeight="125%" anchor="middle" family="&quot;Lucida Console&quot;" size="17px" weight="400" font-style="" opacity="1" y="18.875" transform="rotate(0)"><tspan id="SvgjsTspan1104" dy="21" x="19"><tspan id="SvgjsTspan1105" style="text-decoration:;">b</tspan></tspan></text></g></g><g id="SvgjsG1106" transform="translate(273,232)"><path id="SvgjsPath1107" d="M 0 0L 38 0L 38 63L 0 63Z" stroke="rgba(50,50,50,1)" stroke-width="2" fill-opacity="1" fill="#ffffff"></path><g id="SvgjsG1108"><text id="SvgjsText1109" font-family="&quot;Lucida Console&quot;" text-anchor="middle" font-size="17px" width="18px" fill="#323232" font-weight="400" align="middle" lineHeight="125%" anchor="middle" family="&quot;Lucida Console&quot;" size="17px" weight="400" font-style="" opacity="1" y="18.875" transform="rotate(0)"><tspan id="SvgjsTspan1110" dy="21" x="19"><tspan id="SvgjsTspan1111" style="text-decoration:;">c</tspan></tspan></text></g></g><g id="SvgjsG1112" transform="translate(311,232)"><path id="SvgjsPath1113" d="M 0 0L 38 0L 38 63L 0 63Z" stroke="rgba(50,50,50,1)" stroke-width="2" fill-opacity="1" fill="#ffffff"></path><g id="SvgjsG1114"><text id="SvgjsText1115" font-family="&quot;Lucida Console&quot;" text-anchor="middle" font-size="17px" width="18px" fill="#323232" font-weight="400" align="middle" lineHeight="125%" anchor="middle" family="&quot;Lucida Console&quot;" size="17px" weight="400" font-style="" opacity="1" y="18.875" transform="rotate(0)"><tspan id="SvgjsTspan1116" dy="21" x="19"><tspan id="SvgjsTspan1117" style="text-decoration:;">d</tspan></tspan></text></g></g><g id="SvgjsG1118" transform="translate(44,295)"><path id="SvgjsPath1119" d="M 20 0L 40 20L 26.8 20L 26.8 48L 13.200000000000001 48L 13.200000000000001 20L 0 20L 20 0Z" stroke="rgba(50,50,50,1)" stroke-width="2" fill-opacity="1" fill="#171717"></path><g id="SvgjsG1120"><text id="SvgjsText1121" font-family="微软雅黑" text-anchor="middle" font-size="13px" width="56px" fill="#323232" font-weight="400" align="middle" lineHeight="125%" anchor="middle" family="微软雅黑" size="13px" weight="400" font-style="" opacity="1" y="16.775" transform="rotate(0)"></text></g></g><g id="SvgjsG1122" transform="matrix(-1,1.2246467991473532e-16,-1.2246467991473532e-16,-1,125,232)"><path id="SvgjsPath1123" d="M 20 0L 40 20L 26.8 20L 26.8 48L 13.200000000000001 48L 13.200000000000001 20L 0 20L 20 0Z" stroke="rgba(50,50,50,1)" stroke-width="2" fill-opacity="1" fill="#ffffff"></path><g id="SvgjsG1124"><text id="SvgjsText1125" font-family="微软雅黑" text-anchor="middle" font-size="13px" width="56px" fill="#323232" font-weight="400" align="middle" lineHeight="125%" anchor="middle" family="微软雅黑" size="13px" weight="400" font-style="" opacity="1" y="16.775" transform="rotate(0)"></text></g></g><g id="SvgjsG1126" transform="translate(46,391)"><path id="SvgjsPath1127" d="M 0 0L 38 0L 38 63L 0 63Z" stroke="rgba(50,50,50,1)" stroke-width="2" fill-opacity="1" fill="#ffff66"></path><g id="SvgjsG1128"><text id="SvgjsText1129" font-family="&quot;Lucida Console&quot;" text-anchor="middle" font-size="17px" width="18px" fill="#323232" font-weight="400" align="middle" lineHeight="125%" anchor="middle" family="&quot;Lucida Console&quot;" size="17px" weight="400" font-style="" opacity="1" y="18.875" transform="rotate(0)"><tspan id="SvgjsTspan1130" dy="21" x="19"><tspan id="SvgjsTspan1131" style="text-decoration:;">a</tspan></tspan></text></g></g><g id="SvgjsG1132" transform="translate(84,391)"><path id="SvgjsPath1133" d="M 0 0L 38 0L 38 63L 0 63Z" stroke="rgba(50,50,50,1)" stroke-width="2" fill-opacity="1" fill="#ffffff"></path><g id="SvgjsG1134"><text id="SvgjsText1135" font-family="&quot;Lucida Console&quot;" text-anchor="middle" font-size="17px" width="18px" fill="#323232" font-weight="400" align="middle" lineHeight="125%" anchor="middle" family="&quot;Lucida Console&quot;" size="17px" weight="400" font-style="" opacity="1" y="18.875" transform="rotate(0)"><tspan id="SvgjsTspan1136" dy="21" x="19"><tspan id="SvgjsTspan1137" style="text-decoration:;">b</tspan></tspan></text></g></g><g id="SvgjsG1138" transform="translate(122,391)"><path id="SvgjsPath1139" d="M 0 0L 38 0L 38 63L 0 63Z" stroke="rgba(50,50,50,1)" stroke-width="2" fill-opacity="1" fill="#ffffff"></path><g id="SvgjsG1140"><text id="SvgjsText1141" font-family="&quot;Lucida Console&quot;" text-anchor="middle" font-size="17px" width="18px" fill="#323232" font-weight="400" align="middle" lineHeight="125%" anchor="middle" family="&quot;Lucida Console&quot;" size="17px" weight="400" font-style="" opacity="1" y="18.875" transform="rotate(0)"><tspan id="SvgjsTspan1142" dy="21" x="19"><tspan id="SvgjsTspan1143" style="text-decoration:;">c</tspan></tspan></text></g></g><g id="SvgjsG1144" transform="translate(160,391)"><path id="SvgjsPath1145" d="M 0 0L 38 0L 38 63L 0 63Z" stroke="rgba(50,50,50,1)" stroke-width="2" fill-opacity="1" fill="#ffffff"></path><g id="SvgjsG1146"><text id="SvgjsText1147" font-family="&quot;Lucida Console&quot;" text-anchor="middle" font-size="17px" width="18px" fill="#323232" font-weight="400" align="middle" lineHeight="125%" anchor="middle" family="&quot;Lucida Console&quot;" size="17px" weight="400" font-style="" opacity="1" y="18.875" transform="rotate(0)"><tspan id="SvgjsTspan1148" dy="21" x="19"><tspan id="SvgjsTspan1149" style="text-decoration:;">d</tspan></tspan></text></g></g><g id="SvgjsG1150" transform="translate(198,391)"><path id="SvgjsPath1151" d="M 0 0L 38 0L 38 63L 0 63Z" stroke="rgba(50,50,50,1)" stroke-width="2" fill-opacity="1" fill="#ffff66"></path><g id="SvgjsG1152"><text id="SvgjsText1153" font-family="&quot;Lucida Console&quot;" text-anchor="middle" font-size="17px" width="18px" fill="#323232" font-weight="400" align="middle" lineHeight="125%" anchor="middle" family="&quot;Lucida Console&quot;" size="17px" weight="400" font-style="" opacity="1" y="18.875" transform="rotate(0)"><tspan id="SvgjsTspan1154" dy="21" x="19"><tspan id="SvgjsTspan1155" style="text-decoration:;">a</tspan></tspan></text></g></g><g id="SvgjsG1156" transform="translate(236,391)"><path id="SvgjsPath1157" d="M 0 0L 38 0L 38 63L 0 63Z" stroke="rgba(50,50,50,1)" stroke-width="2" fill-opacity="1" fill="#ffffff"></path><g id="SvgjsG1158"><text id="SvgjsText1159" font-family="&quot;Lucida Console&quot;" text-anchor="middle" font-size="17px" width="18px" fill="#323232" font-weight="400" align="middle" lineHeight="125%" anchor="middle" family="&quot;Lucida Console&quot;" size="17px" weight="400" font-style="" opacity="1" y="18.875" transform="rotate(0)"><tspan id="SvgjsTspan1160" dy="21" x="19"><tspan id="SvgjsTspan1161" style="text-decoration:;">d</tspan></tspan></text></g></g><g id="SvgjsG1162" transform="translate(274,391)"><path id="SvgjsPath1163" d="M 0 0L 38 0L 38 63L 0 63Z" stroke="rgba(50,50,50,1)" stroke-width="2" fill-opacity="1" fill="#ffffff"></path><g id="SvgjsG1164"><text id="SvgjsText1165" font-family="&quot;Lucida Console&quot;" text-anchor="middle" font-size="17px" width="18px" fill="#323232" font-weight="400" align="middle" lineHeight="125%" anchor="middle" family="&quot;Lucida Console&quot;" size="17px" weight="400" font-style="" opacity="1" y="18.875" transform="rotate(0)"><tspan id="SvgjsTspan1166" dy="21" x="19"><tspan id="SvgjsTspan1167" style="text-decoration:;">b</tspan></tspan></text></g></g><g id="SvgjsG1168" transform="translate(312,391)"><path id="SvgjsPath1169" d="M 0 0L 38 0L 38 63L 0 63Z" stroke="rgba(50,50,50,1)" stroke-width="2" fill-opacity="1" fill="#ffffff"></path><g id="SvgjsG1170"><text id="SvgjsText1171" font-family="&quot;Lucida Console&quot;" text-anchor="middle" font-size="17px" width="18px" fill="#323232" font-weight="400" align="middle" lineHeight="125%" anchor="middle" family="&quot;Lucida Console&quot;" size="17px" weight="400" font-style="" opacity="1" y="18.875" transform="rotate(0)"><tspan id="SvgjsTspan1172" dy="21" x="19"><tspan id="SvgjsTspan1173" style="text-decoration:;">a</tspan></tspan></text></g></g><g id="SvgjsG1174" transform="translate(45,454)"><path id="SvgjsPath1175" d="M 20 0L 40 20L 26.8 20L 26.8 48L 13.200000000000001 48L 13.200000000000001 20L 0 20L 20 0Z" stroke="rgba(50,50,50,1)" stroke-width="2" fill-opacity="1" fill="#171717"></path><g id="SvgjsG1176"><text id="SvgjsText1177" font-family="微软雅黑" text-anchor="middle" font-size="13px" width="56px" fill="#323232" font-weight="400" align="middle" lineHeight="125%" anchor="middle" family="微软雅黑" size="13px" weight="400" font-style="" opacity="1" y="16.775" transform="rotate(0)"></text></g></g><g id="SvgjsG1178" transform="matrix(-1,1.2246467991473532e-16,-1.2246467991473532e-16,-1,236,391)"><path id="SvgjsPath1179" d="M 20 0L 40 20L 26.8 20L 26.8 48L 13.200000000000001 48L 13.200000000000001 20L 0 20L 20 0Z" stroke="rgba(50,50,50,1)" stroke-width="2" fill-opacity="1" fill="#ffffff"></path><g id="SvgjsG1180"><text id="SvgjsText1181" font-family="微软雅黑" text-anchor="middle" font-size="13px" width="56px" fill="#323232" font-weight="400" align="middle" lineHeight="125%" anchor="middle" family="微软雅黑" size="13px" weight="400" font-style="" opacity="1" y="16.775" transform="rotate(0)"></text></g></g><g id="SvgjsG1182" transform="translate(46,550)"><path id="SvgjsPath1183" d="M 0 0L 38 0L 38 63L 0 63Z" stroke="rgba(50,50,50,1)" stroke-width="2" fill-opacity="1" fill="#ffffff"></path><g id="SvgjsG1184"><text id="SvgjsText1185" font-family="&quot;Lucida Console&quot;" text-anchor="middle" font-size="17px" width="18px" fill="#323232" font-weight="400" align="middle" lineHeight="125%" anchor="middle" family="&quot;Lucida Console&quot;" size="17px" weight="400" font-style="" opacity="1" y="18.875" transform="rotate(0)"><tspan id="SvgjsTspan1186" dy="21" x="19"><tspan id="SvgjsTspan1187" style="text-decoration:;">a</tspan></tspan></text></g></g><g id="SvgjsG1188" transform="translate(84,550)"><path id="SvgjsPath1189" d="M 0 0L 38 0L 38 63L 0 63Z" stroke="rgba(50,50,50,1)" stroke-width="2" fill-opacity="1" fill="#ffffff"></path><g id="SvgjsG1190"><text id="SvgjsText1191" font-family="&quot;Lucida Console&quot;" text-anchor="middle" font-size="17px" width="18px" fill="#323232" font-weight="400" align="middle" lineHeight="125%" anchor="middle" family="&quot;Lucida Console&quot;" size="17px" weight="400" font-style="" opacity="1" y="18.875" transform="rotate(0)"><tspan id="SvgjsTspan1192" dy="21" x="19"><tspan id="SvgjsTspan1193" style="text-decoration:;">b</tspan></tspan></text></g></g><g id="SvgjsG1194" transform="translate(122,550)"><path id="SvgjsPath1195" d="M 0 0L 38 0L 38 63L 0 63Z" stroke="rgba(50,50,50,1)" stroke-width="2" fill-opacity="1" fill="#ffffff"></path><g id="SvgjsG1196"><text id="SvgjsText1197" font-family="&quot;Lucida Console&quot;" text-anchor="middle" font-size="17px" width="18px" fill="#323232" font-weight="400" align="middle" lineHeight="125%" anchor="middle" family="&quot;Lucida Console&quot;" size="17px" weight="400" font-style="" opacity="1" y="18.875" transform="rotate(0)"><tspan id="SvgjsTspan1198" dy="21" x="19"><tspan id="SvgjsTspan1199" style="text-decoration:;">c</tspan></tspan></text></g></g><g id="SvgjsG1200" transform="translate(160,550)"><path id="SvgjsPath1201" d="M 0 0L 38 0L 38 63L 0 63Z" stroke="rgba(50,50,50,1)" stroke-width="2" fill-opacity="1" fill="#ffffff"></path><g id="SvgjsG1202"><text id="SvgjsText1203" font-family="&quot;Lucida Console&quot;" text-anchor="middle" font-size="17px" width="18px" fill="#323232" font-weight="400" align="middle" lineHeight="125%" anchor="middle" family="&quot;Lucida Console&quot;" size="17px" weight="400" font-style="" opacity="1" y="18.875" transform="rotate(0)"><tspan id="SvgjsTspan1204" dy="21" x="19"><tspan id="SvgjsTspan1205" style="text-decoration:;">d</tspan></tspan></text></g></g><g id="SvgjsG1206" transform="translate(198,550)"><path id="SvgjsPath1207" d="M 0 0L 38 0L 38 63L 0 63Z" stroke="rgba(50,50,50,1)" stroke-width="2" fill-opacity="1" fill="#ffffff"></path><g id="SvgjsG1208"><text id="SvgjsText1209" font-family="&quot;Lucida Console&quot;" text-anchor="middle" font-size="17px" width="18px" fill="#323232" font-weight="400" align="middle" lineHeight="125%" anchor="middle" family="&quot;Lucida Console&quot;" size="17px" weight="400" font-style="" opacity="1" y="18.875" transform="rotate(0)"><tspan id="SvgjsTspan1210" dy="21" x="19"><tspan id="SvgjsTspan1211" style="text-decoration:;">a</tspan></tspan></text></g></g><g id="SvgjsG1212" transform="translate(236,550)"><path id="SvgjsPath1213" d="M 0 0L 38 0L 38 63L 0 63Z" stroke="rgba(50,50,50,1)" stroke-width="2" fill-opacity="1" fill="#ffffff"></path><g id="SvgjsG1214"><text id="SvgjsText1215" font-family="&quot;Lucida Console&quot;" text-anchor="middle" font-size="17px" width="18px" fill="#323232" font-weight="400" align="middle" lineHeight="125%" anchor="middle" family="&quot;Lucida Console&quot;" size="17px" weight="400" font-style="" opacity="1" y="18.875" transform="rotate(0)"><tspan id="SvgjsTspan1216" dy="21" x="19"><tspan id="SvgjsTspan1217" style="text-decoration:;">d</tspan></tspan></text></g></g><g id="SvgjsG1218" transform="translate(274,550)"><path id="SvgjsPath1219" d="M 0 0L 38 0L 38 63L 0 63Z" stroke="rgba(50,50,50,1)" stroke-width="2" fill-opacity="1" fill="#ffffff"></path><g id="SvgjsG1220"><text id="SvgjsText1221" font-family="&quot;Lucida Console&quot;" text-anchor="middle" font-size="17px" width="18px" fill="#323232" font-weight="400" align="middle" lineHeight="125%" anchor="middle" family="&quot;Lucida Console&quot;" size="17px" weight="400" font-style="" opacity="1" y="18.875" transform="rotate(0)"><tspan id="SvgjsTspan1222" dy="21" x="19"><tspan id="SvgjsTspan1223" style="text-decoration:;">b</tspan></tspan></text></g></g><g id="SvgjsG1224" transform="translate(312,550)"><path id="SvgjsPath1225" d="M 0 0L 38 0L 38 63L 0 63Z" stroke="rgba(50,50,50,1)" stroke-width="2" fill-opacity="1" fill="#ffffff"></path><g id="SvgjsG1226"><text id="SvgjsText1227" font-family="&quot;Lucida Console&quot;" text-anchor="middle" font-size="17px" width="18px" fill="#323232" font-weight="400" align="middle" lineHeight="125%" anchor="middle" family="&quot;Lucida Console&quot;" size="17px" weight="400" font-style="" opacity="1" y="18.875" transform="rotate(0)"><tspan id="SvgjsTspan1228" dy="21" x="19"><tspan id="SvgjsTspan1229" style="text-decoration:;">a</tspan></tspan></text></g></g><g id="SvgjsG1230" transform="translate(83,613)"><path id="SvgjsPath1231" d="M 20 0L 40 20L 26.8 20L 26.8 48L 13.200000000000001 48L 13.200000000000001 20L 0 20L 20 0Z" stroke="rgba(50,50,50,1)" stroke-width="2" fill-opacity="1" fill="#171717"></path><g id="SvgjsG1232"><text id="SvgjsText1233" font-family="微软雅黑" text-anchor="middle" font-size="13px" width="56px" fill="#323232" font-weight="400" align="middle" lineHeight="125%" anchor="middle" family="微软雅黑" size="13px" weight="400" font-style="" opacity="1" y="16.775" transform="rotate(0)"></text></g></g><g id="SvgjsG1234" transform="matrix(-1,1.2246467991473532e-16,-1.2246467991473532e-16,-1,275,550)"><path id="SvgjsPath1235" d="M 20 0L 40 20L 26.8 20L 26.8 48L 13.200000000000001 48L 13.200000000000001 20L 0 20L 20 0Z" stroke="rgba(50,50,50,1)" stroke-width="2" fill-opacity="1" fill="#ffffff"></path><g id="SvgjsG1236"><text id="SvgjsText1237" font-family="微软雅黑" text-anchor="middle" font-size="13px" width="56px" fill="#323232" font-weight="400" align="middle" lineHeight="125%" anchor="middle" family="微软雅黑" size="13px" weight="400" font-style="" opacity="1" y="16.775" transform="rotate(0)"></text></g></g><g id="SvgjsG1238" transform="translate(46,709)"><path id="SvgjsPath1239" d="M 0 0L 38 0L 38 63L 0 63Z" stroke="rgba(50,50,50,1)" stroke-width="2" fill-opacity="1" fill="#ffffff"></path><g id="SvgjsG1240"><text id="SvgjsText1241" font-family="&quot;Lucida Console&quot;" text-anchor="middle" font-size="17px" width="18px" fill="#323232" font-weight="400" align="middle" lineHeight="125%" anchor="middle" family="&quot;Lucida Console&quot;" size="17px" weight="400" font-style="" opacity="1" y="18.875" transform="rotate(0)"><tspan id="SvgjsTspan1242" dy="21" x="19"><tspan id="SvgjsTspan1243" style="text-decoration:;">a</tspan></tspan></text></g></g><g id="SvgjsG1244" transform="translate(84,709)"><path id="SvgjsPath1245" d="M 0 0L 38 0L 38 63L 0 63Z" stroke="rgba(50,50,50,1)" stroke-width="2" fill-opacity="1" fill="#ffffff"></path><g id="SvgjsG1246"><text id="SvgjsText1247" font-family="&quot;Lucida Console&quot;" text-anchor="middle" font-size="17px" width="18px" fill="#323232" font-weight="400" align="middle" lineHeight="125%" anchor="middle" family="&quot;Lucida Console&quot;" size="17px" weight="400" font-style="" opacity="1" y="18.875" transform="rotate(0)"><tspan id="SvgjsTspan1248" dy="21" x="19"><tspan id="SvgjsTspan1249" style="text-decoration:;">b</tspan></tspan></text></g></g><g id="SvgjsG1250" transform="translate(122,709)"><path id="SvgjsPath1251" d="M 0 0L 38 0L 38 63L 0 63Z" stroke="rgba(50,50,50,1)" stroke-width="2" fill-opacity="1" fill="#ffffff"></path><g id="SvgjsG1252"><text id="SvgjsText1253" font-family="&quot;Lucida Console&quot;" text-anchor="middle" font-size="17px" width="18px" fill="#323232" font-weight="400" align="middle" lineHeight="125%" anchor="middle" family="&quot;Lucida Console&quot;" size="17px" weight="400" font-style="" opacity="1" y="18.875" transform="rotate(0)"><tspan id="SvgjsTspan1254" dy="21" x="19"><tspan id="SvgjsTspan1255" style="text-decoration:;">c</tspan></tspan></text></g></g><g id="SvgjsG1256" transform="translate(160,709)"><path id="SvgjsPath1257" d="M 0 0L 38 0L 38 63L 0 63Z" stroke="rgba(50,50,50,1)" stroke-width="2" fill-opacity="1" fill="#b3ff66"></path><g id="SvgjsG1258"><text id="SvgjsText1259" font-family="&quot;Lucida Console&quot;" text-anchor="middle" font-size="17px" width="18px" fill="#323232" font-weight="400" align="middle" lineHeight="125%" anchor="middle" family="&quot;Lucida Console&quot;" size="17px" weight="400" font-style="" opacity="1" y="18.875" transform="rotate(0)"><tspan id="SvgjsTspan1260" dy="21" x="19"><tspan id="SvgjsTspan1261" style="text-decoration:;">d</tspan></tspan></text></g></g><g id="SvgjsG1262" transform="translate(198,709)"><path id="SvgjsPath1263" d="M 0 0L 38 0L 38 63L 0 63Z" stroke="rgba(50,50,50,1)" stroke-width="2" fill-opacity="1" fill="#ffffff"></path><g id="SvgjsG1264"><text id="SvgjsText1265" font-family="&quot;Lucida Console&quot;" text-anchor="middle" font-size="17px" width="18px" fill="#323232" font-weight="400" align="middle" lineHeight="125%" anchor="middle" family="&quot;Lucida Console&quot;" size="17px" weight="400" font-style="" opacity="1" y="18.875" transform="rotate(0)"><tspan id="SvgjsTspan1266" dy="21" x="19"><tspan id="SvgjsTspan1267" style="text-decoration:;">a</tspan></tspan></text></g></g><g id="SvgjsG1268" transform="translate(236,709)"><path id="SvgjsPath1269" d="M 0 0L 38 0L 38 63L 0 63Z" stroke="rgba(50,50,50,1)" stroke-width="2" fill-opacity="1" fill="#b3ff66"></path><g id="SvgjsG1270"><text id="SvgjsText1271" font-family="&quot;Lucida Console&quot;" text-anchor="middle" font-size="17px" width="18px" fill="#323232" font-weight="400" align="middle" lineHeight="125%" anchor="middle" family="&quot;Lucida Console&quot;" size="17px" weight="400" font-style="" opacity="1" y="18.875" transform="rotate(0)"><tspan id="SvgjsTspan1272" dy="21" x="19"><tspan id="SvgjsTspan1273" style="text-decoration:;">d</tspan></tspan></text></g></g><g id="SvgjsG1274" transform="translate(274,709)"><path id="SvgjsPath1275" d="M 0 0L 38 0L 38 63L 0 63Z" stroke="rgba(50,50,50,1)" stroke-width="2" fill-opacity="1" fill="#ffffff"></path><g id="SvgjsG1276"><text id="SvgjsText1277" font-family="&quot;Lucida Console&quot;" text-anchor="middle" font-size="17px" width="18px" fill="#323232" font-weight="400" align="middle" lineHeight="125%" anchor="middle" family="&quot;Lucida Console&quot;" size="17px" weight="400" font-style="" opacity="1" y="18.875" transform="rotate(0)"><tspan id="SvgjsTspan1278" dy="21" x="19"><tspan id="SvgjsTspan1279" style="text-decoration:;">b</tspan></tspan></text></g></g><g id="SvgjsG1280" transform="translate(312,709)"><path id="SvgjsPath1281" d="M 0 0L 38 0L 38 63L 0 63Z" stroke="rgba(50,50,50,1)" stroke-width="2" fill-opacity="1" fill="#ffffff"></path><g id="SvgjsG1282"><text id="SvgjsText1283" font-family="&quot;Lucida Console&quot;" text-anchor="middle" font-size="17px" width="18px" fill="#323232" font-weight="400" align="middle" lineHeight="125%" anchor="middle" family="&quot;Lucida Console&quot;" size="17px" weight="400" font-style="" opacity="1" y="18.875" transform="rotate(0)"><tspan id="SvgjsTspan1284" dy="21" x="19"><tspan id="SvgjsTspan1285" style="text-decoration:;">a</tspan></tspan></text></g></g><g id="SvgjsG1286" transform="translate(83,772)"><path id="SvgjsPath1287" d="M 20 0L 40 20L 26.8 20L 26.8 48L 13.200000000000001 48L 13.200000000000001 20L 0 20L 20 0Z" stroke="rgba(50,50,50,1)" stroke-width="2" fill-opacity="1" fill="#171717"></path><g id="SvgjsG1288"><text id="SvgjsText1289" font-family="微软雅黑" text-anchor="middle" font-size="13px" width="56px" fill="#323232" font-weight="400" align="middle" lineHeight="125%" anchor="middle" family="微软雅黑" size="13px" weight="400" font-style="" opacity="1" y="16.775" transform="rotate(0)"></text></g></g><g id="SvgjsG1290" transform="matrix(-1,1.2246467991473532e-16,-1.2246467991473532e-16,-1,275,709)"><path id="SvgjsPath1291" d="M 20 0L 40 20L 26.8 20L 26.8 48L 13.200000000000001 48L 13.200000000000001 20L 0 20L 20 0Z" stroke="rgba(50,50,50,1)" stroke-width="2" fill-opacity="1" fill="#ffffff"></path><g id="SvgjsG1292"><text id="SvgjsText1293" font-family="微软雅黑" text-anchor="middle" font-size="13px" width="56px" fill="#323232" font-weight="400" align="middle" lineHeight="125%" anchor="middle" family="微软雅黑" size="13px" weight="400" font-style="" opacity="1" y="16.775" transform="rotate(0)"></text></g></g><g id="SvgjsG1294" transform="translate(46,868)"><path id="SvgjsPath1295" d="M 0 0L 38 0L 38 63L 0 63Z" stroke="rgba(50,50,50,1)" stroke-width="2" fill-opacity="1" fill="#ffffff"></path><g id="SvgjsG1296"><text id="SvgjsText1297" font-family="&quot;Lucida Console&quot;" text-anchor="middle" font-size="17px" width="18px" fill="#323232" font-weight="400" align="middle" lineHeight="125%" anchor="middle" family="&quot;Lucida Console&quot;" size="17px" weight="400" font-style="" opacity="1" y="18.875" transform="rotate(0)"><tspan id="SvgjsTspan1298" dy="21" x="19"><tspan id="SvgjsTspan1299" style="text-decoration:;">a</tspan></tspan></text></g></g><g id="SvgjsG1300" transform="translate(84,868)"><path id="SvgjsPath1301" d="M 0 0L 38 0L 38 63L 0 63Z" stroke="rgba(50,50,50,1)" stroke-width="2" fill-opacity="1" fill="#ffffff"></path><g id="SvgjsG1302"><text id="SvgjsText1303" font-family="&quot;Lucida Console&quot;" text-anchor="middle" font-size="17px" width="18px" fill="#323232" font-weight="400" align="middle" lineHeight="125%" anchor="middle" family="&quot;Lucida Console&quot;" size="17px" weight="400" font-style="" opacity="1" y="18.875" transform="rotate(0)"><tspan id="SvgjsTspan1304" dy="21" x="19"><tspan id="SvgjsTspan1305" style="text-decoration:;">b</tspan></tspan></text></g></g><g id="SvgjsG1306" transform="translate(122,868)"><path id="SvgjsPath1307" d="M 0 0L 38 0L 38 63L 0 63Z" stroke="rgba(50,50,50,1)" stroke-width="2" fill-opacity="1" fill="#ffffff"></path><g id="SvgjsG1308"><text id="SvgjsText1309" font-family="&quot;Lucida Console&quot;" text-anchor="middle" font-size="17px" width="18px" fill="#323232" font-weight="400" align="middle" lineHeight="125%" anchor="middle" family="&quot;Lucida Console&quot;" size="17px" weight="400" font-style="" opacity="1" y="18.875" transform="rotate(0)"><tspan id="SvgjsTspan1310" dy="21" x="19"><tspan id="SvgjsTspan1311" style="text-decoration:;">c</tspan></tspan></text></g></g><g id="SvgjsG1312" transform="translate(160,868)"><path id="SvgjsPath1313" d="M 0 0L 38 0L 38 63L 0 63Z" stroke="rgba(50,50,50,1)" stroke-width="2" fill-opacity="1" fill="#b3ff66"></path><g id="SvgjsG1314"><text id="SvgjsText1315" font-family="&quot;Lucida Console&quot;" text-anchor="middle" font-size="17px" width="18px" fill="#323232" font-weight="400" align="middle" lineHeight="125%" anchor="middle" family="&quot;Lucida Console&quot;" size="17px" weight="400" font-style="" opacity="1" y="18.875" transform="rotate(0)"><tspan id="SvgjsTspan1316" dy="21" x="19"><tspan id="SvgjsTspan1317" style="text-decoration:;">d</tspan></tspan></text></g></g><g id="SvgjsG1318" transform="translate(198,868)"><path id="SvgjsPath1319" d="M 0 0L 38 0L 38 63L 0 63Z" stroke="rgba(50,50,50,1)" stroke-width="2" fill-opacity="1" fill="#ffffff"></path><g id="SvgjsG1320"><text id="SvgjsText1321" font-family="&quot;Lucida Console&quot;" text-anchor="middle" font-size="17px" width="18px" fill="#323232" font-weight="400" align="middle" lineHeight="125%" anchor="middle" family="&quot;Lucida Console&quot;" size="17px" weight="400" font-style="" opacity="1" y="18.875" transform="rotate(0)"><tspan id="SvgjsTspan1322" dy="21" x="19"><tspan id="SvgjsTspan1323" style="text-decoration:;">a</tspan></tspan></text></g></g><g id="SvgjsG1324" transform="translate(236,868)"><path id="SvgjsPath1325" d="M 0 0L 38 0L 38 63L 0 63Z" stroke="rgba(50,50,50,1)" stroke-width="2" fill-opacity="1" fill="#b3ff66"></path><g id="SvgjsG1326"><text id="SvgjsText1327" font-family="&quot;Lucida Console&quot;" text-anchor="middle" font-size="17px" width="18px" fill="#323232" font-weight="400" align="middle" lineHeight="125%" anchor="middle" family="&quot;Lucida Console&quot;" size="17px" weight="400" font-style="" opacity="1" y="18.875" transform="rotate(0)"><tspan id="SvgjsTspan1328" dy="21" x="19"><tspan id="SvgjsTspan1329" style="text-decoration:;">d</tspan></tspan></text></g></g><g id="SvgjsG1330" transform="translate(274,868)"><path id="SvgjsPath1331" d="M 0 0L 38 0L 38 63L 0 63Z" stroke="rgba(50,50,50,1)" stroke-width="2" fill-opacity="1" fill="#ffffff"></path><g id="SvgjsG1332"><text id="SvgjsText1333" font-family="&quot;Lucida Console&quot;" text-anchor="middle" font-size="17px" width="18px" fill="#323232" font-weight="400" align="middle" lineHeight="125%" anchor="middle" family="&quot;Lucida Console&quot;" size="17px" weight="400" font-style="" opacity="1" y="18.875" transform="rotate(0)"><tspan id="SvgjsTspan1334" dy="21" x="19"><tspan id="SvgjsTspan1335" style="text-decoration:;">b</tspan></tspan></text></g></g><g id="SvgjsG1336" transform="translate(312,868)"><path id="SvgjsPath1337" d="M 0 0L 38 0L 38 63L 0 63Z" stroke="rgba(50,50,50,1)" stroke-width="2" fill-opacity="1" fill="#ffffff"></path><g id="SvgjsG1338"><text id="SvgjsText1339" font-family="&quot;Lucida Console&quot;" text-anchor="middle" font-size="17px" width="18px" fill="#323232" font-weight="400" align="middle" lineHeight="125%" anchor="middle" family="&quot;Lucida Console&quot;" size="17px" weight="400" font-style="" opacity="1" y="18.875" transform="rotate(0)"><tspan id="SvgjsTspan1340" dy="21" x="19"><tspan id="SvgjsTspan1341" style="text-decoration:;">a</tspan></tspan></text></g></g><g id="SvgjsG1342" transform="translate(196,931)"><path id="SvgjsPath1343" d="M 20 0L 40 20L 26.8 20L 26.8 48L 13.200000000000001 48L 13.200000000000001 20L 0 20L 20 0Z" stroke="rgba(50,50,50,1)" stroke-width="2" fill-opacity="1" fill="#171717"></path><g id="SvgjsG1344"><text id="SvgjsText1345" font-family="微软雅黑" text-anchor="middle" font-size="13px" width="56px" fill="#323232" font-weight="400" align="middle" lineHeight="125%" anchor="middle" family="微软雅黑" size="13px" weight="400" font-style="" opacity="1" y="16.775" transform="rotate(0)"></text></g></g><g id="SvgjsG1346" transform="matrix(-1,1.2246467991473532e-16,-1.2246467991473532e-16,-1,313,868)"><path id="SvgjsPath1347" d="M 20 0L 40 20L 26.8 20L 26.8 48L 13.200000000000001 48L 13.200000000000001 20L 0 20L 20 0Z" stroke="rgba(50,50,50,1)" stroke-width="2" fill-opacity="1" fill="#ffffff"></path><g id="SvgjsG1348"><text id="SvgjsText1349" font-family="微软雅黑" text-anchor="middle" font-size="13px" width="56px" fill="#323232" font-weight="400" align="middle" lineHeight="125%" anchor="middle" family="微软雅黑" size="13px" weight="400" font-style="" opacity="1" y="16.775" transform="rotate(0)"></text></g></g><g id="SvgjsG1350" transform="translate(46,73)"><path id="SvgjsPath1351" d="M 0 0L 38 0L 38 63L 0 63Z" stroke="rgba(50,50,50,1)" stroke-width="2" fill-opacity="1" fill="#ffffff"></path><g id="SvgjsG1352"><text id="SvgjsText1353" font-family="&quot;Lucida Console&quot;" text-anchor="middle" font-size="17px" width="18px" fill="#323232" font-weight="400" align="middle" lineHeight="125%" anchor="middle" family="&quot;Lucida Console&quot;" size="17px" weight="400" font-style="" opacity="1" y="18.875" transform="rotate(0)"><tspan id="SvgjsTspan1354" dy="21" x="19"><tspan id="SvgjsTspan1355" style="text-decoration:;">a</tspan></tspan></text></g></g><g id="SvgjsG1356" transform="translate(84,73)"><path id="SvgjsPath1357" d="M 0 0L 38 0L 38 63L 0 63Z" stroke="rgba(50,50,50,1)" stroke-width="2" fill-opacity="1" fill="#ffffff"></path><g id="SvgjsG1358"><text id="SvgjsText1359" font-family="&quot;Lucida Console&quot;" text-anchor="middle" font-size="17px" width="18px" fill="#323232" font-weight="400" align="middle" lineHeight="125%" anchor="middle" family="&quot;Lucida Console&quot;" size="17px" weight="400" font-style="" opacity="1" y="18.875" transform="rotate(0)"><tspan id="SvgjsTspan1360" dy="21" x="19"><tspan id="SvgjsTspan1361" style="text-decoration:;">b</tspan></tspan></text></g></g><g id="SvgjsG1362" transform="translate(122,73)"><path id="SvgjsPath1363" d="M 0 0L 38 0L 38 63L 0 63Z" stroke="rgba(50,50,50,1)" stroke-width="2" fill-opacity="1" fill="#ffffff"></path><g id="SvgjsG1364"><text id="SvgjsText1365" font-family="&quot;Lucida Console&quot;" text-anchor="middle" font-size="17px" width="18px" fill="#323232" font-weight="400" align="middle" lineHeight="125%" anchor="middle" family="&quot;Lucida Console&quot;" size="17px" weight="400" font-style="" opacity="1" y="18.875" transform="rotate(0)"><tspan id="SvgjsTspan1366" dy="21" x="19"><tspan id="SvgjsTspan1367" style="text-decoration:;">c</tspan></tspan></text></g></g><g id="SvgjsG1368" transform="translate(160,73)"><path id="SvgjsPath1369" d="M 0 0L 38 0L 38 63L 0 63Z" stroke="rgba(50,50,50,1)" stroke-width="2" fill-opacity="1" fill="#ffffff"></path><g id="SvgjsG1370"><text id="SvgjsText1371" font-family="&quot;Lucida Console&quot;" text-anchor="middle" font-size="17px" width="18px" fill="#323232" font-weight="400" align="middle" lineHeight="125%" anchor="middle" family="&quot;Lucida Console&quot;" size="17px" weight="400" font-style="" opacity="1" y="18.875" transform="rotate(0)"><tspan id="SvgjsTspan1372" dy="21" x="19"><tspan id="SvgjsTspan1373" style="text-decoration:;">d</tspan></tspan></text></g></g><g id="SvgjsG1374" transform="translate(198,73)"><path id="SvgjsPath1375" d="M 0 0L 38 0L 38 63L 0 63Z" stroke="rgba(50,50,50,1)" stroke-width="2" fill-opacity="1" fill="#ffffff"></path><g id="SvgjsG1376"><text id="SvgjsText1377" font-family="&quot;Lucida Console&quot;" text-anchor="middle" font-size="17px" width="18px" fill="#323232" font-weight="400" align="middle" lineHeight="125%" anchor="middle" family="&quot;Lucida Console&quot;" size="17px" weight="400" font-style="" opacity="1" y="18.875" transform="rotate(0)"><tspan id="SvgjsTspan1378" dy="21" x="19"><tspan id="SvgjsTspan1379" style="text-decoration:;">a</tspan></tspan></text></g></g><g id="SvgjsG1380" transform="translate(236,73)"><path id="SvgjsPath1381" d="M 0 0L 38 0L 38 63L 0 63Z" stroke="rgba(50,50,50,1)" stroke-width="2" fill-opacity="1" fill="#ffffff"></path><g id="SvgjsG1382"><text id="SvgjsText1383" font-family="&quot;Lucida Console&quot;" text-anchor="middle" font-size="17px" width="18px" fill="#323232" font-weight="400" align="middle" lineHeight="125%" anchor="middle" family="&quot;Lucida Console&quot;" size="17px" weight="400" font-style="" opacity="1" y="18.875" transform="rotate(0)"><tspan id="SvgjsTspan1384" dy="21" x="19"><tspan id="SvgjsTspan1385" style="text-decoration:;">b</tspan></tspan></text></g></g><g id="SvgjsG1386" transform="translate(274,73)"><path id="SvgjsPath1387" d="M 0 0L 38 0L 38 63L 0 63Z" stroke="rgba(50,50,50,1)" stroke-width="2" fill-opacity="1" fill="#ffffff"></path><g id="SvgjsG1388"><text id="SvgjsText1389" font-family="&quot;Lucida Console&quot;" text-anchor="middle" font-size="17px" width="18px" fill="#323232" font-weight="400" align="middle" lineHeight="125%" anchor="middle" family="&quot;Lucida Console&quot;" size="17px" weight="400" font-style="" opacity="1" y="18.875" transform="rotate(0)"><tspan id="SvgjsTspan1390" dy="21" x="19"><tspan id="SvgjsTspan1391" style="text-decoration:;">c</tspan></tspan></text></g></g><g id="SvgjsG1392" transform="translate(312,73)"><path id="SvgjsPath1393" d="M 0 0L 38 0L 38 63L 0 63Z" stroke="rgba(50,50,50,1)" stroke-width="2" fill-opacity="1" fill="#ffffff"></path><g id="SvgjsG1394"><text id="SvgjsText1395" font-family="&quot;Lucida Console&quot;" text-anchor="middle" font-size="17px" width="18px" fill="#323232" font-weight="400" align="middle" lineHeight="125%" anchor="middle" family="&quot;Lucida Console&quot;" size="17px" weight="400" font-style="" opacity="1" y="18.875" transform="rotate(0)"><tspan id="SvgjsTspan1396" dy="21" x="19"><tspan id="SvgjsTspan1397" style="text-decoration:;">d</tspan></tspan></text></g></g><g id="SvgjsG1398" transform="translate(45,136)"><path id="SvgjsPath1399" d="M 20 0L 40 20L 26.8 20L 26.8 48L 13.200000000000001 48L 13.200000000000001 20L 0 20L 20 0Z" stroke="rgba(50,50,50,1)" stroke-width="2" fill-opacity="1" fill="#171717"></path><g id="SvgjsG1400"><text id="SvgjsText1401" font-family="微软雅黑" text-anchor="middle" font-size="13px" width="56px" fill="#323232" font-weight="400" align="middle" lineHeight="125%" anchor="middle" family="微软雅黑" size="13px" weight="400" font-style="" opacity="1" y="16.775" transform="rotate(0)"></text></g></g><g id="SvgjsG1402" transform="matrix(-1,1.2246467991473532e-16,-1.2246467991473532e-16,-1,85,73)"><path id="SvgjsPath1403" d="M 20 0L 40 20L 26.8 20L 26.8 48L 13.200000000000001 48L 13.200000000000001 20L 0 20L 20 0Z" stroke="rgba(50,50,50,1)" stroke-width="2" fill-opacity="1" fill="#ffffff"></path><g id="SvgjsG1404"><text id="SvgjsText1405" font-family="微软雅黑" text-anchor="middle" font-size="13px" width="56px" fill="#323232" font-weight="400" align="middle" lineHeight="125%" anchor="middle" family="微软雅黑" size="13px" weight="400" font-style="" opacity="1" y="16.775" transform="rotate(0)"></text></g></g><g id="SvgjsG1406"><path id="SvgjsPath1407" d="M59 489L29 489L29 691L103 691L103 661" stroke-dasharray="8,5" stroke="#323232" stroke-width="2" fill="none" marker-end="url(#SvgjsMarker1408)"></path></g><g id="SvgjsG1410"><path id="SvgjsPath1411" d="M222 350L374 350L374 513L261 513" stroke-dasharray="8,5" stroke="#323232" stroke-width="2" fill="none" marker-end="url(#SvgjsMarker1412)"></path></g><g id="SvgjsG1414"><path id="SvgjsPath1415" d="M97 803L25 803L25 967L210 967" stroke-dasharray="8,5" stroke="#323232" stroke-width="2" fill="none" marker-end="url(#SvgjsMarker1416)"></path></g><g id="SvgjsG1418"><path id="SvgjsPath1419" d="M261 674L392 674L392 831L299 831" stroke-dasharray="8,5" stroke="#323232" stroke-width="2" fill="none" marker-end="url(#SvgjsMarker1420)"></path></g></svg>