<svg id="SvgjsSvg1752" width="654" height="538" xmlns="http://www.w3.org/2000/svg" version="1.1" xmlns:xlink="http://www.w3.org/1999/xlink" xmlns:svgjs="http://svgjs.com/svgjs"><defs id="SvgjsDefs1753"><marker id="SvgjsMarker1812" markerWidth="16" markerHeight="12" refX="16" refY="6" viewBox="0 0 16 12" orient="auto" markerUnits="userSpaceOnUse" stroke-dasharray="0,0"><path id="SvgjsPath1813" d="M0,2 L14,6 L0,11 L0,2" fill="#323232" stroke="#323232" stroke-width="2"></path></marker><marker id="SvgjsMarker1848" markerWidth="16" markerHeight="12" refX="16" refY="6" viewBox="0 0 16 12" orient="auto" markerUnits="userSpaceOnUse" stroke-dasharray="0,0"><path id="SvgjsPath1849" d="M0,2 L14,6 L0,11 L0,2" fill="#323232" stroke="#323232" stroke-width="2"></path></marker><marker id="SvgjsMarker1896" markerWidth="16" markerHeight="12" refX="16" refY="6" viewBox="0 0 16 12" orient="auto" markerUnits="userSpaceOnUse" stroke-dasharray="0,0"><path id="SvgjsPath1897" d="M0,2 L14,6 L0,11 L0,2" fill="#323232" stroke="#323232" stroke-width="2"></path></marker></defs><g id="SvgjsG1754" transform="translate(442.5,242.5)"><path id="SvgjsPath1755" d="M 0 0L 132.0625 0L 132.0625 33L 0 33Z" stroke="rgba(50,50,50,1)" stroke-width="2" fill-opacity="1" fill="#ffffff"></path><g id="SvgjsG1756"><text id="SvgjsText1757" font-family="微软雅黑" text-anchor="middle" font-size="13px" width="113px" fill="#323232" font-weight="400" align="middle" lineHeight="125%" anchor="middle" family="微软雅黑" size="13px" weight="400" font-style="" opacity="1" y="6.875" transform="rotate(0)"></text></g></g><g id="SvgjsG1758" transform="translate(462.5,242)"><path id="SvgjsPath1759" d="M 0 0L 89.375 0L 89.375 34L 0 34Z" stroke="rgba(50,50,50,1)" stroke-width="2" fill-opacity="1" fill="#ffffff"></path><g id="SvgjsG1760"><text id="SvgjsText1761" font-family="微软雅黑" text-anchor="middle" font-size="13px" width="70px" fill="#323232" font-weight="400" align="middle" lineHeight="125%" anchor="middle" family="微软雅黑" size="13px" weight="400" font-style="" opacity="1" y="7.375" transform="rotate(0)"></text></g></g><g id="SvgjsG1762" transform="translate(270,247.5)"><path id="SvgjsPath1763" d="M 0 0L 132.0625 0L 132.0625 33L 0 33Z" stroke="rgba(50,50,50,1)" stroke-width="2" fill-opacity="1" fill="#ffffff"></path><g id="SvgjsG1764"><text id="SvgjsText1765" font-family="微软雅黑" text-anchor="middle" font-size="13px" width="113px" fill="#323232" font-weight="400" align="middle" lineHeight="125%" anchor="middle" family="微软雅黑" size="13px" weight="400" font-style="" opacity="1" y="6.875" transform="rotate(0)"></text></g></g><g id="SvgjsG1766" transform="translate(288.8125,247)"><path id="SvgjsPath1767" d="M 0 0L 89.375 0L 89.375 34L 0 34Z" stroke="rgba(50,50,50,1)" stroke-width="2" fill-opacity="1" fill="#ffffff"></path><g id="SvgjsG1768"><text id="SvgjsText1769" font-family="微软雅黑" text-anchor="middle" font-size="13px" width="70px" fill="#323232" font-weight="400" align="middle" lineHeight="125%" anchor="middle" family="微软雅黑" size="13px" weight="400" font-style="" opacity="1" y="7.375" transform="rotate(0)"></text></g></g><g id="SvgjsG1770" transform="translate(557.4375,65)"><path id="SvgjsPath1771" d="M 0 13L 33.28125 0L 66.5625 13L 33.28125 26Z" stroke="rgba(50,50,50,1)" stroke-width="2" fill-opacity="1" fill="#33ffff"></path><g id="SvgjsG1772"><text id="SvgjsText1773" font-family="微软雅黑" text-anchor="middle" font-size="13px" width="47px" fill="#323232" font-weight="400" align="middle" lineHeight="125%" anchor="middle" family="微软雅黑" size="13px" weight="400" font-style="" opacity="1" y="3.505" transform="rotate(0)"></text></g></g><g id="SvgjsG1774" transform="translate(218.4375,65)"><path id="SvgjsPath1775" d="M 0 13L 33.28125 0L 66.5625 13L 33.28125 26Z" stroke="rgba(50,50,50,1)" stroke-width="2" fill-opacity="1" fill="#0066cc"></path><g id="SvgjsG1776"><text id="SvgjsText1777" font-family="微软雅黑" text-anchor="middle" font-size="13px" width="47px" fill="#323232" font-weight="400" align="middle" lineHeight="125%" anchor="middle" family="微软雅黑" size="13px" weight="400" font-style="" opacity="1" y="3.505" transform="rotate(0)"></text></g></g><g id="SvgjsG1778" transform="translate(307.78125,25.5)"><path id="SvgjsPath1779" d="M 0 0L 73.8125 0L 73.8125 33L 0 33Z" stroke="rgba(50,50,50,1)" stroke-width="2" fill-opacity="1" fill="#ffffff"></path><g id="SvgjsG1780"><text id="SvgjsText1781" font-family="微软雅黑" text-anchor="middle" font-size="13px" width="54px" fill="#323232" font-weight="400" align="middle" lineHeight="125%" anchor="middle" family="微软雅黑" size="13px" weight="400" font-style="" opacity="1" y="6.875" transform="rotate(0)"></text></g></g><g id="SvgjsG1782" transform="translate(288.4375,68)"><path id="SvgjsPath1783" d="M 0 4Q 0 0 4 0L 121.5625 0Q 125.5625 0 125.5625 4L 125.5625 16Q 125.5625 20 121.5625 20L 4 20Q 0 20 0 16Z" stroke="rgba(50,50,50,1)" stroke-width="2" fill-opacity="1" fill="#ffffff"></path><g id="SvgjsG1784"><text id="SvgjsText1785" font-family="微软雅黑" text-anchor="middle" font-size="13px" width="106px" fill="#323232" font-weight="400" align="middle" lineHeight="125%" anchor="middle" family="微软雅黑" size="13px" weight="400" font-style="" opacity="1" y="0.375" transform="rotate(0)"></text></g></g><g id="SvgjsG1786" transform="translate(545.5625,88)"><path id="SvgjsPath1787" d="M 0 0L 39 0L 39 34L 0 34Z" stroke="none" fill="none"></path><g id="SvgjsG1788"><text id="SvgjsText1789" font-family="&quot;Lucida Console&quot;" text-anchor="middle" font-size="23px" width="39px" fill="#323232" font-weight="400" align="middle" lineHeight="125%" anchor="middle" family="&quot;Lucida Console&quot;" size="23px" weight="400" font-style="" opacity="1" y="-1.875" transform="rotate(0)"><tspan id="SvgjsTspan1790" dy="28" x="19.5"><tspan id="SvgjsTspan1791" style="text-decoration:;">M</tspan></tspan></text></g></g><g id="SvgjsG1792" transform="translate(266.125,92)"><path id="SvgjsPath1793" d="M 0 0L 39 0L 39 34L 0 34Z" stroke="none" fill="none"></path><g id="SvgjsG1794"><text id="SvgjsText1795" font-family="&quot;Lucida Console&quot;" text-anchor="middle" font-size="23px" width="39px" fill="#323232" font-weight="400" align="middle" lineHeight="125%" anchor="middle" family="&quot;Lucida Console&quot;" size="23px" weight="400" font-style="" opacity="1" y="-1.875" transform="rotate(0)"><tspan id="SvgjsTspan1796" dy="28" x="19.5"><tspan id="SvgjsTspan1797" style="text-decoration:;">M'</tspan></tspan></text></g></g><g id="SvgjsG1798" transform="translate(475.5625,25)"><path id="SvgjsPath1799" d="M 0 0L 39 0L 39 34L 0 34Z" stroke="none" fill="none"></path><g id="SvgjsG1800"><text id="SvgjsText1801" font-family="&quot;Lucida Console&quot;" text-anchor="middle" font-size="23px" width="39px" fill="#323232" font-weight="400" align="middle" lineHeight="125%" anchor="middle" family="&quot;Lucida Console&quot;" size="23px" weight="400" font-style="" opacity="1" y="-1.875" transform="rotate(0)"><tspan id="SvgjsTspan1802" dy="28" x="19.5"><tspan id="SvgjsTspan1803" style="text-decoration:;">i</tspan></tspan></text></g></g><g id="SvgjsG1804" transform="translate(325.1875,25)"><path id="SvgjsPath1805" d="M 0 0L 39 0L 39 34L 0 34Z" stroke="none" fill="none"></path><g id="SvgjsG1806"><text id="SvgjsText1807" font-family="&quot;Lucida Console&quot;" text-anchor="middle" font-size="23px" width="39px" fill="#323232" font-weight="400" align="middle" lineHeight="125%" anchor="middle" family="&quot;Lucida Console&quot;" size="23px" weight="400" font-style="" opacity="1" y="-1.875" transform="rotate(0)"><tspan id="SvgjsTspan1808" dy="28" x="19.5"><tspan id="SvgjsTspan1809" style="text-decoration:;">j</tspan></tspan></text></g></g><g id="SvgjsG1810"><path id="SvgjsPath1811" d="M211 466L420.15625 466L420.15625 466L629.3125 466" stroke="#323232" stroke-width="2" fill="none" marker-end="url(#SvgjsMarker1812)"></path><rect id="SvgjsRect1814" width="11" height="23" x="414.65625" y="454.5" fill="#ffffff"></rect><text id="SvgjsText1815" font-family="&quot;Lucida Console&quot;" text-anchor="middle" font-size="18px" width="11px" fill="#323232" font-weight="400" align="top" lineHeight="23px" anchor="middle" family="&quot;Lucida Console&quot;" size="18px" weight="400" font-style="" opacity="1" y="452.25" transform="rotate(0)"><tspan id="SvgjsTspan1816" dy="22" x="420.15625"><tspan id="SvgjsTspan1817" style="text-decoration:;">C</tspan></tspan></text></g><g id="SvgjsG1818" transform="translate(514.5625,476)"><path id="SvgjsPath1819" d="M 0 0L 39 0L 39 34L 0 34Z" stroke="none" fill="none"></path><g id="SvgjsG1820"><text id="SvgjsText1821" font-family="&quot;Lucida Console&quot;" text-anchor="middle" font-size="23px" width="39px" fill="#323232" font-weight="400" align="middle" lineHeight="125%" anchor="middle" family="&quot;Lucida Console&quot;" size="23px" weight="400" font-style="" opacity="1" y="-1.875" transform="rotate(0)"><tspan id="SvgjsTspan1822" dy="28" x="19.5"><tspan id="SvgjsTspan1823" style="text-decoration:;">M</tspan></tspan></text></g></g><g id="SvgjsG1824" transform="translate(266.125,479)"><path id="SvgjsPath1825" d="M 0 0L 39 0L 39 34L 0 34Z" stroke="none" fill="none"></path><g id="SvgjsG1826"><text id="SvgjsText1827" font-family="&quot;Lucida Console&quot;" text-anchor="middle" font-size="23px" width="39px" fill="#323232" font-weight="400" align="middle" lineHeight="125%" anchor="middle" family="&quot;Lucida Console&quot;" size="23px" weight="400" font-style="" opacity="1" y="-1.875" transform="rotate(0)"><tspan id="SvgjsTspan1828" dy="28" x="19.5"><tspan id="SvgjsTspan1829" style="text-decoration:;">M'</tspan></tspan></text></g></g><g id="SvgjsG1830" transform="translate(568.5625,406)"><path id="SvgjsPath1831" d="M 0 0L 39 0L 39 34L 0 34Z" stroke="none" fill="none"></path><g id="SvgjsG1832"><text id="SvgjsText1833" font-family="&quot;Lucida Console&quot;" text-anchor="middle" font-size="23px" width="39px" fill="#323232" font-weight="400" align="middle" lineHeight="125%" anchor="middle" family="&quot;Lucida Console&quot;" size="23px" weight="400" font-style="" opacity="1" y="-1.875" transform="rotate(0)"><tspan id="SvgjsTspan1834" dy="28" x="19.5"><tspan id="SvgjsTspan1835" style="text-decoration:;">i</tspan></tspan></text></g></g><g id="SvgjsG1836" transform="translate(216.1875,403)"><path id="SvgjsPath1837" d="M 0 0L 39 0L 39 34L 0 34Z" stroke="none" fill="none"></path><g id="SvgjsG1838"><text id="SvgjsText1839" font-family="&quot;Lucida Console&quot;" text-anchor="middle" font-size="23px" width="39px" fill="#323232" font-weight="400" align="middle" lineHeight="125%" anchor="middle" family="&quot;Lucida Console&quot;" size="23px" weight="400" font-style="" opacity="1" y="-1.875" transform="rotate(0)"><tspan id="SvgjsTspan1840" dy="28" x="19.5"><tspan id="SvgjsTspan1841" style="text-decoration:;">j</tspan></tspan></text></g></g><g id="SvgjsG1842" transform="translate(430.1875,68)"><path id="SvgjsPath1843" d="M 0 4Q 0 0 4 0L 121.5625 0Q 125.5625 0 125.5625 4L 125.5625 16Q 125.5625 20 121.5625 20L 4 20Q 0 20 0 16Z" stroke="rgba(50,50,50,1)" stroke-width="2" fill-opacity="1" fill="#ffffff"></path><g id="SvgjsG1844"><text id="SvgjsText1845" font-family="微软雅黑" text-anchor="middle" font-size="13px" width="106px" fill="#323232" font-weight="400" align="middle" lineHeight="125%" anchor="middle" family="微软雅黑" size="13px" weight="400" font-style="" opacity="1" y="0.375" transform="rotate(0)"></text></g></g><g id="SvgjsG1846"><path id="SvgjsPath1847" d="M211 78L420.15625 78L420.15625 78L629.3125 78" stroke="#323232" stroke-width="2" fill="none" marker-end="url(#SvgjsMarker1848)"></path><rect id="SvgjsRect1850" width="11" height="23" x="414.65625" y="66.5" fill="#ffffff"></rect><text id="SvgjsText1851" font-family="&quot;Lucida Console&quot;" text-anchor="middle" font-size="18px" width="11px" fill="#323232" font-weight="400" align="top" lineHeight="23px" anchor="middle" family="&quot;Lucida Console&quot;" size="18px" weight="400" font-style="" opacity="1" y="64.25" transform="rotate(0)"><tspan id="SvgjsTspan1852" dy="22" x="420.15625"><tspan id="SvgjsTspan1853" style="text-decoration:;">C</tspan></tspan></text></g><g id="SvgjsG1854" transform="translate(555.75,287)"><path id="SvgjsPath1855" d="M 0 13L 33.28125 0L 66.5625 13L 33.28125 26Z" stroke="rgba(50,50,50,1)" stroke-width="2" fill-opacity="1" fill="#33ffff"></path><g id="SvgjsG1856"><text id="SvgjsText1857" font-family="微软雅黑" text-anchor="middle" font-size="13px" width="47px" fill="#323232" font-weight="400" align="middle" lineHeight="125%" anchor="middle" family="微软雅黑" size="13px" weight="400" font-style="" opacity="1" y="3.505" transform="rotate(0)"></text></g></g><g id="SvgjsG1858" transform="translate(216.75,287)"><path id="SvgjsPath1859" d="M 0 13L 33.28125 0L 66.5625 13L 33.28125 26Z" stroke="rgba(50,50,50,1)" stroke-width="2" fill-opacity="1" fill="#0066cc"></path><g id="SvgjsG1860"><text id="SvgjsText1861" font-family="微软雅黑" text-anchor="middle" font-size="13px" width="47px" fill="#323232" font-weight="400" align="middle" lineHeight="125%" anchor="middle" family="微软雅黑" size="13px" weight="400" font-style="" opacity="1" y="3.505" transform="rotate(0)"></text></g></g><g id="SvgjsG1862" transform="translate(286.75,290)"><path id="SvgjsPath1863" d="M 0 4Q 0 0 4 0L 121.5625 0Q 125.5625 0 125.5625 4L 125.5625 16Q 125.5625 20 121.5625 20L 4 20Q 0 20 0 16Z" stroke="rgba(50,50,50,1)" stroke-width="2" fill-opacity="1" fill="#ffffff"></path><g id="SvgjsG1864"><text id="SvgjsText1865" font-family="微软雅黑" text-anchor="middle" font-size="13px" width="106px" fill="#323232" font-weight="400" align="middle" lineHeight="125%" anchor="middle" family="微软雅黑" size="13px" weight="400" font-style="" opacity="1" y="0.375" transform="rotate(0)"></text></g></g><g id="SvgjsG1866" transform="translate(543.875,310)"><path id="SvgjsPath1867" d="M 0 0L 39 0L 39 34L 0 34Z" stroke="none" fill="none"></path><g id="SvgjsG1868"><text id="SvgjsText1869" font-family="&quot;Lucida Console&quot;" text-anchor="middle" font-size="23px" width="39px" fill="#323232" font-weight="400" align="middle" lineHeight="125%" anchor="middle" family="&quot;Lucida Console&quot;" size="23px" weight="400" font-style="" opacity="1" y="-1.875" transform="rotate(0)"><tspan id="SvgjsTspan1870" dy="28" x="19.5"><tspan id="SvgjsTspan1871" style="text-decoration:;">M</tspan></tspan></text></g></g><g id="SvgjsG1872" transform="translate(264.4375,314)"><path id="SvgjsPath1873" d="M 0 0L 39 0L 39 34L 0 34Z" stroke="none" fill="none"></path><g id="SvgjsG1874"><text id="SvgjsText1875" font-family="&quot;Lucida Console&quot;" text-anchor="middle" font-size="23px" width="39px" fill="#323232" font-weight="400" align="middle" lineHeight="125%" anchor="middle" family="&quot;Lucida Console&quot;" size="23px" weight="400" font-style="" opacity="1" y="-1.875" transform="rotate(0)"><tspan id="SvgjsTspan1876" dy="28" x="19.5"><tspan id="SvgjsTspan1877" style="text-decoration:;">M'</tspan></tspan></text></g></g><g id="SvgjsG1878" transform="translate(489.03125,247)"><path id="SvgjsPath1879" d="M 0 0L 39 0L 39 34L 0 34Z" stroke="none" fill="none"></path><g id="SvgjsG1880"><text id="SvgjsText1881" font-family="&quot;Lucida Console&quot;" text-anchor="middle" font-size="23px" width="39px" fill="#323232" font-weight="400" align="middle" lineHeight="125%" anchor="middle" family="&quot;Lucida Console&quot;" size="23px" weight="400" font-style="" opacity="1" y="-1.875" transform="rotate(0)"><tspan id="SvgjsTspan1882" dy="28" x="19.5"><tspan id="SvgjsTspan1883" style="text-decoration:;">i</tspan></tspan></text></g></g><g id="SvgjsG1884" transform="translate(315,247)"><path id="SvgjsPath1885" d="M 0 0L 39 0L 39 34L 0 34Z" stroke="none" fill="none"></path><g id="SvgjsG1886"><text id="SvgjsText1887" font-family="&quot;Lucida Console&quot;" text-anchor="middle" font-size="23px" width="39px" fill="#323232" font-weight="400" align="middle" lineHeight="125%" anchor="middle" family="&quot;Lucida Console&quot;" size="23px" weight="400" font-style="" opacity="1" y="-1.875" transform="rotate(0)"><tspan id="SvgjsTspan1888" dy="28" x="19.5"><tspan id="SvgjsTspan1889" style="text-decoration:;">j</tspan></tspan></text></g></g><g id="SvgjsG1890" transform="translate(426.3125,290)"><path id="SvgjsPath1891" d="M 0 4Q 0 0 4 0L 121.5625 0Q 125.5625 0 125.5625 4L 125.5625 16Q 125.5625 20 121.5625 20L 4 20Q 0 20 0 16Z" stroke="rgba(50,50,50,1)" stroke-width="2" fill-opacity="1" fill="#ffffff"></path><g id="SvgjsG1892"><text id="SvgjsText1893" font-family="微软雅黑" text-anchor="middle" font-size="13px" width="106px" fill="#323232" font-weight="400" align="middle" lineHeight="125%" anchor="middle" family="微软雅黑" size="13px" weight="400" font-style="" opacity="1" y="0.375" transform="rotate(0)"></text></g></g><g id="SvgjsG1894"><path id="SvgjsPath1895" d="M209.3125 300L418.46875 300L418.46875 300L627.625 300" stroke="#323232" stroke-width="2" fill="none" marker-end="url(#SvgjsMarker1896)"></path><rect id="SvgjsRect1898" width="11" height="23" x="412.96875" y="288.5" fill="#ffffff"></rect><text id="SvgjsText1899" font-family="&quot;Lucida Console&quot;" text-anchor="middle" font-size="18px" width="11px" fill="#323232" font-weight="400" align="top" lineHeight="23px" anchor="middle" family="&quot;Lucida Console&quot;" size="18px" weight="400" font-style="" opacity="1" y="286.25" transform="rotate(0)"><tspan id="SvgjsTspan1900" dy="22" x="418.46875"><tspan id="SvgjsTspan1901" style="text-decoration:;">C</tspan></tspan></text></g><g id="SvgjsG1902" transform="translate(347.90625,118)"><path id="SvgjsPath1903" d="M 0 0L 146.1875 0L 146.1875 72L 0 72Z" stroke="none" fill="none"></path><g id="SvgjsG1904"><text id="SvgjsText1905" font-family="&quot;Lucida Console&quot;" text-anchor="middle" font-size="13px" width="147px" fill="#323232" font-weight="400" align="middle" lineHeight="125%" anchor="middle" family="&quot;Lucida Console&quot;" size="13px" weight="400" font-style="" opacity="1" y="2.375" transform="rotate(0)"><tspan id="SvgjsTspan1906" dy="16" x="73.5"><tspan id="SvgjsTspan1907" style="text-decoration:;">M = p[c] + c</tspan></tspan><tspan id="SvgjsTspan1908" dy="16" x="73.5"><tspan id="SvgjsTspan1909" style="text-decoration:;">M'= p[c] - c</tspan></tspan><tspan id="SvgjsTspan1910" dy="16" x="73.5"><tspan id="SvgjsTspan1911" style="text-decoration:;">i - c = c - j</tspan></tspan><tspan id="SvgjsTspan1912" dy="16" x="73.5"><tspan id="SvgjsTspan1913" style="text-decoration:;"> </tspan></tspan></text></g></g><g id="SvgjsG1914" transform="translate(280.75,28.5)"><path id="SvgjsPath1915" d="M 7.486875 0L 15.200625 0L 15.200625 15.65625L 22.6875 15.65625L 11.34375 27L 0 15.65625L 7.486875 15.65625L 7.486875 0Z" stroke="rgba(50,50,50,1)" stroke-width="2" fill-opacity="1" fill="#00cccc"></path><g id="SvgjsG1916"><text id="SvgjsText1917" font-family="微软雅黑" text-anchor="middle" font-size="13px" width="32px" fill="#323232" font-weight="400" align="middle" lineHeight="125%" anchor="middle" family="微软雅黑" size="13px" weight="400" font-style="" opacity="1" y="2.5250000000000004" transform="rotate(0)"></text></g></g><g id="SvgjsG1918" transform="translate(386.75,28.5)"><path id="SvgjsPath1919" d="M 7.486875 0L 15.200625 0L 15.200625 15.65625L 22.6875 15.65625L 11.34375 27L 0 15.65625L 7.486875 15.65625L 7.486875 0Z" stroke="rgba(50,50,50,1)" stroke-width="2" fill-opacity="1" fill="#ffffff"></path><g id="SvgjsG1920"><text id="SvgjsText1921" font-family="微软雅黑" text-anchor="middle" font-size="13px" width="32px" fill="#323232" font-weight="400" align="middle" lineHeight="125%" anchor="middle" family="微软雅黑" size="13px" weight="400" font-style="" opacity="1" y="2.5250000000000004" transform="rotate(0)"></text></g></g><g id="SvgjsG1922" transform="translate(266.125,210.5)"><path id="SvgjsPath1923" d="M 7.486875 0L 15.200625 0L 15.200625 15.65625L 22.6875 15.65625L 11.34375 27L 0 15.65625L 7.486875 15.65625L 7.486875 0Z" stroke="rgba(50,50,50,1)" stroke-width="2" fill-opacity="1" fill="#00cccc"></path><g id="SvgjsG1924"><text id="SvgjsText1925" font-family="微软雅黑" text-anchor="middle" font-size="13px" width="32px" fill="#323232" font-weight="400" align="middle" lineHeight="125%" anchor="middle" family="微软雅黑" size="13px" weight="400" font-style="" opacity="1" y="2.5250000000000004" transform="rotate(0)"></text></g></g><g id="SvgjsG1926" transform="translate(376.125,210.5)"><path id="SvgjsPath1927" d="M 7.486875 0L 15.200625 0L 15.200625 15.65625L 22.6875 15.65625L 11.34375 27L 0 15.65625L 7.486875 15.65625L 7.486875 0Z" stroke="rgba(50,50,50,1)" stroke-width="2" fill-opacity="1" fill="#00cccc"></path><g id="SvgjsG1928"><text id="SvgjsText1929" font-family="微软雅黑" text-anchor="middle" font-size="13px" width="32px" fill="#323232" font-weight="400" align="middle" lineHeight="125%" anchor="middle" family="微软雅黑" size="13px" weight="400" font-style="" opacity="1" y="2.5250000000000004" transform="rotate(0)"></text></g></g><g id="SvgjsG1930" transform="translate(439.9375,210.5)"><path id="SvgjsPath1931" d="M 7.486875 0L 15.200625 0L 15.200625 15.65625L 22.6875 15.65625L 11.34375 27L 0 15.65625L 7.486875 15.65625L 7.486875 0Z" stroke="rgba(50,50,50,1)" stroke-width="2" fill-opacity="1" fill="#00cccc"></path><g id="SvgjsG1932"><text id="SvgjsText1933" font-family="微软雅黑" text-anchor="middle" font-size="13px" width="32px" fill="#323232" font-weight="400" align="middle" lineHeight="125%" anchor="middle" family="微软雅黑" size="13px" weight="400" font-style="" opacity="1" y="2.5250000000000004" transform="rotate(0)"></text></g></g><g id="SvgjsG1934" transform="translate(551.875,210.5)"><path id="SvgjsPath1935" d="M 7.486875 0L 15.200625 0L 15.200625 15.65625L 22.6875 15.65625L 11.34375 27L 0 15.65625L 7.486875 15.65625L 7.486875 0Z" stroke="rgba(50,50,50,1)" stroke-width="2" fill-opacity="1" fill="#ffffff"></path><g id="SvgjsG1936"><text id="SvgjsText1937" font-family="微软雅黑" text-anchor="middle" font-size="13px" width="32px" fill="#323232" font-weight="400" align="middle" lineHeight="125%" anchor="middle" family="微软雅黑" size="13px" weight="400" font-style="" opacity="1" y="2.5250000000000004" transform="rotate(0)"></text></g></g><g id="SvgjsG1938" transform="translate(25,55.5)"><path id="SvgjsPath1939" d="M 0 0L 120 0L 120 40L 0 40Z" stroke="none" fill="none"></path><g id="SvgjsG1940"><text id="SvgjsText1941" font-family="&quot;Lucida Console&quot;" text-anchor="middle" font-size="13px" width="120px" fill="#323232" font-weight="400" align="middle" lineHeight="125%" anchor="middle" family="&quot;Lucida Console&quot;" size="13px" weight="400" font-style="" opacity="1" y="2.375" transform="rotate(0)"><tspan id="SvgjsTspan1942" dy="16" x="60"><tspan id="SvgjsTspan1943" style="text-decoration:;">i &lt;= Mi + p[j] </tspan></tspan><tspan id="SvgjsTspan1944" dy="16" x="60"><tspan id="SvgjsTspan1945" style="text-decoration:;">&lt;= M </tspan></tspan></text></g></g><g id="SvgjsG1946" transform="translate(34,280)"><path id="SvgjsPath1947" d="M 0 0L 120 0L 120 40L 0 40Z" stroke="none" fill="none"></path><g id="SvgjsG1948"><text id="SvgjsText1949" font-family="&quot;Lucida Console&quot;" text-anchor="middle" font-size="13px" width="120px" fill="#323232" font-weight="400" align="middle" lineHeight="125%" anchor="middle" family="&quot;Lucida Console&quot;" size="13px" weight="400" font-style="" opacity="1" y="2.375" transform="rotate(0)"><tspan id="SvgjsTspan1950" dy="16" x="60"><tspan id="SvgjsTspan1951" style="text-decoration:;">i &lt;= Mi + p[j] </tspan></tspan><tspan id="SvgjsTspan1952" dy="16" x="60"><tspan id="SvgjsTspan1953" style="text-decoration:;">&gt; M </tspan></tspan></text></g></g><g id="SvgjsG1954" transform="translate(34,446)"><path id="SvgjsPath1955" d="M 0 0L 120 0L 120 40L 0 40Z" stroke="none" fill="none"></path><g id="SvgjsG1956"><text id="SvgjsText1957" font-family="&quot;Lucida Console&quot;" text-anchor="middle" font-size="13px" width="120px" fill="#323232" font-weight="400" align="middle" lineHeight="125%" anchor="middle" family="&quot;Lucida Console&quot;" size="13px" weight="400" font-style="" opacity="1" y="10.375" transform="rotate(0)"><tspan id="SvgjsTspan1958" dy="16" x="60"><tspan id="SvgjsTspan1959" style="text-decoration:;">i &gt; M </tspan></tspan></text></g></g></svg>