<svg id="SvgjsSvg2840" width="1192" height="331" xmlns="http://www.w3.org/2000/svg" version="1.1" xmlns:xlink="http://www.w3.org/1999/xlink" xmlns:svgjs="http://svgjs.com/svgjs"><defs id="SvgjsDefs2841"><marker id="SvgjsMarker2848" markerWidth="16" markerHeight="12" refX="16" refY="6" viewBox="0 0 16 12" orient="auto" markerUnits="userSpaceOnUse" stroke-dasharray="0,0"><path id="SvgjsPath2849" d="M0,2 L14,6 L0,11 L0,2" fill="#323232" stroke="#323232" stroke-width="2"></path></marker><marker id="SvgjsMarker2860" markerWidth="16" markerHeight="12" refX="16" refY="6" viewBox="0 0 16 12" orient="auto" markerUnits="userSpaceOnUse" stroke-dasharray="0,0"><path id="SvgjsPath2861" d="M0,2 L14,6 L0,11 L0,2" fill="#323232" stroke="#323232" stroke-width="2"></path></marker><marker id="SvgjsMarker2878" markerWidth="16" markerHeight="12" refX="16" refY="6" viewBox="0 0 16 12" orient="auto" markerUnits="userSpaceOnUse" stroke-dasharray="0,0"><path id="SvgjsPath2879" d="M0,2 L14,6 L0,11 L0,2" fill="#ff0000" stroke="#ff0000" stroke-width="2"></path></marker><marker id="SvgjsMarker2896" markerWidth="16" markerHeight="12" refX="16" refY="6" viewBox="0 0 16 12" orient="auto" markerUnits="userSpaceOnUse" stroke-dasharray="0,0"><path id="SvgjsPath2897" d="M0,2 L14,6 L0,11 L0,2" fill="#ff0000" stroke="#ff0000" stroke-width="2"></path></marker><marker id="SvgjsMarker2914" markerWidth="16" markerHeight="12" refX="16" refY="6" viewBox="0 0 16 12" orient="auto" markerUnits="userSpaceOnUse" stroke-dasharray="0,0"><path id="SvgjsPath2915" d="M0,2 L14,6 L0,11 L0,2" fill="#323232" stroke="#323232" stroke-width="2"></path></marker><marker id="SvgjsMarker2928" markerWidth="16" markerHeight="12" refX="16" refY="6" viewBox="0 0 16 12" orient="auto" markerUnits="userSpaceOnUse" stroke-dasharray="0,0"><path id="SvgjsPath2929" d="M0,2 L14,6 L0,11 L0,2" fill="#323232" stroke="#323232" stroke-width="2"></path></marker><marker id="SvgjsMarker2952" markerWidth="16" markerHeight="12" refX="16" refY="6" viewBox="0 0 16 12" orient="auto" markerUnits="userSpaceOnUse" stroke-dasharray="0,0"><path id="SvgjsPath2953" d="M0,2 L14,6 L0,11 L0,2" fill="#323232" stroke="#323232" stroke-width="2"></path></marker><marker id="SvgjsMarker2964" markerWidth="16" markerHeight="12" refX="16" refY="6" viewBox="0 0 16 12" orient="auto" markerUnits="userSpaceOnUse" stroke-dasharray="0,0"><path id="SvgjsPath2965" d="M0,2 L14,6 L0,11 L0,2" fill="#323232" stroke="#323232" stroke-width="2"></path></marker><marker id="SvgjsMarker2982" markerWidth="16" markerHeight="12" refX="16" refY="6" viewBox="0 0 16 12" orient="auto" markerUnits="userSpaceOnUse" stroke-dasharray="0,0"><path id="SvgjsPath2983" d="M0,2 L14,6 L0,11 L0,2" fill="#323232" stroke="#323232" stroke-width="2"></path></marker><marker id="SvgjsMarker2994" markerWidth="16" markerHeight="12" refX="16" refY="6" viewBox="0 0 16 12" orient="auto" markerUnits="userSpaceOnUse" stroke-dasharray="0,0"><path id="SvgjsPath2995" d="M0,2 L14,6 L0,11 L0,2" fill="#323232" stroke="#323232" stroke-width="2"></path></marker><marker id="SvgjsMarker3012" markerWidth="16" markerHeight="12" refX="16" refY="6" viewBox="0 0 16 12" orient="auto" markerUnits="userSpaceOnUse" stroke-dasharray="0,0"><path id="SvgjsPath3013" d="M0,2 L14,6 L0,11 L0,2" fill="#323232" stroke="#323232" stroke-width="2"></path></marker><marker id="SvgjsMarker3024" markerWidth="16" markerHeight="12" refX="16" refY="6" viewBox="0 0 16 12" orient="auto" markerUnits="userSpaceOnUse" stroke-dasharray="0,0"><path id="SvgjsPath3025" d="M0,2 L14,6 L0,11 L0,2" fill="#ff0000" stroke="#ff0000" stroke-width="2"></path></marker><marker id="SvgjsMarker3042" markerWidth="16" markerHeight="12" refX="16" refY="6" viewBox="0 0 16 12" orient="auto" markerUnits="userSpaceOnUse" stroke-dasharray="0,0"><path id="SvgjsPath3043" d="M0,2 L14,6 L0,11 L0,2" fill="#ff0000" stroke="#ff0000" stroke-width="2"></path></marker><marker id="SvgjsMarker3054" markerWidth="16" markerHeight="12" refX="16" refY="6" viewBox="0 0 16 12" orient="auto" markerUnits="userSpaceOnUse" stroke-dasharray="0,0"><path id="SvgjsPath3055" d="M0,2 L14,6 L0,11 L0,2" fill="#323232" stroke="#323232" stroke-width="2"></path></marker><marker id="SvgjsMarker3072" markerWidth="16" markerHeight="12" refX="16" refY="6" viewBox="0 0 16 12" orient="auto" markerUnits="userSpaceOnUse" stroke-dasharray="0,0"><path id="SvgjsPath3073" d="M0,2 L14,6 L0,11 L0,2" fill="#323232" stroke="#323232" stroke-width="2"></path></marker><marker id="SvgjsMarker3080" markerWidth="16" markerHeight="12" refX="16" refY="6" viewBox="0 0 16 12" orient="auto" markerUnits="userSpaceOnUse" stroke-dasharray="0,0"><path id="SvgjsPath3081" d="M0,2 L14,6 L0,11 L0,2" fill="#323232" stroke="#323232" stroke-width="2"></path></marker><marker id="SvgjsMarker3098" markerWidth="16" markerHeight="12" refX="16" refY="6" viewBox="0 0 16 12" orient="auto" markerUnits="userSpaceOnUse" stroke-dasharray="0,0"><path id="SvgjsPath3099" d="M0,2 L14,6 L0,11 L0,2" fill="#323232" stroke="#323232" stroke-width="2"></path></marker><marker id="SvgjsMarker3110" markerWidth="16" markerHeight="12" refX="16" refY="6" viewBox="0 0 16 12" orient="auto" markerUnits="userSpaceOnUse" stroke-dasharray="0,0"><path id="SvgjsPath3111" d="M0,2 L14,6 L0,11 L0,2" fill="#323232" stroke="#323232" stroke-width="2"></path></marker><marker id="SvgjsMarker3130" markerWidth="16" markerHeight="12" refX="16" refY="6" viewBox="0 0 16 12" orient="auto" markerUnits="userSpaceOnUse" stroke-dasharray="0,0"><path id="SvgjsPath3131" d="M0,2 L14,6 L0,11 L0,2" fill="#323232" stroke="#323232" stroke-width="2"></path></marker><marker id="SvgjsMarker3150" markerWidth="16" markerHeight="12" refX="16" refY="6" viewBox="0 0 16 12" orient="auto" markerUnits="userSpaceOnUse" stroke-dasharray="0,0"><path id="SvgjsPath3151" d="M0,2 L14,6 L0,11 L0,2" fill="#ff0000" stroke="#ff0000" stroke-width="2"></path></marker><marker id="SvgjsMarker3162" markerWidth="16" markerHeight="12" refX="16" refY="6" viewBox="0 0 16 12" orient="auto" markerUnits="userSpaceOnUse" stroke-dasharray="0,0"><path id="SvgjsPath3163" d="M0,2 L14,6 L0,11 L0,2" fill="#323232" stroke="#323232" stroke-width="2"></path></marker><marker id="SvgjsMarker3170" markerWidth="16" markerHeight="12" refX="16" refY="6" viewBox="0 0 16 12" orient="auto" markerUnits="userSpaceOnUse" stroke-dasharray="0,0"><path id="SvgjsPath3171" d="M0,2 L14,6 L0,11 L0,2" fill="#00ffff" stroke="#00ffff" stroke-width="2"></path></marker><marker id="SvgjsMarker3174" markerWidth="16" markerHeight="12" refX="16" refY="6" viewBox="0 0 16 12" orient="auto" markerUnits="userSpaceOnUse" stroke-dasharray="0,0"><path id="SvgjsPath3175" d="M0,2 L14,6 L0,11 L0,2" fill="#33ffff" stroke="#33ffff" stroke-width="2"></path></marker><marker id="SvgjsMarker3178" markerWidth="16" markerHeight="12" refX="16" refY="6" viewBox="0 0 16 12" orient="auto" markerUnits="userSpaceOnUse" stroke-dasharray="0,0"><path id="SvgjsPath3179" d="M0,2 L14,6 L0,11 L0,2" fill="#00ffff" stroke="#00ffff" stroke-width="2"></path></marker><marker id="SvgjsMarker3182" markerWidth="16" markerHeight="12" refX="16" refY="6" viewBox="0 0 16 12" orient="auto" markerUnits="userSpaceOnUse" stroke-dasharray="0,0"><path id="SvgjsPath3183" d="M0,2 L14,6 L0,11 L0,2" fill="#00ffff" stroke="#00ffff" stroke-width="2"></path></marker><marker id="SvgjsMarker3192" markerWidth="16" markerHeight="12" refX="16" refY="6" viewBox="0 0 16 12" orient="auto" markerUnits="userSpaceOnUse" stroke-dasharray="0,0"><path id="SvgjsPath3193" d="M0,2 L14,6 L0,11 L0,2" fill="#00ffff" stroke="#00ffff" stroke-width="2"></path></marker><marker id="SvgjsMarker3196" markerWidth="16" markerHeight="12" refX="16" refY="6" viewBox="0 0 16 12" orient="auto" markerUnits="userSpaceOnUse" stroke-dasharray="0,0"><path id="SvgjsPath3197" d="M0,2 L14,6 L0,11 L0,2" fill="#00ffff" stroke="#00ffff" stroke-width="2"></path></marker><marker id="SvgjsMarker3200" markerWidth="16" markerHeight="12" refX="16" refY="6" viewBox="0 0 16 12" orient="auto" markerUnits="userSpaceOnUse" stroke-dasharray="0,0"><path id="SvgjsPath3201" d="M0,2 L14,6 L0,11 L0,2" fill="#ff0000" stroke="#ff0000" stroke-width="2"></path></marker><marker id="SvgjsMarker3220" markerWidth="16" markerHeight="12" refX="16" refY="6" viewBox="0 0 16 12" orient="auto" markerUnits="userSpaceOnUse" stroke-dasharray="0,0"><path id="SvgjsPath3221" d="M0,2 L14,6 L0,11 L0,2" fill="#ff3333" stroke="#ff3333" stroke-width="2"></path></marker><marker id="SvgjsMarker3224" markerWidth="16" markerHeight="12" refX="16" refY="6" viewBox="0 0 16 12" orient="auto" markerUnits="userSpaceOnUse" stroke-dasharray="0,0"><path id="SvgjsPath3225" d="M0,2 L14,6 L0,11 L0,2" fill="#ff3333" stroke="#ff3333" stroke-width="2"></path></marker></defs><g id="SvgjsG2842" transform="translate(25,177)"><path id="SvgjsPath2843" d="M 0 0L 36 0L 36 35L 0 35Z" stroke="rgba(50,50,50,1)" stroke-width="2" fill-opacity="1" fill="#ffffff"></path><g id="SvgjsG2844"><text id="SvgjsText2845" font-family="微软雅黑" text-anchor="middle" font-size="13px" width="16px" fill="#323232" font-weight="400" align="middle" lineHeight="125%" anchor="middle" family="微软雅黑" size="13px" weight="400" font-style="" opacity="1" y="7.875" transform="rotate(0)"></text></g></g><g id="SvgjsG2846"><path id="SvgjsPath2847" d="M53 194.5L123 194.5L123 195L193 195" stroke="#323232" stroke-width="2" fill="none" marker-end="url(#SvgjsMarker2848)"></path></g><g id="SvgjsG2850" transform="translate(33,184.5)"><path id="SvgjsPath2851" d="M 0 10C 0 -3.3333333333333335 20 -3.3333333333333335 20 10C 20 23.333333333333332 0 23.333333333333332 0 10Z" stroke="none" fill-opacity="1" fill="#323232"></path><g id="SvgjsG2852"><text id="SvgjsText2853" font-family="微软雅黑" text-anchor="middle" font-size="13px" width="60px" fill="#323232" font-weight="400" align="middle" lineHeight="125%" anchor="middle" family="微软雅黑" size="13px" weight="400" font-style="" opacity="1" y="25.375" transform="rotate(0)"></text></g></g><g id="SvgjsG2854" transform="translate(229,177)"><path id="SvgjsPath2855" d="M 0 0L 36 0L 36 35L 0 35Z" stroke="rgba(50,50,50,1)" stroke-width="2" fill-opacity="1" fill="#ffffff"></path><g id="SvgjsG2856"><text id="SvgjsText2857" font-family="&quot;Lucida Console&quot;" text-anchor="middle" font-size="13px" width="16px" fill="#323232" font-weight="400" align="middle" lineHeight="125%" anchor="middle" family="&quot;Lucida Console&quot;" size="13px" weight="400" font-style="" opacity="1" y="7.875" transform="rotate(0)"></text></g></g><g id="SvgjsG2858"><path id="SvgjsPath2859" d="M257 194.5L327.5 194.5L327.5 194.5L398 194.5" stroke="#323232" stroke-width="2" fill="none" marker-end="url(#SvgjsMarker2860)"></path></g><g id="SvgjsG2862" transform="translate(237,184.5)"><path id="SvgjsPath2863" d="M 0 10C 0 -3.3333333333333335 20 -3.3333333333333335 20 10C 20 23.333333333333332 0 23.333333333333332 0 10Z" stroke="none" fill-opacity="1" fill="#323232"></path><g id="SvgjsG2864"><text id="SvgjsText2865" font-family="&quot;Lucida Console&quot;" text-anchor="middle" font-size="13px" width="60px" fill="#323232" font-weight="400" align="middle" lineHeight="125%" anchor="middle" family="&quot;Lucida Console&quot;" size="13px" weight="400" font-style="" opacity="1" y="25.375" transform="rotate(0)"></text></g></g><g id="SvgjsG2866" transform="translate(193,177)"><path id="SvgjsPath2867" d="M 0 0L 36 0L 36 70L 0 70Z" stroke="rgba(50,50,50,1)" stroke-width="2" fill-opacity="1" fill="#ffffff"></path><g id="SvgjsG2868"><text id="SvgjsText2869" font-family="&quot;Lucida Console&quot;" text-anchor="middle" font-size="13px" width="16px" fill="#323232" font-weight="400" align="middle" lineHeight="125%" anchor="middle" family="&quot;Lucida Console&quot;" size="13px" weight="400" font-style="" opacity="1" y="25.375" transform="rotate(0)"><tspan id="SvgjsTspan2870" dy="16" x="18"><tspan id="SvgjsTspan2871" style="text-decoration:;">6</tspan></tspan></text></g></g><g id="SvgjsG2872" transform="translate(434,177)"><path id="SvgjsPath2873" d="M 0 0L 36 0L 36 35L 0 35Z" stroke="rgba(50,50,50,1)" stroke-width="2" fill-opacity="1" fill="#ffffff"></path><g id="SvgjsG2874"><text id="SvgjsText2875" font-family="&quot;Lucida Console&quot;" text-anchor="middle" font-size="13px" width="16px" fill="#323232" font-weight="400" align="middle" lineHeight="125%" anchor="middle" family="&quot;Lucida Console&quot;" size="13px" weight="400" font-style="" opacity="1" y="7.875" transform="rotate(0)"></text></g></g><g id="SvgjsG2876"><path id="SvgjsPath2877" d="M462 194.5L534 194.5L534 195L606 195" stroke="#ff0000" stroke-width="2" fill="none" marker-end="url(#SvgjsMarker2878)"></path></g><g id="SvgjsG2880" transform="translate(442,184.5)"><path id="SvgjsPath2881" d="M 0 10C 0 -3.3333333333333335 20 -3.3333333333333335 20 10C 20 23.333333333333332 0 23.333333333333332 0 10Z" stroke="none" fill-opacity="1" fill="#323232"></path><g id="SvgjsG2882"><text id="SvgjsText2883" font-family="&quot;Lucida Console&quot;" text-anchor="middle" font-size="13px" width="60px" fill="#323232" font-weight="400" align="middle" lineHeight="125%" anchor="middle" family="&quot;Lucida Console&quot;" size="13px" weight="400" font-style="" opacity="1" y="25.375" transform="rotate(0)"></text></g></g><g id="SvgjsG2884" transform="translate(398,142)"><path id="SvgjsPath2885" d="M 0 0L 36 0L 36 105L 0 105Z" stroke="rgba(50,50,50,1)" stroke-width="2" fill-opacity="1" fill="#ffffff"></path><g id="SvgjsG2886"><text id="SvgjsText2887" font-family="&quot;Lucida Console&quot;" text-anchor="middle" font-size="13px" width="16px" fill="#323232" font-weight="400" align="middle" lineHeight="125%" anchor="middle" family="&quot;Lucida Console&quot;" size="13px" weight="400" font-style="" opacity="1" y="42.875" transform="rotate(0)"><tspan id="SvgjsTspan2888" dy="16" x="18"><tspan id="SvgjsTspan2889" style="text-decoration:;">9</tspan></tspan></text></g></g><g id="SvgjsG2890" transform="translate(642,177)"><path id="SvgjsPath2891" d="M 0 0L 36 0L 36 35L 0 35Z" stroke="rgba(50,50,50,1)" stroke-width="2" fill-opacity="1" fill="#ffffff"></path><g id="SvgjsG2892"><text id="SvgjsText2893" font-family="&quot;Lucida Console&quot;" text-anchor="middle" font-size="13px" width="16px" fill="#323232" font-weight="400" align="middle" lineHeight="125%" anchor="middle" family="&quot;Lucida Console&quot;" size="13px" weight="400" font-style="" opacity="1" y="7.875" transform="rotate(0)"></text></g></g><g id="SvgjsG2894"><path id="SvgjsPath2895" d="M670 194.5L742 194.5L742 195L814 195" stroke="#ff0000" stroke-width="2" fill="none" marker-end="url(#SvgjsMarker2896)"></path></g><g id="SvgjsG2898" transform="translate(650,184.5)"><path id="SvgjsPath2899" d="M 0 10C 0 -3.3333333333333335 20 -3.3333333333333335 20 10C 20 23.333333333333332 0 23.333333333333332 0 10Z" stroke="none" fill-opacity="1" fill="#323232"></path><g id="SvgjsG2900"><text id="SvgjsText2901" font-family="&quot;Lucida Console&quot;" text-anchor="middle" font-size="13px" width="60px" fill="#323232" font-weight="400" align="middle" lineHeight="125%" anchor="middle" family="&quot;Lucida Console&quot;" size="13px" weight="400" font-style="" opacity="1" y="25.375" transform="rotate(0)"></text></g></g><g id="SvgjsG2902" transform="translate(606,107)"><path id="SvgjsPath2903" d="M 0 0L 36 0L 36 140L 0 140Z" stroke="rgba(50,50,50,1)" stroke-width="2" fill-opacity="1" fill="#ffffff"></path><g id="SvgjsG2904"><text id="SvgjsText2905" font-family="&quot;Lucida Console&quot;" text-anchor="middle" font-size="13px" width="16px" fill="#323232" font-weight="400" align="middle" lineHeight="125%" anchor="middle" family="&quot;Lucida Console&quot;" size="13px" weight="400" font-style="" opacity="1" y="60.375" transform="rotate(0)"><tspan id="SvgjsTspan2906" dy="16" x="18"><tspan id="SvgjsTspan2907" style="text-decoration:;">18</tspan></tspan></text></g></g><g id="SvgjsG2908" transform="translate(850,177)"><path id="SvgjsPath2909" d="M 0 0L 36 0L 36 35L 0 35Z" stroke="rgba(50,50,50,1)" stroke-width="2" fill-opacity="1" fill="#ffffff"></path><g id="SvgjsG2910"><text id="SvgjsText2911" font-family="&quot;Lucida Console&quot;" text-anchor="middle" font-size="13px" width="16px" fill="#323232" font-weight="400" align="middle" lineHeight="125%" anchor="middle" family="&quot;Lucida Console&quot;" size="13px" weight="400" font-style="" opacity="1" y="7.875" transform="rotate(0)"></text></g></g><g id="SvgjsG2912"><path id="SvgjsPath2913" d="M878 194.5L949.5 194.5L949.5 195L1021 195" stroke="#323232" stroke-width="2" fill="none" marker-end="url(#SvgjsMarker2914)"></path></g><g id="SvgjsG2916" transform="translate(814,107)"><path id="SvgjsPath2917" d="M 0 0L 36 0L 36 140L 0 140Z" stroke="rgba(50,50,50,1)" stroke-width="2" fill-opacity="1" fill="#ffffff"></path><g id="SvgjsG2918"><text id="SvgjsText2919" font-family="&quot;Lucida Console&quot;" text-anchor="middle" font-size="13px" width="16px" fill="#323232" font-weight="400" align="middle" lineHeight="125%" anchor="middle" family="&quot;Lucida Console&quot;" size="13px" weight="400" font-style="" opacity="1" y="60.375" transform="rotate(0)"><tspan id="SvgjsTspan2920" dy="16" x="18"><tspan id="SvgjsTspan2921" style="text-decoration:;">21</tspan></tspan></text></g></g><g id="SvgjsG2922" transform="translate(1057,177)"><path id="SvgjsPath2923" d="M 0 0L 36 0L 36 35L 0 35Z" stroke="rgba(50,50,50,1)" stroke-width="2" fill-opacity="1" fill="#ffffff"></path><g id="SvgjsG2924"><text id="SvgjsText2925" font-family="&quot;Lucida Console&quot;" text-anchor="middle" font-size="13px" width="16px" fill="#323232" font-weight="400" align="middle" lineHeight="125%" anchor="middle" family="&quot;Lucida Console&quot;" size="13px" weight="400" font-style="" opacity="1" y="7.875" transform="rotate(0)"></text></g></g><g id="SvgjsG2926"><path id="SvgjsPath2927" d="M1085 194.5L1103 194.5L1103 194.5L1121 194.5" stroke="#323232" stroke-width="2" fill="none" marker-end="url(#SvgjsMarker2928)"></path></g><g id="SvgjsG2930" transform="translate(1065,184.5)"><path id="SvgjsPath2931" d="M 0 10C 0 -3.3333333333333335 20 -3.3333333333333335 20 10C 20 23.333333333333332 0 23.333333333333332 0 10Z" stroke="none" fill-opacity="1" fill="#323232"></path><g id="SvgjsG2932"><text id="SvgjsText2933" font-family="&quot;Lucida Console&quot;" text-anchor="middle" font-size="13px" width="60px" fill="#323232" font-weight="400" align="middle" lineHeight="125%" anchor="middle" family="&quot;Lucida Console&quot;" size="13px" weight="400" font-style="" opacity="1" y="25.375" transform="rotate(0)"></text></g></g><g id="SvgjsG2934" transform="translate(1021,177)"><path id="SvgjsPath2935" d="M 0 0L 36 0L 36 70L 0 70Z" stroke="rgba(50,50,50,1)" stroke-width="2" fill-opacity="1" fill="#ffffff"></path><g id="SvgjsG2936"><text id="SvgjsText2937" font-family="&quot;Lucida Console&quot;" text-anchor="middle" font-size="13px" width="16px" fill="#323232" font-weight="400" align="middle" lineHeight="125%" anchor="middle" family="&quot;Lucida Console&quot;" size="13px" weight="400" font-style="" opacity="1" y="25.375" transform="rotate(0)"><tspan id="SvgjsTspan2938" dy="16" x="18"><tspan id="SvgjsTspan2939" style="text-decoration:;">26</tspan></tspan></text></g></g><g id="SvgjsG2940" transform="translate(1127,107)"><path id="SvgjsPath2941" d="M 0 0L 40 0L 40 140L 0 140Z" stroke="rgba(50,50,50,1)" stroke-width="2" fill-opacity="1" fill="#ffffff"></path><g id="SvgjsG2942"><text id="SvgjsText2943" font-family="微软雅黑" text-anchor="middle" font-size="12px" width="20px" fill="#323232" font-weight="400" align="middle" lineHeight="125%" anchor="middle" family="微软雅黑" size="12px" weight="400" font-style="" opacity="1" y="61" transform="rotate(0)"><tspan id="SvgjsTspan2944" dy="15" x="20"><tspan id="SvgjsTspan2945" style="text-decoration:;">NIL</tspan></tspan></text></g></g><g id="SvgjsG2946" transform="translate(25,212)"><path id="SvgjsPath2947" d="M 0 0L 36 0L 36 35L 0 35Z" stroke="rgba(50,50,50,1)" stroke-width="2" fill-opacity="1" fill="#ffffff"></path><g id="SvgjsG2948"><text id="SvgjsText2949" font-family="微软雅黑" text-anchor="middle" font-size="13px" width="16px" fill="#323232" font-weight="400" align="middle" lineHeight="125%" anchor="middle" family="微软雅黑" size="13px" weight="400" font-style="" opacity="1" y="7.875" transform="rotate(0)"></text></g></g><g id="SvgjsG2950"><path id="SvgjsPath2951" d="M53 229.5L71.5 229.5L71.5 229.5L90 229.5" stroke="#323232" stroke-width="2" fill="none" marker-end="url(#SvgjsMarker2952)"></path></g><g id="SvgjsG2954" transform="translate(33,219.5)"><path id="SvgjsPath2955" d="M 0 10C 0 -3.3333333333333335 20 -3.3333333333333335 20 10C 20 23.333333333333332 0 23.333333333333332 0 10Z" stroke="none" fill-opacity="1" fill="#323232"></path><g id="SvgjsG2956"><text id="SvgjsText2957" font-family="微软雅黑" text-anchor="middle" font-size="13px" width="60px" fill="#323232" font-weight="400" align="middle" lineHeight="125%" anchor="middle" family="微软雅黑" size="13px" weight="400" font-style="" opacity="1" y="25.375" transform="rotate(0)"></text></g></g><g id="SvgjsG2958" transform="translate(126,212)"><path id="SvgjsPath2959" d="M 0 0L 36 0L 36 35L 0 35Z" stroke="rgba(50,50,50,1)" stroke-width="2" fill-opacity="1" fill="#ffffff"></path><g id="SvgjsG2960"><text id="SvgjsText2961" font-family="&quot;Lucida Console&quot;" text-anchor="middle" font-size="13px" width="16px" fill="#323232" font-weight="400" align="middle" lineHeight="125%" anchor="middle" family="&quot;Lucida Console&quot;" size="13px" weight="400" font-style="" opacity="1" y="7.875" transform="rotate(0)"></text></g></g><g id="SvgjsG2962"><path id="SvgjsPath2963" d="M154 229.5L172 229.5L172 229.5L190 229.5" stroke="#323232" stroke-width="2" fill="none" marker-end="url(#SvgjsMarker2964)"></path></g><g id="SvgjsG2966" transform="translate(134,219.5)"><path id="SvgjsPath2967" d="M 0 10C 0 -3.3333333333333335 20 -3.3333333333333335 20 10C 20 23.333333333333332 0 23.333333333333332 0 10Z" stroke="none" fill-opacity="1" fill="#323232"></path><g id="SvgjsG2968"><text id="SvgjsText2969" font-family="&quot;Lucida Console&quot;" text-anchor="middle" font-size="13px" width="60px" fill="#323232" font-weight="400" align="middle" lineHeight="125%" anchor="middle" family="&quot;Lucida Console&quot;" size="13px" weight="400" font-style="" opacity="1" y="25.375" transform="rotate(0)"></text></g></g><g id="SvgjsG2970" transform="translate(90,212)"><path id="SvgjsPath2971" d="M 0 0L 36 0L 36 35L 0 35Z" stroke="rgba(50,50,50,1)" stroke-width="2" fill-opacity="1" fill="#ffffff"></path><g id="SvgjsG2972"><text id="SvgjsText2973" font-family="&quot;Lucida Console&quot;" text-anchor="middle" font-size="13px" width="16px" fill="#323232" font-weight="400" align="middle" lineHeight="125%" anchor="middle" family="&quot;Lucida Console&quot;" size="13px" weight="400" font-style="" opacity="1" y="7.875" transform="rotate(0)"><tspan id="SvgjsTspan2974" dy="16" x="18"><tspan id="SvgjsTspan2975" style="text-decoration:;">3</tspan></tspan></text></g></g><g id="SvgjsG2976" transform="translate(229,212)"><path id="SvgjsPath2977" d="M 0 0L 36 0L 36 35L 0 35Z" stroke="rgba(50,50,50,1)" stroke-width="2" fill-opacity="1" fill="#ffffff"></path><g id="SvgjsG2978"><text id="SvgjsText2979" font-family="&quot;Lucida Console&quot;" text-anchor="middle" font-size="13px" width="16px" fill="#323232" font-weight="400" align="middle" lineHeight="125%" anchor="middle" family="&quot;Lucida Console&quot;" size="13px" weight="400" font-style="" opacity="1" y="7.875" transform="rotate(0)"></text></g></g><g id="SvgjsG2980"><path id="SvgjsPath2981" d="M257 229.5L275 229.5L275 229.5L293 229.5" stroke="#323232" stroke-width="2" fill="none" marker-end="url(#SvgjsMarker2982)"></path></g><g id="SvgjsG2984" transform="translate(237,219.5)"><path id="SvgjsPath2985" d="M 0 10C 0 -3.3333333333333335 20 -3.3333333333333335 20 10C 20 23.333333333333332 0 23.333333333333332 0 10Z" stroke="none" fill-opacity="1" fill="#323232"></path><g id="SvgjsG2986"><text id="SvgjsText2987" font-family="&quot;Lucida Console&quot;" text-anchor="middle" font-size="13px" width="60px" fill="#323232" font-weight="400" align="middle" lineHeight="125%" anchor="middle" family="&quot;Lucida Console&quot;" size="13px" weight="400" font-style="" opacity="1" y="25.375" transform="rotate(0)"></text></g></g><g id="SvgjsG2988" transform="translate(331,212)"><path id="SvgjsPath2989" d="M 0 0L 36 0L 36 35L 0 35Z" stroke="rgba(50,50,50,1)" stroke-width="2" fill-opacity="1" fill="#ffffff"></path><g id="SvgjsG2990"><text id="SvgjsText2991" font-family="&quot;Lucida Console&quot;" text-anchor="middle" font-size="13px" width="16px" fill="#323232" font-weight="400" align="middle" lineHeight="125%" anchor="middle" family="&quot;Lucida Console&quot;" size="13px" weight="400" font-style="" opacity="1" y="7.875" transform="rotate(0)"></text></g></g><g id="SvgjsG2992"><path id="SvgjsPath2993" d="M359 229.5L377 229.5L377 229.5L395 229.5" stroke="#323232" stroke-width="2" fill="none" marker-end="url(#SvgjsMarker2994)"></path></g><g id="SvgjsG2996" transform="translate(339,219.5)"><path id="SvgjsPath2997" d="M 0 10C 0 -3.3333333333333335 20 -3.3333333333333335 20 10C 20 23.333333333333332 0 23.333333333333332 0 10Z" stroke="none" fill-opacity="1" fill="#323232"></path><g id="SvgjsG2998"><text id="SvgjsText2999" font-family="&quot;Lucida Console&quot;" text-anchor="middle" font-size="13px" width="60px" fill="#323232" font-weight="400" align="middle" lineHeight="125%" anchor="middle" family="&quot;Lucida Console&quot;" size="13px" weight="400" font-style="" opacity="1" y="25.375" transform="rotate(0)"></text></g></g><g id="SvgjsG3000" transform="translate(295,212)"><path id="SvgjsPath3001" d="M 0 0L 36 0L 36 35L 0 35Z" stroke="rgba(50,50,50,1)" stroke-width="2" fill-opacity="1" fill="#ffffff"></path><g id="SvgjsG3002"><text id="SvgjsText3003" font-family="&quot;Lucida Console&quot;" text-anchor="middle" font-size="13px" width="16px" fill="#323232" font-weight="400" align="middle" lineHeight="125%" anchor="middle" family="&quot;Lucida Console&quot;" size="13px" weight="400" font-style="" opacity="1" y="7.875" transform="rotate(0)"><tspan id="SvgjsTspan3004" dy="16" x="18"><tspan id="SvgjsTspan3005" style="text-decoration:;">7</tspan></tspan></text></g></g><g id="SvgjsG3006" transform="translate(434,212)"><path id="SvgjsPath3007" d="M 0 0L 36 0L 36 35L 0 35Z" stroke="rgba(50,50,50,1)" stroke-width="2" fill-opacity="1" fill="#ffffff"></path><g id="SvgjsG3008"><text id="SvgjsText3009" font-family="&quot;Lucida Console&quot;" text-anchor="middle" font-size="13px" width="16px" fill="#323232" font-weight="400" align="middle" lineHeight="125%" anchor="middle" family="&quot;Lucida Console&quot;" size="13px" weight="400" font-style="" opacity="1" y="7.875" transform="rotate(0)"></text></g></g><g id="SvgjsG3010"><path id="SvgjsPath3011" d="M462 229.5L480 229.5L480 229.5L498 229.5" stroke="#323232" stroke-width="2" fill="none" marker-end="url(#SvgjsMarker3012)"></path></g><g id="SvgjsG3014" transform="translate(442,219.5)"><path id="SvgjsPath3015" d="M 0 10C 0 -3.3333333333333335 20 -3.3333333333333335 20 10C 20 23.333333333333332 0 23.333333333333332 0 10Z" stroke="none" fill-opacity="1" fill="#323232"></path><g id="SvgjsG3016"><text id="SvgjsText3017" font-family="&quot;Lucida Console&quot;" text-anchor="middle" font-size="13px" width="60px" fill="#323232" font-weight="400" align="middle" lineHeight="125%" anchor="middle" family="&quot;Lucida Console&quot;" size="13px" weight="400" font-style="" opacity="1" y="25.375" transform="rotate(0)"></text></g></g><g id="SvgjsG3018" transform="translate(539,212)"><path id="SvgjsPath3019" d="M 0 0L 36 0L 36 35L 0 35Z" stroke="rgba(50,50,50,1)" stroke-width="2" fill-opacity="1" fill="#ffffff"></path><g id="SvgjsG3020"><text id="SvgjsText3021" font-family="&quot;Lucida Console&quot;" text-anchor="middle" font-size="13px" width="16px" fill="#323232" font-weight="400" align="middle" lineHeight="125%" anchor="middle" family="&quot;Lucida Console&quot;" size="13px" weight="400" font-style="" opacity="1" y="7.875" transform="rotate(0)"></text></g></g><g id="SvgjsG3022"><path id="SvgjsPath3023" d="M567 229.5L585 229.5L585 229.5L603 229.5" stroke="#ff0000" stroke-width="2" fill="none" marker-end="url(#SvgjsMarker3024)"></path></g><g id="SvgjsG3026" transform="translate(547,219.5)"><path id="SvgjsPath3027" d="M 0 10C 0 -3.3333333333333335 20 -3.3333333333333335 20 10C 20 23.333333333333332 0 23.333333333333332 0 10Z" stroke="none" fill-opacity="1" fill="#323232"></path><g id="SvgjsG3028"><text id="SvgjsText3029" font-family="&quot;Lucida Console&quot;" text-anchor="middle" font-size="13px" width="60px" fill="#323232" font-weight="400" align="middle" lineHeight="125%" anchor="middle" family="&quot;Lucida Console&quot;" size="13px" weight="400" font-style="" opacity="1" y="25.375" transform="rotate(0)"></text></g></g><g id="SvgjsG3030" transform="translate(503,212)"><path id="SvgjsPath3031" d="M 0 0L 36 0L 36 35L 0 35Z" stroke="rgba(50,50,50,1)" stroke-width="2" fill-opacity="1" fill="#ffffff"></path><g id="SvgjsG3032"><text id="SvgjsText3033" font-family="&quot;Lucida Console&quot;" text-anchor="middle" font-size="13px" width="16px" fill="#323232" font-weight="400" align="middle" lineHeight="125%" anchor="middle" family="&quot;Lucida Console&quot;" size="13px" weight="400" font-style="" opacity="1" y="7.875" transform="rotate(0)"><tspan id="SvgjsTspan3034" dy="16" x="18"><tspan id="SvgjsTspan3035" style="text-decoration:;">12</tspan></tspan></text></g></g><g id="SvgjsG3036" transform="translate(642,212)"><path id="SvgjsPath3037" d="M 0 0L 36 0L 36 35L 0 35Z" stroke="rgba(50,50,50,1)" stroke-width="2" fill-opacity="1" fill="#ffffff"></path><g id="SvgjsG3038"><text id="SvgjsText3039" font-family="&quot;Lucida Console&quot;" text-anchor="middle" font-size="13px" width="16px" fill="#323232" font-weight="400" align="middle" lineHeight="125%" anchor="middle" family="&quot;Lucida Console&quot;" size="13px" weight="400" font-style="" opacity="1" y="7.875" transform="rotate(0)"></text></g></g><g id="SvgjsG3040"><path id="SvgjsPath3041" d="M670 229.5L688 229.5L688 229.5L706 229.5" stroke="#ff0000" stroke-width="2" fill="none" marker-end="url(#SvgjsMarker3042)"></path></g><g id="SvgjsG3044" transform="translate(650,219.5)"><path id="SvgjsPath3045" d="M 0 10C 0 -3.3333333333333335 20 -3.3333333333333335 20 10C 20 23.333333333333332 0 23.333333333333332 0 10Z" stroke="none" fill-opacity="1" fill="#323232"></path><g id="SvgjsG3046"><text id="SvgjsText3047" font-family="&quot;Lucida Console&quot;" text-anchor="middle" font-size="13px" width="60px" fill="#323232" font-weight="400" align="middle" lineHeight="125%" anchor="middle" family="&quot;Lucida Console&quot;" size="13px" weight="400" font-style="" opacity="1" y="25.375" transform="rotate(0)"></text></g></g><g id="SvgjsG3048" transform="translate(747,212)"><path id="SvgjsPath3049" d="M 0 0L 36 0L 36 35L 0 35Z" stroke="rgba(50,50,50,1)" stroke-width="2" fill-opacity="1" fill="#ffffff"></path><g id="SvgjsG3050"><text id="SvgjsText3051" font-family="&quot;Lucida Console&quot;" text-anchor="middle" font-size="13px" width="16px" fill="#323232" font-weight="400" align="middle" lineHeight="125%" anchor="middle" family="&quot;Lucida Console&quot;" size="13px" weight="400" font-style="" opacity="1" y="7.875" transform="rotate(0)"></text></g></g><g id="SvgjsG3052"><path id="SvgjsPath3053" d="M775 229.5L793 229.5L793 229.5L811 229.5" stroke="#323232" stroke-width="2" fill="none" marker-end="url(#SvgjsMarker3054)"></path></g><g id="SvgjsG3056" transform="translate(755,219.5)"><path id="SvgjsPath3057" d="M 0 10C 0 -3.3333333333333335 20 -3.3333333333333335 20 10C 20 23.333333333333332 0 23.333333333333332 0 10Z" stroke="none" fill-opacity="1" fill="#323232"></path><g id="SvgjsG3058"><text id="SvgjsText3059" font-family="&quot;Lucida Console&quot;" text-anchor="middle" font-size="13px" width="60px" fill="#323232" font-weight="400" align="middle" lineHeight="125%" anchor="middle" family="&quot;Lucida Console&quot;" size="13px" weight="400" font-style="" opacity="1" y="25.375" transform="rotate(0)"></text></g></g><g id="SvgjsG3060" transform="translate(711,212)"><path id="SvgjsPath3061" d="M 0 0L 36 0L 36 35L 0 35Z" stroke="rgba(50,50,50,1)" stroke-width="2" fill-opacity="1" fill="#ffffff"></path><g id="SvgjsG3062"><text id="SvgjsText3063" font-family="&quot;Lucida Console&quot;" text-anchor="middle" font-size="13px" width="16px" fill="#323232" font-weight="400" align="middle" lineHeight="125%" anchor="middle" family="&quot;Lucida Console&quot;" size="13px" weight="400" font-style="" opacity="1" y="7.875" transform="rotate(0)"><tspan id="SvgjsTspan3064" dy="16" x="18"><tspan id="SvgjsTspan3065" style="text-decoration:;">19</tspan></tspan></text></g></g><g id="SvgjsG3066" transform="translate(850,212)"><path id="SvgjsPath3067" d="M 0 0L 36 0L 36 35L 0 35Z" stroke="rgba(50,50,50,1)" stroke-width="2" fill-opacity="1" fill="#ffffff"></path><g id="SvgjsG3068"><text id="SvgjsText3069" font-family="&quot;Lucida Console&quot;" text-anchor="middle" font-size="13px" width="16px" fill="#323232" font-weight="400" align="middle" lineHeight="125%" anchor="middle" family="&quot;Lucida Console&quot;" size="13px" weight="400" font-style="" opacity="1" y="7.875" transform="rotate(0)"></text></g></g><g id="SvgjsG3070"><path id="SvgjsPath3071" d="M878 229.5L896 229.5L896 229.5L914 229.5" stroke="#323232" stroke-width="2" fill="none" marker-end="url(#SvgjsMarker3072)"></path></g><g id="SvgjsG3074" transform="translate(954,212)"><path id="SvgjsPath3075" d="M 0 0L 36 0L 36 35L 0 35Z" stroke="rgba(50,50,50,1)" stroke-width="2" fill-opacity="1" fill="#ffffff"></path><g id="SvgjsG3076"><text id="SvgjsText3077" font-family="&quot;Lucida Console&quot;" text-anchor="middle" font-size="13px" width="16px" fill="#323232" font-weight="400" align="middle" lineHeight="125%" anchor="middle" family="&quot;Lucida Console&quot;" size="13px" weight="400" font-style="" opacity="1" y="7.875" transform="rotate(0)"></text></g></g><g id="SvgjsG3078"><path id="SvgjsPath3079" d="M982 229.5L1000 229.5L1000 229.5L1018 229.5" stroke="#323232" stroke-width="2" fill="none" marker-end="url(#SvgjsMarker3080)"></path></g><g id="SvgjsG3082" transform="translate(962,219.5)"><path id="SvgjsPath3083" d="M 0 10C 0 -3.3333333333333335 20 -3.3333333333333335 20 10C 20 23.333333333333332 0 23.333333333333332 0 10Z" stroke="none" fill-opacity="1" fill="#323232"></path><g id="SvgjsG3084"><text id="SvgjsText3085" font-family="&quot;Lucida Console&quot;" text-anchor="middle" font-size="13px" width="60px" fill="#323232" font-weight="400" align="middle" lineHeight="125%" anchor="middle" family="&quot;Lucida Console&quot;" size="13px" weight="400" font-style="" opacity="1" y="25.375" transform="rotate(0)"></text></g></g><g id="SvgjsG3086" transform="translate(918,212)"><path id="SvgjsPath3087" d="M 0 0L 36 0L 36 35L 0 35Z" stroke="rgba(50,50,50,1)" stroke-width="2" fill-opacity="1" fill="#ffffff"></path><g id="SvgjsG3088"><text id="SvgjsText3089" font-family="&quot;Lucida Console&quot;" text-anchor="middle" font-size="13px" width="16px" fill="#323232" font-weight="400" align="middle" lineHeight="125%" anchor="middle" family="&quot;Lucida Console&quot;" size="13px" weight="400" font-style="" opacity="1" y="7.875" transform="rotate(0)"><tspan id="SvgjsTspan3090" dy="16" x="18"><tspan id="SvgjsTspan3091" style="text-decoration:;">25</tspan></tspan></text></g></g><g id="SvgjsG3092" transform="translate(1057,212)"><path id="SvgjsPath3093" d="M 0 0L 36 0L 36 35L 0 35Z" stroke="rgba(50,50,50,1)" stroke-width="2" fill-opacity="1" fill="#ffffff"></path><g id="SvgjsG3094"><text id="SvgjsText3095" font-family="&quot;Lucida Console&quot;" text-anchor="middle" font-size="13px" width="16px" fill="#323232" font-weight="400" align="middle" lineHeight="125%" anchor="middle" family="&quot;Lucida Console&quot;" size="13px" weight="400" font-style="" opacity="1" y="7.875" transform="rotate(0)"></text></g></g><g id="SvgjsG3096"><path id="SvgjsPath3097" d="M1085 229.5L1103 229.5L1103 229.5L1121 229.5" stroke="#323232" stroke-width="2" fill="none" marker-end="url(#SvgjsMarker3098)"></path></g><g id="SvgjsG3100" transform="translate(1065,219.5)"><path id="SvgjsPath3101" d="M 0 10C 0 -3.3333333333333335 20 -3.3333333333333335 20 10C 20 23.333333333333332 0 23.333333333333332 0 10Z" stroke="none" fill-opacity="1" fill="#323232"></path><g id="SvgjsG3102"><text id="SvgjsText3103" font-family="&quot;Lucida Console&quot;" text-anchor="middle" font-size="13px" width="60px" fill="#323232" font-weight="400" align="middle" lineHeight="125%" anchor="middle" family="&quot;Lucida Console&quot;" size="13px" weight="400" font-style="" opacity="1" y="25.375" transform="rotate(0)"></text></g></g><g id="SvgjsG3104" transform="translate(25,142)"><path id="SvgjsPath3105" d="M 0 0L 36 0L 36 35L 0 35Z" stroke="rgba(50,50,50,1)" stroke-width="2" fill-opacity="1" fill="#ffffff"></path><g id="SvgjsG3106"><text id="SvgjsText3107" font-family="微软雅黑" text-anchor="middle" font-size="13px" width="16px" fill="#323232" font-weight="400" align="middle" lineHeight="125%" anchor="middle" family="微软雅黑" size="13px" weight="400" font-style="" opacity="1" y="7.875" transform="rotate(0)"></text></g></g><g id="SvgjsG3108"><path id="SvgjsPath3109" d="M53 159.5L225.5 159.5L225.5 159.5L398 159.5" stroke="#323232" stroke-width="2" fill="none" marker-end="url(#SvgjsMarker3110)"></path></g><g id="SvgjsG3112" transform="translate(33,149.5)"><path id="SvgjsPath3113" d="M 0 10C 0 -3.3333333333333335 20 -3.3333333333333335 20 10C 20 23.333333333333332 0 23.333333333333332 0 10Z" stroke="none" fill-opacity="1" fill="#323232"></path><g id="SvgjsG3114"><text id="SvgjsText3115" font-family="微软雅黑" text-anchor="middle" font-size="13px" width="60px" fill="#323232" font-weight="400" align="middle" lineHeight="125%" anchor="middle" family="微软雅黑" size="13px" weight="400" font-style="" opacity="1" y="25.375" transform="rotate(0)"></text></g></g><g id="SvgjsG3116" transform="translate(434,142)"><path id="SvgjsPath3117" d="M 0 0L 36 0L 36 35L 0 35Z" stroke="rgba(50,50,50,1)" stroke-width="2" fill-opacity="1" fill="#ffffff"></path><g id="SvgjsG3118"><text id="SvgjsText3119" font-family="&quot;Lucida Console&quot;" text-anchor="middle" font-size="13px" width="16px" fill="#323232" font-weight="400" align="middle" lineHeight="125%" anchor="middle" family="&quot;Lucida Console&quot;" size="13px" weight="400" font-style="" opacity="1" y="7.875" transform="rotate(0)"></text></g></g><g id="SvgjsG3120" transform="translate(442,149.5)"><path id="SvgjsPath3121" d="M 0 10C 0 -3.3333333333333335 20 -3.3333333333333335 20 10C 20 23.333333333333332 0 23.333333333333332 0 10Z" stroke="none" fill-opacity="1" fill="#323232"></path><g id="SvgjsG3122"><text id="SvgjsText3123" font-family="&quot;Lucida Console&quot;" text-anchor="middle" font-size="13px" width="60px" fill="#323232" font-weight="400" align="middle" lineHeight="125%" anchor="middle" family="&quot;Lucida Console&quot;" size="13px" weight="400" font-style="" opacity="1" y="25.375" transform="rotate(0)"></text></g></g><g id="SvgjsG3124" transform="translate(850,142)"><path id="SvgjsPath3125" d="M 0 0L 36 0L 36 35L 0 35Z" stroke="rgba(50,50,50,1)" stroke-width="2" fill-opacity="1" fill="#ffffff"></path><g id="SvgjsG3126"><text id="SvgjsText3127" font-family="&quot;Lucida Console&quot;" text-anchor="middle" font-size="13px" width="16px" fill="#323232" font-weight="400" align="middle" lineHeight="125%" anchor="middle" family="&quot;Lucida Console&quot;" size="13px" weight="400" font-style="" opacity="1" y="7.875" transform="rotate(0)"></text></g></g><g id="SvgjsG3128"><path id="SvgjsPath3129" d="M878 159.5L1002.5 159.5L1002.5 160L1127 160" stroke="#323232" stroke-width="2" fill="none" marker-end="url(#SvgjsMarker3130)"></path></g><g id="SvgjsG3132" transform="translate(858,149.5)"><path id="SvgjsPath3133" d="M 0 10C 0 -3.3333333333333335 20 -3.3333333333333335 20 10C 20 23.333333333333332 0 23.333333333333332 0 10Z" stroke="none" fill-opacity="1" fill="#323232"></path><g id="SvgjsG3134"><text id="SvgjsText3135" font-family="&quot;Lucida Console&quot;" text-anchor="middle" font-size="13px" width="60px" fill="#323232" font-weight="400" align="middle" lineHeight="125%" anchor="middle" family="&quot;Lucida Console&quot;" size="13px" weight="400" font-style="" opacity="1" y="25.375" transform="rotate(0)"></text></g></g><g id="SvgjsG3136" transform="translate(858,184.5)"><path id="SvgjsPath3137" d="M 0 10C 0 -3.3333333333333335 20 -3.3333333333333335 20 10C 20 23.333333333333332 0 23.333333333333332 0 10Z" stroke="none" fill-opacity="1" fill="#323232"></path><g id="SvgjsG3138"><text id="SvgjsText3139" font-family="&quot;Lucida Console&quot;" text-anchor="middle" font-size="13px" width="60px" fill="#323232" font-weight="400" align="middle" lineHeight="125%" anchor="middle" family="&quot;Lucida Console&quot;" size="13px" weight="400" font-style="" opacity="1" y="25.375" transform="rotate(0)"></text></g></g><g id="SvgjsG3140" transform="translate(858,219.5)"><path id="SvgjsPath3141" d="M 0 10C 0 -3.3333333333333335 20 -3.3333333333333335 20 10C 20 23.333333333333332 0 23.333333333333332 0 10Z" stroke="none" fill-opacity="1" fill="#323232"></path><g id="SvgjsG3142"><text id="SvgjsText3143" font-family="&quot;Lucida Console&quot;" text-anchor="middle" font-size="13px" width="60px" fill="#323232" font-weight="400" align="middle" lineHeight="125%" anchor="middle" family="&quot;Lucida Console&quot;" size="13px" weight="400" font-style="" opacity="1" y="25.375" transform="rotate(0)"></text></g></g><g id="SvgjsG3144" transform="translate(25,107)"><path id="SvgjsPath3145" d="M 0 0L 36 0L 36 35L 0 35Z" stroke="rgba(50,50,50,1)" stroke-width="2" fill-opacity="1" fill="#ffffff"></path><g id="SvgjsG3146"><text id="SvgjsText3147" font-family="微软雅黑" text-anchor="middle" font-size="13px" width="16px" fill="#323232" font-weight="400" align="middle" lineHeight="125%" anchor="middle" family="微软雅黑" size="13px" weight="400" font-style="" opacity="1" y="7.875" transform="rotate(0)"></text></g></g><g id="SvgjsG3148"><path id="SvgjsPath3149" d="M53 124.5L329.5 124.5L329.5 125L606 125" stroke="#ff0000" stroke-width="2" fill="none" marker-end="url(#SvgjsMarker3150)"></path></g><g id="SvgjsG3152" transform="translate(33,114.5)"><path id="SvgjsPath3153" d="M 0 10C 0 -3.3333333333333335 20 -3.3333333333333335 20 10C 20 23.333333333333332 0 23.333333333333332 0 10Z" stroke="none" fill-opacity="1" fill="#323232"></path><g id="SvgjsG3154"><text id="SvgjsText3155" font-family="微软雅黑" text-anchor="middle" font-size="13px" width="60px" fill="#323232" font-weight="400" align="middle" lineHeight="125%" anchor="middle" family="微软雅黑" size="13px" weight="400" font-style="" opacity="1" y="25.375" transform="rotate(0)"></text></g></g><g id="SvgjsG3156" transform="translate(850,107)"><path id="SvgjsPath3157" d="M 0 0L 36 0L 36 35L 0 35Z" stroke="rgba(50,50,50,1)" stroke-width="2" fill-opacity="1" fill="#ffffff"></path><g id="SvgjsG3158"><text id="SvgjsText3159" font-family="&quot;Lucida Console&quot;" text-anchor="middle" font-size="13px" width="16px" fill="#323232" font-weight="400" align="middle" lineHeight="125%" anchor="middle" family="&quot;Lucida Console&quot;" size="13px" weight="400" font-style="" opacity="1" y="7.875" transform="rotate(0)"></text></g></g><g id="SvgjsG3160"><path id="SvgjsPath3161" d="M878 124.5L1002.5 124.5L1002.5 124.5L1127 124.5" stroke="#323232" stroke-width="2" fill="none" marker-end="url(#SvgjsMarker3162)"></path></g><g id="SvgjsG3164" transform="translate(858,114.5)"><path id="SvgjsPath3165" d="M 0 10C 0 -3.3333333333333335 20 -3.3333333333333335 20 10C 20 23.333333333333332 0 23.333333333333332 0 10Z" stroke="none" fill-opacity="1" fill="#323232"></path><g id="SvgjsG3166"><text id="SvgjsText3167" font-family="&quot;Lucida Console&quot;" text-anchor="middle" font-size="13px" width="60px" fill="#323232" font-weight="400" align="middle" lineHeight="125%" anchor="middle" family="&quot;Lucida Console&quot;" size="13px" weight="400" font-style="" opacity="1" y="25.375" transform="rotate(0)"></text></g></g><g id="SvgjsG3168"><path id="SvgjsPath3169" d="M40 46C 94 25 84.34412723985248 130.02681531914516 53 124.5" stroke="#00ffff" stroke-width="2" fill="none" marker-end="url(#SvgjsMarker3170)"></path></g><g id="SvgjsG3172"><path id="SvgjsPath3173" d="M53 124.5C 126 137 78 147 53 159.5" stroke="#33ffff" stroke-width="2" fill="none" marker-end="url(#SvgjsMarker3174)"></path></g><g id="SvgjsG3176"><path id="SvgjsPath3177" d="M53 159.5C 210.22467342852164 187.22295195852564 353 97 452 149.5" stroke="#00ffff" stroke-width="2" fill="none" marker-end="url(#SvgjsMarker3178)"></path></g><g id="SvgjsG3180"><path id="SvgjsPath3181" d="M470 163C 511 167 497 186 462 194.5" stroke="#00ffff" stroke-width="2" fill="none" marker-end="url(#SvgjsMarker3182)"></path></g><g id="SvgjsG3184" transform="translate(544,266)"><path id="SvgjsPath3185" d="M 0 0L 120 0L 120 40L 0 40Z" stroke="none" fill="none"></path><g id="SvgjsG3186"><text id="SvgjsText3187" font-family="&quot;Lucida Console&quot;" text-anchor="middle" font-size="17px" width="120px" fill="#323232" font-weight="400" align="middle" lineHeight="125%" anchor="middle" family="&quot;Lucida Console&quot;" size="17px" weight="400" font-style="" opacity="1" y="7.375" transform="rotate(0)"><tspan id="SvgjsTspan3188" dy="21" x="60"><tspan id="SvgjsTspan3189" style="text-decoration:;">插入18</tspan></tspan></text></g></g><g id="SvgjsG3190"><path id="SvgjsPath3191" d="M463 195C 487 203 481 217 462 229.5" stroke="#00ffff" stroke-width="2" fill="none" marker-end="url(#SvgjsMarker3192)"></path></g><g id="SvgjsG3194"><path id="SvgjsPath3195" d="M459 229C 496 209 527 190 557 219.5" stroke="#00ffff" stroke-width="2" fill="none" marker-end="url(#SvgjsMarker3196)"></path></g><g id="SvgjsG3198"><path id="SvgjsPath3199" d="M462 159.5L534 159.5L534 160L606 160" stroke="#ff0000" stroke-width="2" fill="none" marker-end="url(#SvgjsMarker3200)"></path></g><g id="SvgjsG3202" transform="translate(642,107)"><path id="SvgjsPath3203" d="M 0 0L 36 0L 36 35L 0 35Z" stroke="rgba(50,50,50,1)" stroke-width="2" fill-opacity="1" fill="#ffffff"></path><g id="SvgjsG3204"><text id="SvgjsText3205" font-family="&quot;Lucida Console&quot;" text-anchor="middle" font-size="13px" width="16px" fill="#323232" font-weight="400" align="middle" lineHeight="125%" anchor="middle" family="&quot;Lucida Console&quot;" size="13px" weight="400" font-style="" opacity="1" y="7.875" transform="rotate(0)"></text></g></g><g id="SvgjsG3206" transform="translate(650,114.5)"><path id="SvgjsPath3207" d="M 0 10C 0 -3.3333333333333335 20 -3.3333333333333335 20 10C 20 23.333333333333332 0 23.333333333333332 0 10Z" stroke="none" fill-opacity="1" fill="#323232"></path><g id="SvgjsG3208"><text id="SvgjsText3209" font-family="&quot;Lucida Console&quot;" text-anchor="middle" font-size="13px" width="60px" fill="#323232" font-weight="400" align="middle" lineHeight="125%" anchor="middle" family="&quot;Lucida Console&quot;" size="13px" weight="400" font-style="" opacity="1" y="25.375" transform="rotate(0)"></text></g></g><g id="SvgjsG3210" transform="translate(642,142)"><path id="SvgjsPath3211" d="M 0 0L 36 0L 36 35L 0 35Z" stroke="rgba(50,50,50,1)" stroke-width="2" fill-opacity="1" fill="#ffffff"></path><g id="SvgjsG3212"><text id="SvgjsText3213" font-family="&quot;Lucida Console&quot;" text-anchor="middle" font-size="13px" width="16px" fill="#323232" font-weight="400" align="middle" lineHeight="125%" anchor="middle" family="&quot;Lucida Console&quot;" size="13px" weight="400" font-style="" opacity="1" y="7.875" transform="rotate(0)"></text></g></g><g id="SvgjsG3214" transform="translate(650,149.5)"><path id="SvgjsPath3215" d="M 0 10C 0 -3.3333333333333335 20 -3.3333333333333335 20 10C 20 23.333333333333332 0 23.333333333333332 0 10Z" stroke="none" fill-opacity="1" fill="#323232"></path><g id="SvgjsG3216"><text id="SvgjsText3217" font-family="&quot;Lucida Console&quot;" text-anchor="middle" font-size="13px" width="60px" fill="#323232" font-weight="400" align="middle" lineHeight="125%" anchor="middle" family="&quot;Lucida Console&quot;" size="13px" weight="400" font-style="" opacity="1" y="25.375" transform="rotate(0)"></text></g></g><g id="SvgjsG3218"><path id="SvgjsPath3219" d="M670 124.5L738 124.5L738 124.5L806 124.5" stroke="#ff3333" stroke-width="2" fill="none" marker-end="url(#SvgjsMarker3220)"></path></g><g id="SvgjsG3222"><path id="SvgjsPath3223" d="M670 160L742 160L742 160L814 160" stroke="#ff3333" stroke-width="2" fill="none" marker-end="url(#SvgjsMarker3224)"></path></g></svg>