<svg id="SvgjsSvg2136" width="1192" height="331" xmlns="http://www.w3.org/2000/svg" version="1.1" xmlns:xlink="http://www.w3.org/1999/xlink" xmlns:svgjs="http://svgjs.com/svgjs"><defs id="SvgjsDefs2137"><marker id="SvgjsMarker2144" markerWidth="16" markerHeight="12" refX="16" refY="6" viewBox="0 0 16 12" orient="auto" markerUnits="userSpaceOnUse" stroke-dasharray="0,0"><path id="SvgjsPath2145" d="M0,2 L14,6 L0,11 L0,2" fill="#323232" stroke="#323232" stroke-width="2"></path></marker><marker id="SvgjsMarker2156" markerWidth="16" markerHeight="12" refX="16" refY="6" viewBox="0 0 16 12" orient="auto" markerUnits="userSpaceOnUse" stroke-dasharray="0,0"><path id="SvgjsPath2157" d="M0,2 L14,6 L0,11 L0,2" fill="#323232" stroke="#323232" stroke-width="2"></path></marker><marker id="SvgjsMarker2174" markerWidth="16" markerHeight="12" refX="16" refY="6" viewBox="0 0 16 12" orient="auto" markerUnits="userSpaceOnUse" stroke-dasharray="0,0"><path id="SvgjsPath2175" d="M0,2 L14,6 L0,11 L0,2" fill="#323232" stroke="#323232" stroke-width="2"></path></marker><marker id="SvgjsMarker2192" markerWidth="16" markerHeight="12" refX="16" refY="6" viewBox="0 0 16 12" orient="auto" markerUnits="userSpaceOnUse" stroke-dasharray="0,0"><path id="SvgjsPath2193" d="M0,2 L14,6 L0,11 L0,2" fill="#323232" stroke="#323232" stroke-width="2"></path></marker><marker id="SvgjsMarker2210" markerWidth="16" markerHeight="12" refX="16" refY="6" viewBox="0 0 16 12" orient="auto" markerUnits="userSpaceOnUse" stroke-dasharray="0,0"><path id="SvgjsPath2211" d="M0,2 L14,6 L0,11 L0,2" fill="#323232" stroke="#323232" stroke-width="2"></path></marker><marker id="SvgjsMarker2224" markerWidth="16" markerHeight="12" refX="16" refY="6" viewBox="0 0 16 12" orient="auto" markerUnits="userSpaceOnUse" stroke-dasharray="0,0"><path id="SvgjsPath2225" d="M0,2 L14,6 L0,11 L0,2" fill="#323232" stroke="#323232" stroke-width="2"></path></marker><marker id="SvgjsMarker2248" markerWidth="16" markerHeight="12" refX="16" refY="6" viewBox="0 0 16 12" orient="auto" markerUnits="userSpaceOnUse" stroke-dasharray="0,0"><path id="SvgjsPath2249" d="M0,2 L14,6 L0,11 L0,2" fill="#323232" stroke="#323232" stroke-width="2"></path></marker><marker id="SvgjsMarker2260" markerWidth="16" markerHeight="12" refX="16" refY="6" viewBox="0 0 16 12" orient="auto" markerUnits="userSpaceOnUse" stroke-dasharray="0,0"><path id="SvgjsPath2261" d="M0,2 L14,6 L0,11 L0,2" fill="#323232" stroke="#323232" stroke-width="2"></path></marker><marker id="SvgjsMarker2278" markerWidth="16" markerHeight="12" refX="16" refY="6" viewBox="0 0 16 12" orient="auto" markerUnits="userSpaceOnUse" stroke-dasharray="0,0"><path id="SvgjsPath2279" d="M0,2 L14,6 L0,11 L0,2" fill="#323232" stroke="#323232" stroke-width="2"></path></marker><marker id="SvgjsMarker2290" markerWidth="16" markerHeight="12" refX="16" refY="6" viewBox="0 0 16 12" orient="auto" markerUnits="userSpaceOnUse" stroke-dasharray="0,0"><path id="SvgjsPath2291" d="M0,2 L14,6 L0,11 L0,2" fill="#323232" stroke="#323232" stroke-width="2"></path></marker><marker id="SvgjsMarker2308" markerWidth="16" markerHeight="12" refX="16" refY="6" viewBox="0 0 16 12" orient="auto" markerUnits="userSpaceOnUse" stroke-dasharray="0,0"><path id="SvgjsPath2309" d="M0,2 L14,6 L0,11 L0,2" fill="#323232" stroke="#323232" stroke-width="2"></path></marker><marker id="SvgjsMarker2320" markerWidth="16" markerHeight="12" refX="16" refY="6" viewBox="0 0 16 12" orient="auto" markerUnits="userSpaceOnUse" stroke-dasharray="0,0"><path id="SvgjsPath2321" d="M0,2 L14,6 L0,11 L0,2" fill="#323232" stroke="#323232" stroke-width="2"></path></marker><marker id="SvgjsMarker2338" markerWidth="16" markerHeight="12" refX="16" refY="6" viewBox="0 0 16 12" orient="auto" markerUnits="userSpaceOnUse" stroke-dasharray="0,0"><path id="SvgjsPath2339" d="M0,2 L14,6 L0,11 L0,2" fill="#323232" stroke="#323232" stroke-width="2"></path></marker><marker id="SvgjsMarker2350" markerWidth="16" markerHeight="12" refX="16" refY="6" viewBox="0 0 16 12" orient="auto" markerUnits="userSpaceOnUse" stroke-dasharray="0,0"><path id="SvgjsPath2351" d="M0,2 L14,6 L0,11 L0,2" fill="#323232" stroke="#323232" stroke-width="2"></path></marker><marker id="SvgjsMarker2368" markerWidth="16" markerHeight="12" refX="16" refY="6" viewBox="0 0 16 12" orient="auto" markerUnits="userSpaceOnUse" stroke-dasharray="0,0"><path id="SvgjsPath2369" d="M0,2 L14,6 L0,11 L0,2" fill="#323232" stroke="#323232" stroke-width="2"></path></marker><marker id="SvgjsMarker2376" markerWidth="16" markerHeight="12" refX="16" refY="6" viewBox="0 0 16 12" orient="auto" markerUnits="userSpaceOnUse" stroke-dasharray="0,0"><path id="SvgjsPath2377" d="M0,2 L14,6 L0,11 L0,2" fill="#323232" stroke="#323232" stroke-width="2"></path></marker><marker id="SvgjsMarker2394" markerWidth="16" markerHeight="12" refX="16" refY="6" viewBox="0 0 16 12" orient="auto" markerUnits="userSpaceOnUse" stroke-dasharray="0,0"><path id="SvgjsPath2395" d="M0,2 L14,6 L0,11 L0,2" fill="#323232" stroke="#323232" stroke-width="2"></path></marker><marker id="SvgjsMarker2406" markerWidth="16" markerHeight="12" refX="16" refY="6" viewBox="0 0 16 12" orient="auto" markerUnits="userSpaceOnUse" stroke-dasharray="0,0"><path id="SvgjsPath2407" d="M0,2 L14,6 L0,11 L0,2" fill="#323232" stroke="#323232" stroke-width="2"></path></marker><marker id="SvgjsMarker2418" markerWidth="16" markerHeight="12" refX="16" refY="6" viewBox="0 0 16 12" orient="auto" markerUnits="userSpaceOnUse" stroke-dasharray="0,0"><path id="SvgjsPath2419" d="M0,2 L14,6 L0,11 L0,2" fill="#323232" stroke="#323232" stroke-width="2"></path></marker><marker id="SvgjsMarker2430" markerWidth="16" markerHeight="12" refX="16" refY="6" viewBox="0 0 16 12" orient="auto" markerUnits="userSpaceOnUse" stroke-dasharray="0,0"><path id="SvgjsPath2431" d="M0,2 L14,6 L0,11 L0,2" fill="#323232" stroke="#323232" stroke-width="2"></path></marker><marker id="SvgjsMarker2450" markerWidth="16" markerHeight="12" refX="16" refY="6" viewBox="0 0 16 12" orient="auto" markerUnits="userSpaceOnUse" stroke-dasharray="0,0"><path id="SvgjsPath2451" d="M0,2 L14,6 L0,11 L0,2" fill="#323232" stroke="#323232" stroke-width="2"></path></marker><marker id="SvgjsMarker2462" markerWidth="16" markerHeight="12" refX="16" refY="6" viewBox="0 0 16 12" orient="auto" markerUnits="userSpaceOnUse" stroke-dasharray="0,0"><path id="SvgjsPath2463" d="M0,2 L14,6 L0,11 L0,2" fill="#323232" stroke="#323232" stroke-width="2"></path></marker><marker id="SvgjsMarker2470" markerWidth="16" markerHeight="12" refX="16" refY="6" viewBox="0 0 16 12" orient="auto" markerUnits="userSpaceOnUse" stroke-dasharray="0,0"><path id="SvgjsPath2471" d="M0,2 L14,6 L0,11 L0,2" fill="#00ffff" stroke="#00ffff" stroke-width="2"></path></marker><marker id="SvgjsMarker2474" markerWidth="16" markerHeight="12" refX="16" refY="6" viewBox="0 0 16 12" orient="auto" markerUnits="userSpaceOnUse" stroke-dasharray="0,0"><path id="SvgjsPath2475" d="M0,2 L14,6 L0,11 L0,2" fill="#33ffff" stroke="#33ffff" stroke-width="2"></path></marker><marker id="SvgjsMarker2478" markerWidth="16" markerHeight="12" refX="16" refY="6" viewBox="0 0 16 12" orient="auto" markerUnits="userSpaceOnUse" stroke-dasharray="0,0"><path id="SvgjsPath2479" d="M0,2 L14,6 L0,11 L0,2" fill="#00ffff" stroke="#00ffff" stroke-width="2"></path></marker><marker id="SvgjsMarker2482" markerWidth="16" markerHeight="12" refX="16" refY="6" viewBox="0 0 16 12" orient="auto" markerUnits="userSpaceOnUse" stroke-dasharray="0,0"><path id="SvgjsPath2483" d="M0,2 L14,6 L0,11 L0,2" fill="#00ffff" stroke="#00ffff" stroke-width="2"></path></marker><marker id="SvgjsMarker2486" markerWidth="16" markerHeight="12" refX="16" refY="6" viewBox="0 0 16 12" orient="auto" markerUnits="userSpaceOnUse" stroke-dasharray="0,0"><path id="SvgjsPath2487" d="M0,2 L14,6 L0,11 L0,2" fill="#00ffff" stroke="#00ffff" stroke-width="2"></path></marker><marker id="SvgjsMarker2490" markerWidth="16" markerHeight="12" refX="16" refY="6" viewBox="0 0 16 12" orient="auto" markerUnits="userSpaceOnUse" stroke-dasharray="0,0"><path id="SvgjsPath2491" d="M0,2 L14,6 L0,11 L0,2" fill="#00ffff" stroke="#00ffff" stroke-width="2"></path></marker><marker id="SvgjsMarker2500" markerWidth="16" markerHeight="12" refX="16" refY="6" viewBox="0 0 16 12" orient="auto" markerUnits="userSpaceOnUse" stroke-dasharray="0,0"><path id="SvgjsPath2501" d="M0,2 L14,6 L0,11 L0,2" fill="#00ffff" stroke="#00ffff" stroke-width="2"></path></marker></defs><g id="SvgjsG2138" transform="translate(25,177)"><path id="SvgjsPath2139" d="M 0 0L 36 0L 36 35L 0 35Z" stroke="rgba(50,50,50,1)" stroke-width="2" fill-opacity="1" fill="#ffffff"></path><g id="SvgjsG2140"><text id="SvgjsText2141" font-family="微软雅黑" text-anchor="middle" font-size="13px" width="16px" fill="#323232" font-weight="400" align="middle" lineHeight="125%" anchor="middle" family="微软雅黑" size="13px" weight="400" font-style="" opacity="1" y="7.875" transform="rotate(0)"></text></g></g><g id="SvgjsG2142"><path id="SvgjsPath2143" d="M53 194.5L123 194.5L123 195L193 195" stroke="#323232" stroke-width="2" fill="none" marker-end="url(#SvgjsMarker2144)"></path></g><g id="SvgjsG2146" transform="translate(33,184.5)"><path id="SvgjsPath2147" d="M 0 10C 0 -3.3333333333333335 20 -3.3333333333333335 20 10C 20 23.333333333333332 0 23.333333333333332 0 10Z" stroke="none" fill-opacity="1" fill="#323232"></path><g id="SvgjsG2148"><text id="SvgjsText2149" font-family="微软雅黑" text-anchor="middle" font-size="13px" width="60px" fill="#323232" font-weight="400" align="middle" lineHeight="125%" anchor="middle" family="微软雅黑" size="13px" weight="400" font-style="" opacity="1" y="25.375" transform="rotate(0)"></text></g></g><g id="SvgjsG2150" transform="translate(229,177)"><path id="SvgjsPath2151" d="M 0 0L 36 0L 36 35L 0 35Z" stroke="rgba(50,50,50,1)" stroke-width="2" fill-opacity="1" fill="#ffffff"></path><g id="SvgjsG2152"><text id="SvgjsText2153" font-family="&quot;Lucida Console&quot;" text-anchor="middle" font-size="13px" width="16px" fill="#323232" font-weight="400" align="middle" lineHeight="125%" anchor="middle" family="&quot;Lucida Console&quot;" size="13px" weight="400" font-style="" opacity="1" y="7.875" transform="rotate(0)"></text></g></g><g id="SvgjsG2154"><path id="SvgjsPath2155" d="M257 194.5L327.5 194.5L327.5 194.5L398 194.5" stroke="#323232" stroke-width="2" fill="none" marker-end="url(#SvgjsMarker2156)"></path></g><g id="SvgjsG2158" transform="translate(237,184.5)"><path id="SvgjsPath2159" d="M 0 10C 0 -3.3333333333333335 20 -3.3333333333333335 20 10C 20 23.333333333333332 0 23.333333333333332 0 10Z" stroke="none" fill-opacity="1" fill="#323232"></path><g id="SvgjsG2160"><text id="SvgjsText2161" font-family="&quot;Lucida Console&quot;" text-anchor="middle" font-size="13px" width="60px" fill="#323232" font-weight="400" align="middle" lineHeight="125%" anchor="middle" family="&quot;Lucida Console&quot;" size="13px" weight="400" font-style="" opacity="1" y="25.375" transform="rotate(0)"></text></g></g><g id="SvgjsG2162" transform="translate(193,177)"><path id="SvgjsPath2163" d="M 0 0L 36 0L 36 70L 0 70Z" stroke="rgba(50,50,50,1)" stroke-width="2" fill-opacity="1" fill="#ffffff"></path><g id="SvgjsG2164"><text id="SvgjsText2165" font-family="&quot;Lucida Console&quot;" text-anchor="middle" font-size="13px" width="16px" fill="#323232" font-weight="400" align="middle" lineHeight="125%" anchor="middle" family="&quot;Lucida Console&quot;" size="13px" weight="400" font-style="" opacity="1" y="25.375" transform="rotate(0)"><tspan id="SvgjsTspan2166" dy="16" x="18"><tspan id="SvgjsTspan2167" style="text-decoration:;">6</tspan></tspan></text></g></g><g id="SvgjsG2168" transform="translate(434,177)"><path id="SvgjsPath2169" d="M 0 0L 36 0L 36 35L 0 35Z" stroke="rgba(50,50,50,1)" stroke-width="2" fill-opacity="1" fill="#ffffff"></path><g id="SvgjsG2170"><text id="SvgjsText2171" font-family="&quot;Lucida Console&quot;" text-anchor="middle" font-size="13px" width="16px" fill="#323232" font-weight="400" align="middle" lineHeight="125%" anchor="middle" family="&quot;Lucida Console&quot;" size="13px" weight="400" font-style="" opacity="1" y="7.875" transform="rotate(0)"></text></g></g><g id="SvgjsG2172"><path id="SvgjsPath2173" d="M462 194.5L534 194.5L534 195L606 195" stroke="#323232" stroke-width="2" fill="none" marker-end="url(#SvgjsMarker2174)"></path></g><g id="SvgjsG2176" transform="translate(442,184.5)"><path id="SvgjsPath2177" d="M 0 10C 0 -3.3333333333333335 20 -3.3333333333333335 20 10C 20 23.333333333333332 0 23.333333333333332 0 10Z" stroke="none" fill-opacity="1" fill="#323232"></path><g id="SvgjsG2178"><text id="SvgjsText2179" font-family="&quot;Lucida Console&quot;" text-anchor="middle" font-size="13px" width="60px" fill="#323232" font-weight="400" align="middle" lineHeight="125%" anchor="middle" family="&quot;Lucida Console&quot;" size="13px" weight="400" font-style="" opacity="1" y="25.375" transform="rotate(0)"></text></g></g><g id="SvgjsG2180" transform="translate(398,142)"><path id="SvgjsPath2181" d="M 0 0L 36 0L 36 105L 0 105Z" stroke="rgba(50,50,50,1)" stroke-width="2" fill-opacity="1" fill="#ffffff"></path><g id="SvgjsG2182"><text id="SvgjsText2183" font-family="&quot;Lucida Console&quot;" text-anchor="middle" font-size="13px" width="16px" fill="#323232" font-weight="400" align="middle" lineHeight="125%" anchor="middle" family="&quot;Lucida Console&quot;" size="13px" weight="400" font-style="" opacity="1" y="42.875" transform="rotate(0)"><tspan id="SvgjsTspan2184" dy="16" x="18"><tspan id="SvgjsTspan2185" style="text-decoration:;">9</tspan></tspan></text></g></g><g id="SvgjsG2186" transform="translate(642,177)"><path id="SvgjsPath2187" d="M 0 0L 36 0L 36 35L 0 35Z" stroke="rgba(50,50,50,1)" stroke-width="2" fill-opacity="1" fill="#ffffff"></path><g id="SvgjsG2188"><text id="SvgjsText2189" font-family="&quot;Lucida Console&quot;" text-anchor="middle" font-size="13px" width="16px" fill="#323232" font-weight="400" align="middle" lineHeight="125%" anchor="middle" family="&quot;Lucida Console&quot;" size="13px" weight="400" font-style="" opacity="1" y="7.875" transform="rotate(0)"></text></g></g><g id="SvgjsG2190"><path id="SvgjsPath2191" d="M670 194.5L742 194.5L742 195L814 195" stroke="#323232" stroke-width="2" fill="none" marker-end="url(#SvgjsMarker2192)"></path></g><g id="SvgjsG2194" transform="translate(650,184.5)"><path id="SvgjsPath2195" d="M 0 10C 0 -3.3333333333333335 20 -3.3333333333333335 20 10C 20 23.333333333333332 0 23.333333333333332 0 10Z" stroke="none" fill-opacity="1" fill="#323232"></path><g id="SvgjsG2196"><text id="SvgjsText2197" font-family="&quot;Lucida Console&quot;" text-anchor="middle" font-size="13px" width="60px" fill="#323232" font-weight="400" align="middle" lineHeight="125%" anchor="middle" family="&quot;Lucida Console&quot;" size="13px" weight="400" font-style="" opacity="1" y="25.375" transform="rotate(0)"></text></g></g><g id="SvgjsG2198" transform="translate(606,177)"><path id="SvgjsPath2199" d="M 0 0L 36 0L 36 70L 0 70Z" stroke="rgba(50,50,50,1)" stroke-width="2" fill-opacity="1" fill="#ffffff"></path><g id="SvgjsG2200"><text id="SvgjsText2201" font-family="&quot;Lucida Console&quot;" text-anchor="middle" font-size="13px" width="16px" fill="#323232" font-weight="400" align="middle" lineHeight="125%" anchor="middle" family="&quot;Lucida Console&quot;" size="13px" weight="400" font-style="" opacity="1" y="25.375" transform="rotate(0)"><tspan id="SvgjsTspan2202" dy="16" x="18"><tspan id="SvgjsTspan2203" style="text-decoration:;">17</tspan></tspan></text></g></g><g id="SvgjsG2204" transform="translate(850,177)"><path id="SvgjsPath2205" d="M 0 0L 36 0L 36 35L 0 35Z" stroke="rgba(50,50,50,1)" stroke-width="2" fill-opacity="1" fill="#ffffff"></path><g id="SvgjsG2206"><text id="SvgjsText2207" font-family="&quot;Lucida Console&quot;" text-anchor="middle" font-size="13px" width="16px" fill="#323232" font-weight="400" align="middle" lineHeight="125%" anchor="middle" family="&quot;Lucida Console&quot;" size="13px" weight="400" font-style="" opacity="1" y="7.875" transform="rotate(0)"></text></g></g><g id="SvgjsG2208"><path id="SvgjsPath2209" d="M878 194.5L949.5 194.5L949.5 195L1021 195" stroke="#323232" stroke-width="2" fill="none" marker-end="url(#SvgjsMarker2210)"></path></g><g id="SvgjsG2212" transform="translate(814,107)"><path id="SvgjsPath2213" d="M 0 0L 36 0L 36 140L 0 140Z" stroke="rgba(50,50,50,1)" stroke-width="2" fill-opacity="1" fill="#ffffff"></path><g id="SvgjsG2214"><text id="SvgjsText2215" font-family="&quot;Lucida Console&quot;" text-anchor="middle" font-size="13px" width="16px" fill="#323232" font-weight="400" align="middle" lineHeight="125%" anchor="middle" family="&quot;Lucida Console&quot;" size="13px" weight="400" font-style="" opacity="1" y="60.375" transform="rotate(0)"><tspan id="SvgjsTspan2216" dy="16" x="18"><tspan id="SvgjsTspan2217" style="text-decoration:;">21</tspan></tspan></text></g></g><g id="SvgjsG2218" transform="translate(1057,177)"><path id="SvgjsPath2219" d="M 0 0L 36 0L 36 35L 0 35Z" stroke="rgba(50,50,50,1)" stroke-width="2" fill-opacity="1" fill="#ffffff"></path><g id="SvgjsG2220"><text id="SvgjsText2221" font-family="&quot;Lucida Console&quot;" text-anchor="middle" font-size="13px" width="16px" fill="#323232" font-weight="400" align="middle" lineHeight="125%" anchor="middle" family="&quot;Lucida Console&quot;" size="13px" weight="400" font-style="" opacity="1" y="7.875" transform="rotate(0)"></text></g></g><g id="SvgjsG2222"><path id="SvgjsPath2223" d="M1085 194.5L1103 194.5L1103 194.5L1121 194.5" stroke="#323232" stroke-width="2" fill="none" marker-end="url(#SvgjsMarker2224)"></path></g><g id="SvgjsG2226" transform="translate(1065,184.5)"><path id="SvgjsPath2227" d="M 0 10C 0 -3.3333333333333335 20 -3.3333333333333335 20 10C 20 23.333333333333332 0 23.333333333333332 0 10Z" stroke="none" fill-opacity="1" fill="#323232"></path><g id="SvgjsG2228"><text id="SvgjsText2229" font-family="&quot;Lucida Console&quot;" text-anchor="middle" font-size="13px" width="60px" fill="#323232" font-weight="400" align="middle" lineHeight="125%" anchor="middle" family="&quot;Lucida Console&quot;" size="13px" weight="400" font-style="" opacity="1" y="25.375" transform="rotate(0)"></text></g></g><g id="SvgjsG2230" transform="translate(1021,177)"><path id="SvgjsPath2231" d="M 0 0L 36 0L 36 70L 0 70Z" stroke="rgba(50,50,50,1)" stroke-width="2" fill-opacity="1" fill="#ffffff"></path><g id="SvgjsG2232"><text id="SvgjsText2233" font-family="&quot;Lucida Console&quot;" text-anchor="middle" font-size="13px" width="16px" fill="#323232" font-weight="400" align="middle" lineHeight="125%" anchor="middle" family="&quot;Lucida Console&quot;" size="13px" weight="400" font-style="" opacity="1" y="25.375" transform="rotate(0)"><tspan id="SvgjsTspan2234" dy="16" x="18"><tspan id="SvgjsTspan2235" style="text-decoration:;">26</tspan></tspan></text></g></g><g id="SvgjsG2236" transform="translate(1127,107)"><path id="SvgjsPath2237" d="M 0 0L 40 0L 40 140L 0 140Z" stroke="rgba(50,50,50,1)" stroke-width="2" fill-opacity="1" fill="#ffffff"></path><g id="SvgjsG2238"><text id="SvgjsText2239" font-family="微软雅黑" text-anchor="middle" font-size="12px" width="20px" fill="#323232" font-weight="400" align="middle" lineHeight="125%" anchor="middle" family="微软雅黑" size="12px" weight="400" font-style="" opacity="1" y="61" transform="rotate(0)"><tspan id="SvgjsTspan2240" dy="15" x="20"><tspan id="SvgjsTspan2241" style="text-decoration:;">NIL</tspan></tspan></text></g></g><g id="SvgjsG2242" transform="translate(25,212)"><path id="SvgjsPath2243" d="M 0 0L 36 0L 36 35L 0 35Z" stroke="rgba(50,50,50,1)" stroke-width="2" fill-opacity="1" fill="#ffffff"></path><g id="SvgjsG2244"><text id="SvgjsText2245" font-family="微软雅黑" text-anchor="middle" font-size="13px" width="16px" fill="#323232" font-weight="400" align="middle" lineHeight="125%" anchor="middle" family="微软雅黑" size="13px" weight="400" font-style="" opacity="1" y="7.875" transform="rotate(0)"></text></g></g><g id="SvgjsG2246"><path id="SvgjsPath2247" d="M53 229.5L71.5 229.5L71.5 229.5L90 229.5" stroke="#323232" stroke-width="2" fill="none" marker-end="url(#SvgjsMarker2248)"></path></g><g id="SvgjsG2250" transform="translate(33,219.5)"><path id="SvgjsPath2251" d="M 0 10C 0 -3.3333333333333335 20 -3.3333333333333335 20 10C 20 23.333333333333332 0 23.333333333333332 0 10Z" stroke="none" fill-opacity="1" fill="#323232"></path><g id="SvgjsG2252"><text id="SvgjsText2253" font-family="微软雅黑" text-anchor="middle" font-size="13px" width="60px" fill="#323232" font-weight="400" align="middle" lineHeight="125%" anchor="middle" family="微软雅黑" size="13px" weight="400" font-style="" opacity="1" y="25.375" transform="rotate(0)"></text></g></g><g id="SvgjsG2254" transform="translate(126,212)"><path id="SvgjsPath2255" d="M 0 0L 36 0L 36 35L 0 35Z" stroke="rgba(50,50,50,1)" stroke-width="2" fill-opacity="1" fill="#ffffff"></path><g id="SvgjsG2256"><text id="SvgjsText2257" font-family="&quot;Lucida Console&quot;" text-anchor="middle" font-size="13px" width="16px" fill="#323232" font-weight="400" align="middle" lineHeight="125%" anchor="middle" family="&quot;Lucida Console&quot;" size="13px" weight="400" font-style="" opacity="1" y="7.875" transform="rotate(0)"></text></g></g><g id="SvgjsG2258"><path id="SvgjsPath2259" d="M154 229.5L172 229.5L172 229.5L190 229.5" stroke="#323232" stroke-width="2" fill="none" marker-end="url(#SvgjsMarker2260)"></path></g><g id="SvgjsG2262" transform="translate(134,219.5)"><path id="SvgjsPath2263" d="M 0 10C 0 -3.3333333333333335 20 -3.3333333333333335 20 10C 20 23.333333333333332 0 23.333333333333332 0 10Z" stroke="none" fill-opacity="1" fill="#323232"></path><g id="SvgjsG2264"><text id="SvgjsText2265" font-family="&quot;Lucida Console&quot;" text-anchor="middle" font-size="13px" width="60px" fill="#323232" font-weight="400" align="middle" lineHeight="125%" anchor="middle" family="&quot;Lucida Console&quot;" size="13px" weight="400" font-style="" opacity="1" y="25.375" transform="rotate(0)"></text></g></g><g id="SvgjsG2266" transform="translate(90,212)"><path id="SvgjsPath2267" d="M 0 0L 36 0L 36 35L 0 35Z" stroke="rgba(50,50,50,1)" stroke-width="2" fill-opacity="1" fill="#ffffff"></path><g id="SvgjsG2268"><text id="SvgjsText2269" font-family="&quot;Lucida Console&quot;" text-anchor="middle" font-size="13px" width="16px" fill="#323232" font-weight="400" align="middle" lineHeight="125%" anchor="middle" family="&quot;Lucida Console&quot;" size="13px" weight="400" font-style="" opacity="1" y="7.875" transform="rotate(0)"><tspan id="SvgjsTspan2270" dy="16" x="18"><tspan id="SvgjsTspan2271" style="text-decoration:;">3</tspan></tspan></text></g></g><g id="SvgjsG2272" transform="translate(229,212)"><path id="SvgjsPath2273" d="M 0 0L 36 0L 36 35L 0 35Z" stroke="rgba(50,50,50,1)" stroke-width="2" fill-opacity="1" fill="#ffffff"></path><g id="SvgjsG2274"><text id="SvgjsText2275" font-family="&quot;Lucida Console&quot;" text-anchor="middle" font-size="13px" width="16px" fill="#323232" font-weight="400" align="middle" lineHeight="125%" anchor="middle" family="&quot;Lucida Console&quot;" size="13px" weight="400" font-style="" opacity="1" y="7.875" transform="rotate(0)"></text></g></g><g id="SvgjsG2276"><path id="SvgjsPath2277" d="M257 229.5L275 229.5L275 229.5L293 229.5" stroke="#323232" stroke-width="2" fill="none" marker-end="url(#SvgjsMarker2278)"></path></g><g id="SvgjsG2280" transform="translate(237,219.5)"><path id="SvgjsPath2281" d="M 0 10C 0 -3.3333333333333335 20 -3.3333333333333335 20 10C 20 23.333333333333332 0 23.333333333333332 0 10Z" stroke="none" fill-opacity="1" fill="#323232"></path><g id="SvgjsG2282"><text id="SvgjsText2283" font-family="&quot;Lucida Console&quot;" text-anchor="middle" font-size="13px" width="60px" fill="#323232" font-weight="400" align="middle" lineHeight="125%" anchor="middle" family="&quot;Lucida Console&quot;" size="13px" weight="400" font-style="" opacity="1" y="25.375" transform="rotate(0)"></text></g></g><g id="SvgjsG2284" transform="translate(331,212)"><path id="SvgjsPath2285" d="M 0 0L 36 0L 36 35L 0 35Z" stroke="rgba(50,50,50,1)" stroke-width="2" fill-opacity="1" fill="#ffffff"></path><g id="SvgjsG2286"><text id="SvgjsText2287" font-family="&quot;Lucida Console&quot;" text-anchor="middle" font-size="13px" width="16px" fill="#323232" font-weight="400" align="middle" lineHeight="125%" anchor="middle" family="&quot;Lucida Console&quot;" size="13px" weight="400" font-style="" opacity="1" y="7.875" transform="rotate(0)"></text></g></g><g id="SvgjsG2288"><path id="SvgjsPath2289" d="M359 229.5L377 229.5L377 229.5L395 229.5" stroke="#323232" stroke-width="2" fill="none" marker-end="url(#SvgjsMarker2290)"></path></g><g id="SvgjsG2292" transform="translate(339,219.5)"><path id="SvgjsPath2293" d="M 0 10C 0 -3.3333333333333335 20 -3.3333333333333335 20 10C 20 23.333333333333332 0 23.333333333333332 0 10Z" stroke="none" fill-opacity="1" fill="#323232"></path><g id="SvgjsG2294"><text id="SvgjsText2295" font-family="&quot;Lucida Console&quot;" text-anchor="middle" font-size="13px" width="60px" fill="#323232" font-weight="400" align="middle" lineHeight="125%" anchor="middle" family="&quot;Lucida Console&quot;" size="13px" weight="400" font-style="" opacity="1" y="25.375" transform="rotate(0)"></text></g></g><g id="SvgjsG2296" transform="translate(295,212)"><path id="SvgjsPath2297" d="M 0 0L 36 0L 36 35L 0 35Z" stroke="rgba(50,50,50,1)" stroke-width="2" fill-opacity="1" fill="#ffffff"></path><g id="SvgjsG2298"><text id="SvgjsText2299" font-family="&quot;Lucida Console&quot;" text-anchor="middle" font-size="13px" width="16px" fill="#323232" font-weight="400" align="middle" lineHeight="125%" anchor="middle" family="&quot;Lucida Console&quot;" size="13px" weight="400" font-style="" opacity="1" y="7.875" transform="rotate(0)"><tspan id="SvgjsTspan2300" dy="16" x="18"><tspan id="SvgjsTspan2301" style="text-decoration:;">7</tspan></tspan></text></g></g><g id="SvgjsG2302" transform="translate(434,212)"><path id="SvgjsPath2303" d="M 0 0L 36 0L 36 35L 0 35Z" stroke="rgba(50,50,50,1)" stroke-width="2" fill-opacity="1" fill="#ffffff"></path><g id="SvgjsG2304"><text id="SvgjsText2305" font-family="&quot;Lucida Console&quot;" text-anchor="middle" font-size="13px" width="16px" fill="#323232" font-weight="400" align="middle" lineHeight="125%" anchor="middle" family="&quot;Lucida Console&quot;" size="13px" weight="400" font-style="" opacity="1" y="7.875" transform="rotate(0)"></text></g></g><g id="SvgjsG2306"><path id="SvgjsPath2307" d="M462 229.5L480 229.5L480 229.5L498 229.5" stroke="#323232" stroke-width="2" fill="none" marker-end="url(#SvgjsMarker2308)"></path></g><g id="SvgjsG2310" transform="translate(442,219.5)"><path id="SvgjsPath2311" d="M 0 10C 0 -3.3333333333333335 20 -3.3333333333333335 20 10C 20 23.333333333333332 0 23.333333333333332 0 10Z" stroke="none" fill-opacity="1" fill="#323232"></path><g id="SvgjsG2312"><text id="SvgjsText2313" font-family="&quot;Lucida Console&quot;" text-anchor="middle" font-size="13px" width="60px" fill="#323232" font-weight="400" align="middle" lineHeight="125%" anchor="middle" family="&quot;Lucida Console&quot;" size="13px" weight="400" font-style="" opacity="1" y="25.375" transform="rotate(0)"></text></g></g><g id="SvgjsG2314" transform="translate(539,212)"><path id="SvgjsPath2315" d="M 0 0L 36 0L 36 35L 0 35Z" stroke="rgba(50,50,50,1)" stroke-width="2" fill-opacity="1" fill="#ffffff"></path><g id="SvgjsG2316"><text id="SvgjsText2317" font-family="&quot;Lucida Console&quot;" text-anchor="middle" font-size="13px" width="16px" fill="#323232" font-weight="400" align="middle" lineHeight="125%" anchor="middle" family="&quot;Lucida Console&quot;" size="13px" weight="400" font-style="" opacity="1" y="7.875" transform="rotate(0)"></text></g></g><g id="SvgjsG2318"><path id="SvgjsPath2319" d="M567 229.5L585 229.5L585 229.5L603 229.5" stroke="#323232" stroke-width="2" fill="none" marker-end="url(#SvgjsMarker2320)"></path></g><g id="SvgjsG2322" transform="translate(547,219.5)"><path id="SvgjsPath2323" d="M 0 10C 0 -3.3333333333333335 20 -3.3333333333333335 20 10C 20 23.333333333333332 0 23.333333333333332 0 10Z" stroke="none" fill-opacity="1" fill="#323232"></path><g id="SvgjsG2324"><text id="SvgjsText2325" font-family="&quot;Lucida Console&quot;" text-anchor="middle" font-size="13px" width="60px" fill="#323232" font-weight="400" align="middle" lineHeight="125%" anchor="middle" family="&quot;Lucida Console&quot;" size="13px" weight="400" font-style="" opacity="1" y="25.375" transform="rotate(0)"></text></g></g><g id="SvgjsG2326" transform="translate(503,212)"><path id="SvgjsPath2327" d="M 0 0L 36 0L 36 35L 0 35Z" stroke="rgba(50,50,50,1)" stroke-width="2" fill-opacity="1" fill="#ffffff"></path><g id="SvgjsG2328"><text id="SvgjsText2329" font-family="&quot;Lucida Console&quot;" text-anchor="middle" font-size="13px" width="16px" fill="#323232" font-weight="400" align="middle" lineHeight="125%" anchor="middle" family="&quot;Lucida Console&quot;" size="13px" weight="400" font-style="" opacity="1" y="7.875" transform="rotate(0)"><tspan id="SvgjsTspan2330" dy="16" x="18"><tspan id="SvgjsTspan2331" style="text-decoration:;">12</tspan></tspan></text></g></g><g id="SvgjsG2332" transform="translate(642,212)"><path id="SvgjsPath2333" d="M 0 0L 36 0L 36 35L 0 35Z" stroke="rgba(50,50,50,1)" stroke-width="2" fill-opacity="1" fill="#ffffff"></path><g id="SvgjsG2334"><text id="SvgjsText2335" font-family="&quot;Lucida Console&quot;" text-anchor="middle" font-size="13px" width="16px" fill="#323232" font-weight="400" align="middle" lineHeight="125%" anchor="middle" family="&quot;Lucida Console&quot;" size="13px" weight="400" font-style="" opacity="1" y="7.875" transform="rotate(0)"></text></g></g><g id="SvgjsG2336"><path id="SvgjsPath2337" d="M670 229.5L688 229.5L688 229.5L706 229.5" stroke="#323232" stroke-width="2" fill="none" marker-end="url(#SvgjsMarker2338)"></path></g><g id="SvgjsG2340" transform="translate(650,219.5)"><path id="SvgjsPath2341" d="M 0 10C 0 -3.3333333333333335 20 -3.3333333333333335 20 10C 20 23.333333333333332 0 23.333333333333332 0 10Z" stroke="none" fill-opacity="1" fill="#323232"></path><g id="SvgjsG2342"><text id="SvgjsText2343" font-family="&quot;Lucida Console&quot;" text-anchor="middle" font-size="13px" width="60px" fill="#323232" font-weight="400" align="middle" lineHeight="125%" anchor="middle" family="&quot;Lucida Console&quot;" size="13px" weight="400" font-style="" opacity="1" y="25.375" transform="rotate(0)"></text></g></g><g id="SvgjsG2344" transform="translate(747,212)"><path id="SvgjsPath2345" d="M 0 0L 36 0L 36 35L 0 35Z" stroke="rgba(50,50,50,1)" stroke-width="2" fill-opacity="1" fill="#ffffff"></path><g id="SvgjsG2346"><text id="SvgjsText2347" font-family="&quot;Lucida Console&quot;" text-anchor="middle" font-size="13px" width="16px" fill="#323232" font-weight="400" align="middle" lineHeight="125%" anchor="middle" family="&quot;Lucida Console&quot;" size="13px" weight="400" font-style="" opacity="1" y="7.875" transform="rotate(0)"></text></g></g><g id="SvgjsG2348"><path id="SvgjsPath2349" d="M775 229.5L793 229.5L793 229.5L811 229.5" stroke="#323232" stroke-width="2" fill="none" marker-end="url(#SvgjsMarker2350)"></path></g><g id="SvgjsG2352" transform="translate(755,219.5)"><path id="SvgjsPath2353" d="M 0 10C 0 -3.3333333333333335 20 -3.3333333333333335 20 10C 20 23.333333333333332 0 23.333333333333332 0 10Z" stroke="none" fill-opacity="1" fill="#323232"></path><g id="SvgjsG2354"><text id="SvgjsText2355" font-family="&quot;Lucida Console&quot;" text-anchor="middle" font-size="13px" width="60px" fill="#323232" font-weight="400" align="middle" lineHeight="125%" anchor="middle" family="&quot;Lucida Console&quot;" size="13px" weight="400" font-style="" opacity="1" y="25.375" transform="rotate(0)"></text></g></g><g id="SvgjsG2356" transform="translate(711,212)"><path id="SvgjsPath2357" d="M 0 0L 36 0L 36 35L 0 35Z" stroke="rgba(50,50,50,1)" stroke-width="2" fill-opacity="1" fill="#ffffff"></path><g id="SvgjsG2358"><text id="SvgjsText2359" font-family="&quot;Lucida Console&quot;" text-anchor="middle" font-size="13px" width="16px" fill="#323232" font-weight="400" align="middle" lineHeight="125%" anchor="middle" family="&quot;Lucida Console&quot;" size="13px" weight="400" font-style="" opacity="1" y="7.875" transform="rotate(0)"><tspan id="SvgjsTspan2360" dy="16" x="18"><tspan id="SvgjsTspan2361" style="text-decoration:;">19</tspan></tspan></text></g></g><g id="SvgjsG2362" transform="translate(850,212)"><path id="SvgjsPath2363" d="M 0 0L 36 0L 36 35L 0 35Z" stroke="rgba(50,50,50,1)" stroke-width="2" fill-opacity="1" fill="#ffffff"></path><g id="SvgjsG2364"><text id="SvgjsText2365" font-family="&quot;Lucida Console&quot;" text-anchor="middle" font-size="13px" width="16px" fill="#323232" font-weight="400" align="middle" lineHeight="125%" anchor="middle" family="&quot;Lucida Console&quot;" size="13px" weight="400" font-style="" opacity="1" y="7.875" transform="rotate(0)"></text></g></g><g id="SvgjsG2366"><path id="SvgjsPath2367" d="M878 229.5L896 229.5L896 229.5L914 229.5" stroke="#323232" stroke-width="2" fill="none" marker-end="url(#SvgjsMarker2368)"></path></g><g id="SvgjsG2370" transform="translate(954,212)"><path id="SvgjsPath2371" d="M 0 0L 36 0L 36 35L 0 35Z" stroke="rgba(50,50,50,1)" stroke-width="2" fill-opacity="1" fill="#ffffff"></path><g id="SvgjsG2372"><text id="SvgjsText2373" font-family="&quot;Lucida Console&quot;" text-anchor="middle" font-size="13px" width="16px" fill="#323232" font-weight="400" align="middle" lineHeight="125%" anchor="middle" family="&quot;Lucida Console&quot;" size="13px" weight="400" font-style="" opacity="1" y="7.875" transform="rotate(0)"></text></g></g><g id="SvgjsG2374"><path id="SvgjsPath2375" d="M982 229.5L1000 229.5L1000 229.5L1018 229.5" stroke="#323232" stroke-width="2" fill="none" marker-end="url(#SvgjsMarker2376)"></path></g><g id="SvgjsG2378" transform="translate(962,219.5)"><path id="SvgjsPath2379" d="M 0 10C 0 -3.3333333333333335 20 -3.3333333333333335 20 10C 20 23.333333333333332 0 23.333333333333332 0 10Z" stroke="none" fill-opacity="1" fill="#323232"></path><g id="SvgjsG2380"><text id="SvgjsText2381" font-family="&quot;Lucida Console&quot;" text-anchor="middle" font-size="13px" width="60px" fill="#323232" font-weight="400" align="middle" lineHeight="125%" anchor="middle" family="&quot;Lucida Console&quot;" size="13px" weight="400" font-style="" opacity="1" y="25.375" transform="rotate(0)"></text></g></g><g id="SvgjsG2382" transform="translate(918,212)"><path id="SvgjsPath2383" d="M 0 0L 36 0L 36 35L 0 35Z" stroke="rgba(50,50,50,1)" stroke-width="2" fill-opacity="1" fill="#ffffff"></path><g id="SvgjsG2384"><text id="SvgjsText2385" font-family="&quot;Lucida Console&quot;" text-anchor="middle" font-size="13px" width="16px" fill="#323232" font-weight="400" align="middle" lineHeight="125%" anchor="middle" family="&quot;Lucida Console&quot;" size="13px" weight="400" font-style="" opacity="1" y="7.875" transform="rotate(0)"><tspan id="SvgjsTspan2386" dy="16" x="18"><tspan id="SvgjsTspan2387" style="text-decoration:;">25</tspan></tspan></text></g></g><g id="SvgjsG2388" transform="translate(1057,212)"><path id="SvgjsPath2389" d="M 0 0L 36 0L 36 35L 0 35Z" stroke="rgba(50,50,50,1)" stroke-width="2" fill-opacity="1" fill="#ffffff"></path><g id="SvgjsG2390"><text id="SvgjsText2391" font-family="&quot;Lucida Console&quot;" text-anchor="middle" font-size="13px" width="16px" fill="#323232" font-weight="400" align="middle" lineHeight="125%" anchor="middle" family="&quot;Lucida Console&quot;" size="13px" weight="400" font-style="" opacity="1" y="7.875" transform="rotate(0)"></text></g></g><g id="SvgjsG2392"><path id="SvgjsPath2393" d="M1085 229.5L1103 229.5L1103 229.5L1121 229.5" stroke="#323232" stroke-width="2" fill="none" marker-end="url(#SvgjsMarker2394)"></path></g><g id="SvgjsG2396" transform="translate(1065,219.5)"><path id="SvgjsPath2397" d="M 0 10C 0 -3.3333333333333335 20 -3.3333333333333335 20 10C 20 23.333333333333332 0 23.333333333333332 0 10Z" stroke="none" fill-opacity="1" fill="#323232"></path><g id="SvgjsG2398"><text id="SvgjsText2399" font-family="&quot;Lucida Console&quot;" text-anchor="middle" font-size="13px" width="60px" fill="#323232" font-weight="400" align="middle" lineHeight="125%" anchor="middle" family="&quot;Lucida Console&quot;" size="13px" weight="400" font-style="" opacity="1" y="25.375" transform="rotate(0)"></text></g></g><g id="SvgjsG2400" transform="translate(25,142)"><path id="SvgjsPath2401" d="M 0 0L 36 0L 36 35L 0 35Z" stroke="rgba(50,50,50,1)" stroke-width="2" fill-opacity="1" fill="#ffffff"></path><g id="SvgjsG2402"><text id="SvgjsText2403" font-family="微软雅黑" text-anchor="middle" font-size="13px" width="16px" fill="#323232" font-weight="400" align="middle" lineHeight="125%" anchor="middle" family="微软雅黑" size="13px" weight="400" font-style="" opacity="1" y="7.875" transform="rotate(0)"></text></g></g><g id="SvgjsG2404"><path id="SvgjsPath2405" d="M53 159.5L225.5 159.5L225.5 159.5L398 159.5" stroke="#323232" stroke-width="2" fill="none" marker-end="url(#SvgjsMarker2406)"></path></g><g id="SvgjsG2408" transform="translate(33,149.5)"><path id="SvgjsPath2409" d="M 0 10C 0 -3.3333333333333335 20 -3.3333333333333335 20 10C 20 23.333333333333332 0 23.333333333333332 0 10Z" stroke="none" fill-opacity="1" fill="#323232"></path><g id="SvgjsG2410"><text id="SvgjsText2411" font-family="微软雅黑" text-anchor="middle" font-size="13px" width="60px" fill="#323232" font-weight="400" align="middle" lineHeight="125%" anchor="middle" family="微软雅黑" size="13px" weight="400" font-style="" opacity="1" y="25.375" transform="rotate(0)"></text></g></g><g id="SvgjsG2412" transform="translate(434,142)"><path id="SvgjsPath2413" d="M 0 0L 36 0L 36 35L 0 35Z" stroke="rgba(50,50,50,1)" stroke-width="2" fill-opacity="1" fill="#ffffff"></path><g id="SvgjsG2414"><text id="SvgjsText2415" font-family="&quot;Lucida Console&quot;" text-anchor="middle" font-size="13px" width="16px" fill="#323232" font-weight="400" align="middle" lineHeight="125%" anchor="middle" family="&quot;Lucida Console&quot;" size="13px" weight="400" font-style="" opacity="1" y="7.875" transform="rotate(0)"></text></g></g><g id="SvgjsG2416"><path id="SvgjsPath2417" d="M462 159.5L638 159.5L638 160L814 160" stroke="#323232" stroke-width="2" fill="none" marker-end="url(#SvgjsMarker2418)"></path></g><g id="SvgjsG2420" transform="translate(442,149.5)"><path id="SvgjsPath2421" d="M 0 10C 0 -3.3333333333333335 20 -3.3333333333333335 20 10C 20 23.333333333333332 0 23.333333333333332 0 10Z" stroke="none" fill-opacity="1" fill="#323232"></path><g id="SvgjsG2422"><text id="SvgjsText2423" font-family="&quot;Lucida Console&quot;" text-anchor="middle" font-size="13px" width="60px" fill="#323232" font-weight="400" align="middle" lineHeight="125%" anchor="middle" family="&quot;Lucida Console&quot;" size="13px" weight="400" font-style="" opacity="1" y="25.375" transform="rotate(0)"></text></g></g><g id="SvgjsG2424" transform="translate(850,142)"><path id="SvgjsPath2425" d="M 0 0L 36 0L 36 35L 0 35Z" stroke="rgba(50,50,50,1)" stroke-width="2" fill-opacity="1" fill="#ffffff"></path><g id="SvgjsG2426"><text id="SvgjsText2427" font-family="&quot;Lucida Console&quot;" text-anchor="middle" font-size="13px" width="16px" fill="#323232" font-weight="400" align="middle" lineHeight="125%" anchor="middle" family="&quot;Lucida Console&quot;" size="13px" weight="400" font-style="" opacity="1" y="7.875" transform="rotate(0)"></text></g></g><g id="SvgjsG2428"><path id="SvgjsPath2429" d="M878 159.5L1002.5 159.5L1002.5 160L1127 160" stroke="#323232" stroke-width="2" fill="none" marker-end="url(#SvgjsMarker2430)"></path></g><g id="SvgjsG2432" transform="translate(858,149.5)"><path id="SvgjsPath2433" d="M 0 10C 0 -3.3333333333333335 20 -3.3333333333333335 20 10C 20 23.333333333333332 0 23.333333333333332 0 10Z" stroke="none" fill-opacity="1" fill="#323232"></path><g id="SvgjsG2434"><text id="SvgjsText2435" font-family="&quot;Lucida Console&quot;" text-anchor="middle" font-size="13px" width="60px" fill="#323232" font-weight="400" align="middle" lineHeight="125%" anchor="middle" family="&quot;Lucida Console&quot;" size="13px" weight="400" font-style="" opacity="1" y="25.375" transform="rotate(0)"></text></g></g><g id="SvgjsG2436" transform="translate(858,184.5)"><path id="SvgjsPath2437" d="M 0 10C 0 -3.3333333333333335 20 -3.3333333333333335 20 10C 20 23.333333333333332 0 23.333333333333332 0 10Z" stroke="none" fill-opacity="1" fill="#323232"></path><g id="SvgjsG2438"><text id="SvgjsText2439" font-family="&quot;Lucida Console&quot;" text-anchor="middle" font-size="13px" width="60px" fill="#323232" font-weight="400" align="middle" lineHeight="125%" anchor="middle" family="&quot;Lucida Console&quot;" size="13px" weight="400" font-style="" opacity="1" y="25.375" transform="rotate(0)"></text></g></g><g id="SvgjsG2440" transform="translate(858,219.5)"><path id="SvgjsPath2441" d="M 0 10C 0 -3.3333333333333335 20 -3.3333333333333335 20 10C 20 23.333333333333332 0 23.333333333333332 0 10Z" stroke="none" fill-opacity="1" fill="#323232"></path><g id="SvgjsG2442"><text id="SvgjsText2443" font-family="&quot;Lucida Console&quot;" text-anchor="middle" font-size="13px" width="60px" fill="#323232" font-weight="400" align="middle" lineHeight="125%" anchor="middle" family="&quot;Lucida Console&quot;" size="13px" weight="400" font-style="" opacity="1" y="25.375" transform="rotate(0)"></text></g></g><g id="SvgjsG2444" transform="translate(25,107)"><path id="SvgjsPath2445" d="M 0 0L 36 0L 36 35L 0 35Z" stroke="rgba(50,50,50,1)" stroke-width="2" fill-opacity="1" fill="#ffffff"></path><g id="SvgjsG2446"><text id="SvgjsText2447" font-family="微软雅黑" text-anchor="middle" font-size="13px" width="16px" fill="#323232" font-weight="400" align="middle" lineHeight="125%" anchor="middle" family="微软雅黑" size="13px" weight="400" font-style="" opacity="1" y="7.875" transform="rotate(0)"></text></g></g><g id="SvgjsG2448"><path id="SvgjsPath2449" d="M53 124.5L433.5 124.5L433.5 124.5L814 124.5" stroke="#323232" stroke-width="2" fill="none" marker-end="url(#SvgjsMarker2450)"></path></g><g id="SvgjsG2452" transform="translate(33,114.5)"><path id="SvgjsPath2453" d="M 0 10C 0 -3.3333333333333335 20 -3.3333333333333335 20 10C 20 23.333333333333332 0 23.333333333333332 0 10Z" stroke="none" fill-opacity="1" fill="#323232"></path><g id="SvgjsG2454"><text id="SvgjsText2455" font-family="微软雅黑" text-anchor="middle" font-size="13px" width="60px" fill="#323232" font-weight="400" align="middle" lineHeight="125%" anchor="middle" family="微软雅黑" size="13px" weight="400" font-style="" opacity="1" y="25.375" transform="rotate(0)"></text></g></g><g id="SvgjsG2456" transform="translate(850,107)"><path id="SvgjsPath2457" d="M 0 0L 36 0L 36 35L 0 35Z" stroke="rgba(50,50,50,1)" stroke-width="2" fill-opacity="1" fill="#ffffff"></path><g id="SvgjsG2458"><text id="SvgjsText2459" font-family="&quot;Lucida Console&quot;" text-anchor="middle" font-size="13px" width="16px" fill="#323232" font-weight="400" align="middle" lineHeight="125%" anchor="middle" family="&quot;Lucida Console&quot;" size="13px" weight="400" font-style="" opacity="1" y="7.875" transform="rotate(0)"></text></g></g><g id="SvgjsG2460"><path id="SvgjsPath2461" d="M878 124.5L1002.5 124.5L1002.5 124.5L1127 124.5" stroke="#323232" stroke-width="2" fill="none" marker-end="url(#SvgjsMarker2462)"></path></g><g id="SvgjsG2464" transform="translate(858,114.5)"><path id="SvgjsPath2465" d="M 0 10C 0 -3.3333333333333335 20 -3.3333333333333335 20 10C 20 23.333333333333332 0 23.333333333333332 0 10Z" stroke="none" fill-opacity="1" fill="#323232"></path><g id="SvgjsG2466"><text id="SvgjsText2467" font-family="&quot;Lucida Console&quot;" text-anchor="middle" font-size="13px" width="60px" fill="#323232" font-weight="400" align="middle" lineHeight="125%" anchor="middle" family="&quot;Lucida Console&quot;" size="13px" weight="400" font-style="" opacity="1" y="25.375" transform="rotate(0)"></text></g></g><g id="SvgjsG2468"><path id="SvgjsPath2469" d="M40 46C 94 25 84.34412723985248 130.02681531914516 53 124.5" stroke="#00ffff" stroke-width="2" fill="none" marker-end="url(#SvgjsMarker2470)"></path></g><g id="SvgjsG2472"><path id="SvgjsPath2473" d="M53 124.5C 126 137 78 147 53 159.5" stroke="#33ffff" stroke-width="2" fill="none" marker-end="url(#SvgjsMarker2474)"></path></g><g id="SvgjsG2476"><path id="SvgjsPath2477" d="M53 159.5C 210.22467342852164 187.22295195852564 353 97 452 149.5" stroke="#00ffff" stroke-width="2" fill="none" marker-end="url(#SvgjsMarker2478)"></path></g><g id="SvgjsG2480"><path id="SvgjsPath2481" d="M470 163C 511 167 497 186 462 194.5" stroke="#00ffff" stroke-width="2" fill="none" marker-end="url(#SvgjsMarker2482)"></path></g><g id="SvgjsG2484"><path id="SvgjsPath2485" d="M462 194.5C 535 179 680.5245950598913 107.90116843170858 660 184.5" stroke="#00ffff" stroke-width="2" fill="none" marker-end="url(#SvgjsMarker2486)"></path></g><g id="SvgjsG2488"><path id="SvgjsPath2489" d="M668 194C 692 205 679 216 670 229.5" stroke="#00ffff" stroke-width="2" fill="none" marker-end="url(#SvgjsMarker2490)"></path></g><g id="SvgjsG2492" transform="translate(544,266)"><path id="SvgjsPath2493" d="M 0 0L 120 0L 120 40L 0 40Z" stroke="none" fill="none"></path><g id="SvgjsG2494"><text id="SvgjsText2495" font-family="&quot;Lucida Console&quot;" text-anchor="middle" font-size="17px" width="120px" fill="#323232" font-weight="400" align="middle" lineHeight="125%" anchor="middle" family="&quot;Lucida Console&quot;" size="17px" weight="400" font-style="" opacity="1" y="7.375" transform="rotate(0)"><tspan id="SvgjsTspan2496" dy="21" x="60"><tspan id="SvgjsTspan2497" style="text-decoration:;">查找19</tspan></tspan></text></g></g><g id="SvgjsG2498"><path id="SvgjsPath2499" d="M670 229.5C 694 205 719 191 765 219.5" stroke="#00ffff" stroke-width="2" fill="none" marker-end="url(#SvgjsMarker2500)"></path></g></svg>