<svg id="SvgjsSvg2502" width="1192" height="331" xmlns="http://www.w3.org/2000/svg" version="1.1" xmlns:xlink="http://www.w3.org/1999/xlink" xmlns:svgjs="http://svgjs.com/svgjs"><defs id="SvgjsDefs2503"><marker id="SvgjsMarker2516" markerWidth="16" markerHeight="12" refX="16" refY="6" viewBox="0 0 16 12" orient="auto" markerUnits="userSpaceOnUse" stroke-dasharray="0,0"><path id="SvgjsPath2517" d="M0,2 L14,6 L0,11 L0,2" fill="#323232" stroke="#323232" stroke-width="2"></path></marker><marker id="SvgjsMarker2528" markerWidth="16" markerHeight="12" refX="16" refY="6" viewBox="0 0 16 12" orient="auto" markerUnits="userSpaceOnUse" stroke-dasharray="0,0"><path id="SvgjsPath2529" d="M0,2 L14,6 L0,11 L0,2" fill="#323232" stroke="#323232" stroke-width="2"></path></marker><marker id="SvgjsMarker2546" markerWidth="16" markerHeight="12" refX="16" refY="6" viewBox="0 0 16 12" orient="auto" markerUnits="userSpaceOnUse" stroke-dasharray="0,0"><path id="SvgjsPath2547" d="M0,2 L14,6 L0,11 L0,2" fill="#ff0000" stroke="#ff0000" stroke-width="2"></path></marker><marker id="SvgjsMarker2564" markerWidth="16" markerHeight="12" refX="16" refY="6" viewBox="0 0 16 12" orient="auto" markerUnits="userSpaceOnUse" stroke-dasharray="0,0"><path id="SvgjsPath2565" d="M0,2 L14,6 L0,11 L0,2" fill="#323232" stroke="#323232" stroke-width="2"></path></marker><marker id="SvgjsMarker2578" markerWidth="16" markerHeight="12" refX="16" refY="6" viewBox="0 0 16 12" orient="auto" markerUnits="userSpaceOnUse" stroke-dasharray="0,0"><path id="SvgjsPath2579" d="M0,2 L14,6 L0,11 L0,2" fill="#323232" stroke="#323232" stroke-width="2"></path></marker><marker id="SvgjsMarker2602" markerWidth="16" markerHeight="12" refX="16" refY="6" viewBox="0 0 16 12" orient="auto" markerUnits="userSpaceOnUse" stroke-dasharray="0,0"><path id="SvgjsPath2603" d="M0,2 L14,6 L0,11 L0,2" fill="#323232" stroke="#323232" stroke-width="2"></path></marker><marker id="SvgjsMarker2614" markerWidth="16" markerHeight="12" refX="16" refY="6" viewBox="0 0 16 12" orient="auto" markerUnits="userSpaceOnUse" stroke-dasharray="0,0"><path id="SvgjsPath2615" d="M0,2 L14,6 L0,11 L0,2" fill="#323232" stroke="#323232" stroke-width="2"></path></marker><marker id="SvgjsMarker2632" markerWidth="16" markerHeight="12" refX="16" refY="6" viewBox="0 0 16 12" orient="auto" markerUnits="userSpaceOnUse" stroke-dasharray="0,0"><path id="SvgjsPath2633" d="M0,2 L14,6 L0,11 L0,2" fill="#323232" stroke="#323232" stroke-width="2"></path></marker><marker id="SvgjsMarker2644" markerWidth="16" markerHeight="12" refX="16" refY="6" viewBox="0 0 16 12" orient="auto" markerUnits="userSpaceOnUse" stroke-dasharray="0,0"><path id="SvgjsPath2645" d="M0,2 L14,6 L0,11 L0,2" fill="#323232" stroke="#323232" stroke-width="2"></path></marker><marker id="SvgjsMarker2662" markerWidth="16" markerHeight="12" refX="16" refY="6" viewBox="0 0 16 12" orient="auto" markerUnits="userSpaceOnUse" stroke-dasharray="0,0"><path id="SvgjsPath2663" d="M0,2 L14,6 L0,11 L0,2" fill="#323232" stroke="#323232" stroke-width="2"></path></marker><marker id="SvgjsMarker2674" markerWidth="16" markerHeight="12" refX="16" refY="6" viewBox="0 0 16 12" orient="auto" markerUnits="userSpaceOnUse" stroke-dasharray="0,0"><path id="SvgjsPath2675" d="M0,2 L14,6 L0,11 L0,2" fill="#ff0000" stroke="#ff0000" stroke-width="2"></path></marker><marker id="SvgjsMarker2692" markerWidth="16" markerHeight="12" refX="16" refY="6" viewBox="0 0 16 12" orient="auto" markerUnits="userSpaceOnUse" stroke-dasharray="0,0"><path id="SvgjsPath2693" d="M0,2 L14,6 L0,11 L0,2" fill="#323232" stroke="#323232" stroke-width="2"></path></marker><marker id="SvgjsMarker2710" markerWidth="16" markerHeight="12" refX="16" refY="6" viewBox="0 0 16 12" orient="auto" markerUnits="userSpaceOnUse" stroke-dasharray="0,0"><path id="SvgjsPath2711" d="M0,2 L14,6 L0,11 L0,2" fill="#323232" stroke="#323232" stroke-width="2"></path></marker><marker id="SvgjsMarker2718" markerWidth="16" markerHeight="12" refX="16" refY="6" viewBox="0 0 16 12" orient="auto" markerUnits="userSpaceOnUse" stroke-dasharray="0,0"><path id="SvgjsPath2719" d="M0,2 L14,6 L0,11 L0,2" fill="#323232" stroke="#323232" stroke-width="2"></path></marker><marker id="SvgjsMarker2736" markerWidth="16" markerHeight="12" refX="16" refY="6" viewBox="0 0 16 12" orient="auto" markerUnits="userSpaceOnUse" stroke-dasharray="0,0"><path id="SvgjsPath2737" d="M0,2 L14,6 L0,11 L0,2" fill="#323232" stroke="#323232" stroke-width="2"></path></marker><marker id="SvgjsMarker2748" markerWidth="16" markerHeight="12" refX="16" refY="6" viewBox="0 0 16 12" orient="auto" markerUnits="userSpaceOnUse" stroke-dasharray="0,0"><path id="SvgjsPath2749" d="M0,2 L14,6 L0,11 L0,2" fill="#323232" stroke="#323232" stroke-width="2"></path></marker><marker id="SvgjsMarker2760" markerWidth="16" markerHeight="12" refX="16" refY="6" viewBox="0 0 16 12" orient="auto" markerUnits="userSpaceOnUse" stroke-dasharray="0,0"><path id="SvgjsPath2761" d="M0,2 L14,6 L0,11 L0,2" fill="#323232" stroke="#323232" stroke-width="2"></path></marker><marker id="SvgjsMarker2772" markerWidth="16" markerHeight="12" refX="16" refY="6" viewBox="0 0 16 12" orient="auto" markerUnits="userSpaceOnUse" stroke-dasharray="0,0"><path id="SvgjsPath2773" d="M0,2 L14,6 L0,11 L0,2" fill="#323232" stroke="#323232" stroke-width="2"></path></marker><marker id="SvgjsMarker2792" markerWidth="16" markerHeight="12" refX="16" refY="6" viewBox="0 0 16 12" orient="auto" markerUnits="userSpaceOnUse" stroke-dasharray="0,0"><path id="SvgjsPath2793" d="M0,2 L14,6 L0,11 L0,2" fill="#323232" stroke="#323232" stroke-width="2"></path></marker><marker id="SvgjsMarker2804" markerWidth="16" markerHeight="12" refX="16" refY="6" viewBox="0 0 16 12" orient="auto" markerUnits="userSpaceOnUse" stroke-dasharray="0,0"><path id="SvgjsPath2805" d="M0,2 L14,6 L0,11 L0,2" fill="#323232" stroke="#323232" stroke-width="2"></path></marker><marker id="SvgjsMarker2812" markerWidth="16" markerHeight="12" refX="16" refY="6" viewBox="0 0 16 12" orient="auto" markerUnits="userSpaceOnUse" stroke-dasharray="0,0"><path id="SvgjsPath2813" d="M0,2 L14,6 L0,11 L0,2" fill="#00ffff" stroke="#00ffff" stroke-width="2"></path></marker><marker id="SvgjsMarker2816" markerWidth="16" markerHeight="12" refX="16" refY="6" viewBox="0 0 16 12" orient="auto" markerUnits="userSpaceOnUse" stroke-dasharray="0,0"><path id="SvgjsPath2817" d="M0,2 L14,6 L0,11 L0,2" fill="#33ffff" stroke="#33ffff" stroke-width="2"></path></marker><marker id="SvgjsMarker2820" markerWidth="16" markerHeight="12" refX="16" refY="6" viewBox="0 0 16 12" orient="auto" markerUnits="userSpaceOnUse" stroke-dasharray="0,0"><path id="SvgjsPath2821" d="M0,2 L14,6 L0,11 L0,2" fill="#00ffff" stroke="#00ffff" stroke-width="2"></path></marker><marker id="SvgjsMarker2824" markerWidth="16" markerHeight="12" refX="16" refY="6" viewBox="0 0 16 12" orient="auto" markerUnits="userSpaceOnUse" stroke-dasharray="0,0"><path id="SvgjsPath2825" d="M0,2 L14,6 L0,11 L0,2" fill="#00ffff" stroke="#00ffff" stroke-width="2"></path></marker><marker id="SvgjsMarker2834" markerWidth="16" markerHeight="12" refX="16" refY="6" viewBox="0 0 16 12" orient="auto" markerUnits="userSpaceOnUse" stroke-dasharray="0,0"><path id="SvgjsPath2835" d="M0,2 L14,6 L0,11 L0,2" fill="#00ffff" stroke="#00ffff" stroke-width="2"></path></marker><marker id="SvgjsMarker2838" markerWidth="16" markerHeight="12" refX="16" refY="6" viewBox="0 0 16 12" orient="auto" markerUnits="userSpaceOnUse" stroke-dasharray="0,0"><path id="SvgjsPath2839" d="M0,2 L14,6 L0,11 L0,2" fill="#00ffff" stroke="#00ffff" stroke-width="2"></path></marker></defs><g id="SvgjsG2504" transform="translate(618,177)"><path id="SvgjsPath2505" d="M 0 0L 36 0L 36 70L 0 70Z" stroke="rgba(50,50,50,1)" stroke-width="2" fill-opacity="1" fill="#ff9999"></path><g id="SvgjsG2506"><text id="SvgjsText2507" font-family="&quot;Lucida Console&quot;" text-anchor="middle" font-size="13px" width="16px" fill="#323232" font-weight="400" align="middle" lineHeight="125%" anchor="middle" family="&quot;Lucida Console&quot;" size="13px" weight="400" font-style="" opacity="1" y="25.375" transform="rotate(0)"><tspan id="SvgjsTspan2508" dy="16" x="18"><tspan id="SvgjsTspan2509" style="text-decoration:;">17</tspan></tspan></text></g></g><g id="SvgjsG2510" transform="translate(25,177)"><path id="SvgjsPath2511" d="M 0 0L 36 0L 36 35L 0 35Z" stroke="rgba(50,50,50,1)" stroke-width="2" fill-opacity="1" fill="#ffffff"></path><g id="SvgjsG2512"><text id="SvgjsText2513" font-family="微软雅黑" text-anchor="middle" font-size="13px" width="16px" fill="#323232" font-weight="400" align="middle" lineHeight="125%" anchor="middle" family="微软雅黑" size="13px" weight="400" font-style="" opacity="1" y="7.875" transform="rotate(0)"></text></g></g><g id="SvgjsG2514"><path id="SvgjsPath2515" d="M53 194.5L123 194.5L123 195L193 195" stroke="#323232" stroke-width="2" fill="none" marker-end="url(#SvgjsMarker2516)"></path></g><g id="SvgjsG2518" transform="translate(33,184.5)"><path id="SvgjsPath2519" d="M 0 10C 0 -3.3333333333333335 20 -3.3333333333333335 20 10C 20 23.333333333333332 0 23.333333333333332 0 10Z" stroke="none" fill-opacity="1" fill="#323232"></path><g id="SvgjsG2520"><text id="SvgjsText2521" font-family="微软雅黑" text-anchor="middle" font-size="13px" width="60px" fill="#323232" font-weight="400" align="middle" lineHeight="125%" anchor="middle" family="微软雅黑" size="13px" weight="400" font-style="" opacity="1" y="25.375" transform="rotate(0)"></text></g></g><g id="SvgjsG2522" transform="translate(229,177)"><path id="SvgjsPath2523" d="M 0 0L 36 0L 36 35L 0 35Z" stroke="rgba(50,50,50,1)" stroke-width="2" fill-opacity="1" fill="#ffffff"></path><g id="SvgjsG2524"><text id="SvgjsText2525" font-family="&quot;Lucida Console&quot;" text-anchor="middle" font-size="13px" width="16px" fill="#323232" font-weight="400" align="middle" lineHeight="125%" anchor="middle" family="&quot;Lucida Console&quot;" size="13px" weight="400" font-style="" opacity="1" y="7.875" transform="rotate(0)"></text></g></g><g id="SvgjsG2526"><path id="SvgjsPath2527" d="M257 194.5L327.5 194.5L327.5 194.5L398 194.5" stroke="#323232" stroke-width="2" fill="none" marker-end="url(#SvgjsMarker2528)"></path></g><g id="SvgjsG2530" transform="translate(237,184.5)"><path id="SvgjsPath2531" d="M 0 10C 0 -3.3333333333333335 20 -3.3333333333333335 20 10C 20 23.333333333333332 0 23.333333333333332 0 10Z" stroke="none" fill-opacity="1" fill="#323232"></path><g id="SvgjsG2532"><text id="SvgjsText2533" font-family="&quot;Lucida Console&quot;" text-anchor="middle" font-size="13px" width="60px" fill="#323232" font-weight="400" align="middle" lineHeight="125%" anchor="middle" family="&quot;Lucida Console&quot;" size="13px" weight="400" font-style="" opacity="1" y="25.375" transform="rotate(0)"></text></g></g><g id="SvgjsG2534" transform="translate(193,177)"><path id="SvgjsPath2535" d="M 0 0L 36 0L 36 70L 0 70Z" stroke="rgba(50,50,50,1)" stroke-width="2" fill-opacity="1" fill="#ffffff"></path><g id="SvgjsG2536"><text id="SvgjsText2537" font-family="&quot;Lucida Console&quot;" text-anchor="middle" font-size="13px" width="16px" fill="#323232" font-weight="400" align="middle" lineHeight="125%" anchor="middle" family="&quot;Lucida Console&quot;" size="13px" weight="400" font-style="" opacity="1" y="25.375" transform="rotate(0)"><tspan id="SvgjsTspan2538" dy="16" x="18"><tspan id="SvgjsTspan2539" style="text-decoration:;">6</tspan></tspan></text></g></g><g id="SvgjsG2540" transform="translate(434,177)"><path id="SvgjsPath2541" d="M 0 0L 36 0L 36 35L 0 35Z" stroke="rgba(50,50,50,1)" stroke-width="2" fill-opacity="1" fill="#ffffff"></path><g id="SvgjsG2542"><text id="SvgjsText2543" font-family="&quot;Lucida Console&quot;" text-anchor="middle" font-size="13px" width="16px" fill="#323232" font-weight="400" align="middle" lineHeight="125%" anchor="middle" family="&quot;Lucida Console&quot;" size="13px" weight="400" font-style="" opacity="1" y="7.875" transform="rotate(0)"></text></g></g><g id="SvgjsG2544"><path id="SvgjsPath2545" d="M462 194.5L638 194.5L638 195L814 195" stroke="#ff0000" stroke-width="2" fill="none" marker-end="url(#SvgjsMarker2546)"></path></g><g id="SvgjsG2548" transform="translate(442,184.5)"><path id="SvgjsPath2549" d="M 0 10C 0 -3.3333333333333335 20 -3.3333333333333335 20 10C 20 23.333333333333332 0 23.333333333333332 0 10Z" stroke="none" fill-opacity="1" fill="#323232"></path><g id="SvgjsG2550"><text id="SvgjsText2551" font-family="&quot;Lucida Console&quot;" text-anchor="middle" font-size="13px" width="60px" fill="#323232" font-weight="400" align="middle" lineHeight="125%" anchor="middle" family="&quot;Lucida Console&quot;" size="13px" weight="400" font-style="" opacity="1" y="25.375" transform="rotate(0)"></text></g></g><g id="SvgjsG2552" transform="translate(398,142)"><path id="SvgjsPath2553" d="M 0 0L 36 0L 36 105L 0 105Z" stroke="rgba(50,50,50,1)" stroke-width="2" fill-opacity="1" fill="#ffffff"></path><g id="SvgjsG2554"><text id="SvgjsText2555" font-family="&quot;Lucida Console&quot;" text-anchor="middle" font-size="13px" width="16px" fill="#323232" font-weight="400" align="middle" lineHeight="125%" anchor="middle" family="&quot;Lucida Console&quot;" size="13px" weight="400" font-style="" opacity="1" y="42.875" transform="rotate(0)"><tspan id="SvgjsTspan2556" dy="16" x="18"><tspan id="SvgjsTspan2557" style="text-decoration:;">9</tspan></tspan></text></g></g><g id="SvgjsG2558" transform="translate(850,177)"><path id="SvgjsPath2559" d="M 0 0L 36 0L 36 35L 0 35Z" stroke="rgba(50,50,50,1)" stroke-width="2" fill-opacity="1" fill="#ffffff"></path><g id="SvgjsG2560"><text id="SvgjsText2561" font-family="&quot;Lucida Console&quot;" text-anchor="middle" font-size="13px" width="16px" fill="#323232" font-weight="400" align="middle" lineHeight="125%" anchor="middle" family="&quot;Lucida Console&quot;" size="13px" weight="400" font-style="" opacity="1" y="7.875" transform="rotate(0)"></text></g></g><g id="SvgjsG2562"><path id="SvgjsPath2563" d="M878 194.5L949.5 194.5L949.5 195L1021 195" stroke="#323232" stroke-width="2" fill="none" marker-end="url(#SvgjsMarker2564)"></path></g><g id="SvgjsG2566" transform="translate(814,107)"><path id="SvgjsPath2567" d="M 0 0L 36 0L 36 140L 0 140Z" stroke="rgba(50,50,50,1)" stroke-width="2" fill-opacity="1" fill="#ffffff"></path><g id="SvgjsG2568"><text id="SvgjsText2569" font-family="&quot;Lucida Console&quot;" text-anchor="middle" font-size="13px" width="16px" fill="#323232" font-weight="400" align="middle" lineHeight="125%" anchor="middle" family="&quot;Lucida Console&quot;" size="13px" weight="400" font-style="" opacity="1" y="60.375" transform="rotate(0)"><tspan id="SvgjsTspan2570" dy="16" x="18"><tspan id="SvgjsTspan2571" style="text-decoration:;">21</tspan></tspan></text></g></g><g id="SvgjsG2572" transform="translate(1057,177)"><path id="SvgjsPath2573" d="M 0 0L 36 0L 36 35L 0 35Z" stroke="rgba(50,50,50,1)" stroke-width="2" fill-opacity="1" fill="#ffffff"></path><g id="SvgjsG2574"><text id="SvgjsText2575" font-family="&quot;Lucida Console&quot;" text-anchor="middle" font-size="13px" width="16px" fill="#323232" font-weight="400" align="middle" lineHeight="125%" anchor="middle" family="&quot;Lucida Console&quot;" size="13px" weight="400" font-style="" opacity="1" y="7.875" transform="rotate(0)"></text></g></g><g id="SvgjsG2576"><path id="SvgjsPath2577" d="M1085 194.5L1103 194.5L1103 194.5L1121 194.5" stroke="#323232" stroke-width="2" fill="none" marker-end="url(#SvgjsMarker2578)"></path></g><g id="SvgjsG2580" transform="translate(1065,184.5)"><path id="SvgjsPath2581" d="M 0 10C 0 -3.3333333333333335 20 -3.3333333333333335 20 10C 20 23.333333333333332 0 23.333333333333332 0 10Z" stroke="none" fill-opacity="1" fill="#323232"></path><g id="SvgjsG2582"><text id="SvgjsText2583" font-family="&quot;Lucida Console&quot;" text-anchor="middle" font-size="13px" width="60px" fill="#323232" font-weight="400" align="middle" lineHeight="125%" anchor="middle" family="&quot;Lucida Console&quot;" size="13px" weight="400" font-style="" opacity="1" y="25.375" transform="rotate(0)"></text></g></g><g id="SvgjsG2584" transform="translate(1021,177)"><path id="SvgjsPath2585" d="M 0 0L 36 0L 36 70L 0 70Z" stroke="rgba(50,50,50,1)" stroke-width="2" fill-opacity="1" fill="#ffffff"></path><g id="SvgjsG2586"><text id="SvgjsText2587" font-family="&quot;Lucida Console&quot;" text-anchor="middle" font-size="13px" width="16px" fill="#323232" font-weight="400" align="middle" lineHeight="125%" anchor="middle" family="&quot;Lucida Console&quot;" size="13px" weight="400" font-style="" opacity="1" y="25.375" transform="rotate(0)"><tspan id="SvgjsTspan2588" dy="16" x="18"><tspan id="SvgjsTspan2589" style="text-decoration:;">26</tspan></tspan></text></g></g><g id="SvgjsG2590" transform="translate(1127,107)"><path id="SvgjsPath2591" d="M 0 0L 40 0L 40 140L 0 140Z" stroke="rgba(50,50,50,1)" stroke-width="2" fill-opacity="1" fill="#ffffff"></path><g id="SvgjsG2592"><text id="SvgjsText2593" font-family="微软雅黑" text-anchor="middle" font-size="12px" width="20px" fill="#323232" font-weight="400" align="middle" lineHeight="125%" anchor="middle" family="微软雅黑" size="12px" weight="400" font-style="" opacity="1" y="61" transform="rotate(0)"><tspan id="SvgjsTspan2594" dy="15" x="20"><tspan id="SvgjsTspan2595" style="text-decoration:;">NIL</tspan></tspan></text></g></g><g id="SvgjsG2596" transform="translate(25,212)"><path id="SvgjsPath2597" d="M 0 0L 36 0L 36 35L 0 35Z" stroke="rgba(50,50,50,1)" stroke-width="2" fill-opacity="1" fill="#ffffff"></path><g id="SvgjsG2598"><text id="SvgjsText2599" font-family="微软雅黑" text-anchor="middle" font-size="13px" width="16px" fill="#323232" font-weight="400" align="middle" lineHeight="125%" anchor="middle" family="微软雅黑" size="13px" weight="400" font-style="" opacity="1" y="7.875" transform="rotate(0)"></text></g></g><g id="SvgjsG2600"><path id="SvgjsPath2601" d="M53 229.5L71.5 229.5L71.5 229.5L90 229.5" stroke="#323232" stroke-width="2" fill="none" marker-end="url(#SvgjsMarker2602)"></path></g><g id="SvgjsG2604" transform="translate(33,219.5)"><path id="SvgjsPath2605" d="M 0 10C 0 -3.3333333333333335 20 -3.3333333333333335 20 10C 20 23.333333333333332 0 23.333333333333332 0 10Z" stroke="none" fill-opacity="1" fill="#323232"></path><g id="SvgjsG2606"><text id="SvgjsText2607" font-family="微软雅黑" text-anchor="middle" font-size="13px" width="60px" fill="#323232" font-weight="400" align="middle" lineHeight="125%" anchor="middle" family="微软雅黑" size="13px" weight="400" font-style="" opacity="1" y="25.375" transform="rotate(0)"></text></g></g><g id="SvgjsG2608" transform="translate(126,212)"><path id="SvgjsPath2609" d="M 0 0L 36 0L 36 35L 0 35Z" stroke="rgba(50,50,50,1)" stroke-width="2" fill-opacity="1" fill="#ffffff"></path><g id="SvgjsG2610"><text id="SvgjsText2611" font-family="&quot;Lucida Console&quot;" text-anchor="middle" font-size="13px" width="16px" fill="#323232" font-weight="400" align="middle" lineHeight="125%" anchor="middle" family="&quot;Lucida Console&quot;" size="13px" weight="400" font-style="" opacity="1" y="7.875" transform="rotate(0)"></text></g></g><g id="SvgjsG2612"><path id="SvgjsPath2613" d="M154 229.5L172 229.5L172 229.5L190 229.5" stroke="#323232" stroke-width="2" fill="none" marker-end="url(#SvgjsMarker2614)"></path></g><g id="SvgjsG2616" transform="translate(134,219.5)"><path id="SvgjsPath2617" d="M 0 10C 0 -3.3333333333333335 20 -3.3333333333333335 20 10C 20 23.333333333333332 0 23.333333333333332 0 10Z" stroke="none" fill-opacity="1" fill="#323232"></path><g id="SvgjsG2618"><text id="SvgjsText2619" font-family="&quot;Lucida Console&quot;" text-anchor="middle" font-size="13px" width="60px" fill="#323232" font-weight="400" align="middle" lineHeight="125%" anchor="middle" family="&quot;Lucida Console&quot;" size="13px" weight="400" font-style="" opacity="1" y="25.375" transform="rotate(0)"></text></g></g><g id="SvgjsG2620" transform="translate(90,212)"><path id="SvgjsPath2621" d="M 0 0L 36 0L 36 35L 0 35Z" stroke="rgba(50,50,50,1)" stroke-width="2" fill-opacity="1" fill="#ffffff"></path><g id="SvgjsG2622"><text id="SvgjsText2623" font-family="&quot;Lucida Console&quot;" text-anchor="middle" font-size="13px" width="16px" fill="#323232" font-weight="400" align="middle" lineHeight="125%" anchor="middle" family="&quot;Lucida Console&quot;" size="13px" weight="400" font-style="" opacity="1" y="7.875" transform="rotate(0)"><tspan id="SvgjsTspan2624" dy="16" x="18"><tspan id="SvgjsTspan2625" style="text-decoration:;">3</tspan></tspan></text></g></g><g id="SvgjsG2626" transform="translate(229,212)"><path id="SvgjsPath2627" d="M 0 0L 36 0L 36 35L 0 35Z" stroke="rgba(50,50,50,1)" stroke-width="2" fill-opacity="1" fill="#ffffff"></path><g id="SvgjsG2628"><text id="SvgjsText2629" font-family="&quot;Lucida Console&quot;" text-anchor="middle" font-size="13px" width="16px" fill="#323232" font-weight="400" align="middle" lineHeight="125%" anchor="middle" family="&quot;Lucida Console&quot;" size="13px" weight="400" font-style="" opacity="1" y="7.875" transform="rotate(0)"></text></g></g><g id="SvgjsG2630"><path id="SvgjsPath2631" d="M257 229.5L275 229.5L275 229.5L293 229.5" stroke="#323232" stroke-width="2" fill="none" marker-end="url(#SvgjsMarker2632)"></path></g><g id="SvgjsG2634" transform="translate(237,219.5)"><path id="SvgjsPath2635" d="M 0 10C 0 -3.3333333333333335 20 -3.3333333333333335 20 10C 20 23.333333333333332 0 23.333333333333332 0 10Z" stroke="none" fill-opacity="1" fill="#323232"></path><g id="SvgjsG2636"><text id="SvgjsText2637" font-family="&quot;Lucida Console&quot;" text-anchor="middle" font-size="13px" width="60px" fill="#323232" font-weight="400" align="middle" lineHeight="125%" anchor="middle" family="&quot;Lucida Console&quot;" size="13px" weight="400" font-style="" opacity="1" y="25.375" transform="rotate(0)"></text></g></g><g id="SvgjsG2638" transform="translate(331,212)"><path id="SvgjsPath2639" d="M 0 0L 36 0L 36 35L 0 35Z" stroke="rgba(50,50,50,1)" stroke-width="2" fill-opacity="1" fill="#ffffff"></path><g id="SvgjsG2640"><text id="SvgjsText2641" font-family="&quot;Lucida Console&quot;" text-anchor="middle" font-size="13px" width="16px" fill="#323232" font-weight="400" align="middle" lineHeight="125%" anchor="middle" family="&quot;Lucida Console&quot;" size="13px" weight="400" font-style="" opacity="1" y="7.875" transform="rotate(0)"></text></g></g><g id="SvgjsG2642"><path id="SvgjsPath2643" d="M359 229.5L377 229.5L377 229.5L395 229.5" stroke="#323232" stroke-width="2" fill="none" marker-end="url(#SvgjsMarker2644)"></path></g><g id="SvgjsG2646" transform="translate(339,219.5)"><path id="SvgjsPath2647" d="M 0 10C 0 -3.3333333333333335 20 -3.3333333333333335 20 10C 20 23.333333333333332 0 23.333333333333332 0 10Z" stroke="none" fill-opacity="1" fill="#323232"></path><g id="SvgjsG2648"><text id="SvgjsText2649" font-family="&quot;Lucida Console&quot;" text-anchor="middle" font-size="13px" width="60px" fill="#323232" font-weight="400" align="middle" lineHeight="125%" anchor="middle" family="&quot;Lucida Console&quot;" size="13px" weight="400" font-style="" opacity="1" y="25.375" transform="rotate(0)"></text></g></g><g id="SvgjsG2650" transform="translate(295,212)"><path id="SvgjsPath2651" d="M 0 0L 36 0L 36 35L 0 35Z" stroke="rgba(50,50,50,1)" stroke-width="2" fill-opacity="1" fill="#ffffff"></path><g id="SvgjsG2652"><text id="SvgjsText2653" font-family="&quot;Lucida Console&quot;" text-anchor="middle" font-size="13px" width="16px" fill="#323232" font-weight="400" align="middle" lineHeight="125%" anchor="middle" family="&quot;Lucida Console&quot;" size="13px" weight="400" font-style="" opacity="1" y="7.875" transform="rotate(0)"><tspan id="SvgjsTspan2654" dy="16" x="18"><tspan id="SvgjsTspan2655" style="text-decoration:;">7</tspan></tspan></text></g></g><g id="SvgjsG2656" transform="translate(434,212)"><path id="SvgjsPath2657" d="M 0 0L 36 0L 36 35L 0 35Z" stroke="rgba(50,50,50,1)" stroke-width="2" fill-opacity="1" fill="#ffffff"></path><g id="SvgjsG2658"><text id="SvgjsText2659" font-family="&quot;Lucida Console&quot;" text-anchor="middle" font-size="13px" width="16px" fill="#323232" font-weight="400" align="middle" lineHeight="125%" anchor="middle" family="&quot;Lucida Console&quot;" size="13px" weight="400" font-style="" opacity="1" y="7.875" transform="rotate(0)"></text></g></g><g id="SvgjsG2660"><path id="SvgjsPath2661" d="M462 229.5L480 229.5L480 229.5L498 229.5" stroke="#323232" stroke-width="2" fill="none" marker-end="url(#SvgjsMarker2662)"></path></g><g id="SvgjsG2664" transform="translate(442,219.5)"><path id="SvgjsPath2665" d="M 0 10C 0 -3.3333333333333335 20 -3.3333333333333335 20 10C 20 23.333333333333332 0 23.333333333333332 0 10Z" stroke="none" fill-opacity="1" fill="#323232"></path><g id="SvgjsG2666"><text id="SvgjsText2667" font-family="&quot;Lucida Console&quot;" text-anchor="middle" font-size="13px" width="60px" fill="#323232" font-weight="400" align="middle" lineHeight="125%" anchor="middle" family="&quot;Lucida Console&quot;" size="13px" weight="400" font-style="" opacity="1" y="25.375" transform="rotate(0)"></text></g></g><g id="SvgjsG2668" transform="translate(539,212)"><path id="SvgjsPath2669" d="M 0 0L 36 0L 36 35L 0 35Z" stroke="rgba(50,50,50,1)" stroke-width="2" fill-opacity="1" fill="#ffffff"></path><g id="SvgjsG2670"><text id="SvgjsText2671" font-family="&quot;Lucida Console&quot;" text-anchor="middle" font-size="13px" width="16px" fill="#323232" font-weight="400" align="middle" lineHeight="125%" anchor="middle" family="&quot;Lucida Console&quot;" size="13px" weight="400" font-style="" opacity="1" y="7.875" transform="rotate(0)"></text></g></g><g id="SvgjsG2672"><path id="SvgjsPath2673" d="M567 229.5L639 229.5L639 229.5L711 229.5" stroke="#ff0000" stroke-width="2" fill="none" marker-end="url(#SvgjsMarker2674)"></path></g><g id="SvgjsG2676" transform="translate(547,219.5)"><path id="SvgjsPath2677" d="M 0 10C 0 -3.3333333333333335 20 -3.3333333333333335 20 10C 20 23.333333333333332 0 23.333333333333332 0 10Z" stroke="none" fill-opacity="1" fill="#323232"></path><g id="SvgjsG2678"><text id="SvgjsText2679" font-family="&quot;Lucida Console&quot;" text-anchor="middle" font-size="13px" width="60px" fill="#323232" font-weight="400" align="middle" lineHeight="125%" anchor="middle" family="&quot;Lucida Console&quot;" size="13px" weight="400" font-style="" opacity="1" y="25.375" transform="rotate(0)"></text></g></g><g id="SvgjsG2680" transform="translate(503,212)"><path id="SvgjsPath2681" d="M 0 0L 36 0L 36 35L 0 35Z" stroke="rgba(50,50,50,1)" stroke-width="2" fill-opacity="1" fill="#ffffff"></path><g id="SvgjsG2682"><text id="SvgjsText2683" font-family="&quot;Lucida Console&quot;" text-anchor="middle" font-size="13px" width="16px" fill="#323232" font-weight="400" align="middle" lineHeight="125%" anchor="middle" family="&quot;Lucida Console&quot;" size="13px" weight="400" font-style="" opacity="1" y="7.875" transform="rotate(0)"><tspan id="SvgjsTspan2684" dy="16" x="18"><tspan id="SvgjsTspan2685" style="text-decoration:;">12</tspan></tspan></text></g></g><g id="SvgjsG2686" transform="translate(747,212)"><path id="SvgjsPath2687" d="M 0 0L 36 0L 36 35L 0 35Z" stroke="rgba(50,50,50,1)" stroke-width="2" fill-opacity="1" fill="#ffffff"></path><g id="SvgjsG2688"><text id="SvgjsText2689" font-family="&quot;Lucida Console&quot;" text-anchor="middle" font-size="13px" width="16px" fill="#323232" font-weight="400" align="middle" lineHeight="125%" anchor="middle" family="&quot;Lucida Console&quot;" size="13px" weight="400" font-style="" opacity="1" y="7.875" transform="rotate(0)"></text></g></g><g id="SvgjsG2690"><path id="SvgjsPath2691" d="M775 229.5L793 229.5L793 229.5L811 229.5" stroke="#323232" stroke-width="2" fill="none" marker-end="url(#SvgjsMarker2692)"></path></g><g id="SvgjsG2694" transform="translate(755,219.5)"><path id="SvgjsPath2695" d="M 0 10C 0 -3.3333333333333335 20 -3.3333333333333335 20 10C 20 23.333333333333332 0 23.333333333333332 0 10Z" stroke="none" fill-opacity="1" fill="#323232"></path><g id="SvgjsG2696"><text id="SvgjsText2697" font-family="&quot;Lucida Console&quot;" text-anchor="middle" font-size="13px" width="60px" fill="#323232" font-weight="400" align="middle" lineHeight="125%" anchor="middle" family="&quot;Lucida Console&quot;" size="13px" weight="400" font-style="" opacity="1" y="25.375" transform="rotate(0)"></text></g></g><g id="SvgjsG2698" transform="translate(711,212)"><path id="SvgjsPath2699" d="M 0 0L 36 0L 36 35L 0 35Z" stroke="rgba(50,50,50,1)" stroke-width="2" fill-opacity="1" fill="#ffffff"></path><g id="SvgjsG2700"><text id="SvgjsText2701" font-family="&quot;Lucida Console&quot;" text-anchor="middle" font-size="13px" width="16px" fill="#323232" font-weight="400" align="middle" lineHeight="125%" anchor="middle" family="&quot;Lucida Console&quot;" size="13px" weight="400" font-style="" opacity="1" y="7.875" transform="rotate(0)"><tspan id="SvgjsTspan2702" dy="16" x="18"><tspan id="SvgjsTspan2703" style="text-decoration:;">19</tspan></tspan></text></g></g><g id="SvgjsG2704" transform="translate(850,212)"><path id="SvgjsPath2705" d="M 0 0L 36 0L 36 35L 0 35Z" stroke="rgba(50,50,50,1)" stroke-width="2" fill-opacity="1" fill="#ffffff"></path><g id="SvgjsG2706"><text id="SvgjsText2707" font-family="&quot;Lucida Console&quot;" text-anchor="middle" font-size="13px" width="16px" fill="#323232" font-weight="400" align="middle" lineHeight="125%" anchor="middle" family="&quot;Lucida Console&quot;" size="13px" weight="400" font-style="" opacity="1" y="7.875" transform="rotate(0)"></text></g></g><g id="SvgjsG2708"><path id="SvgjsPath2709" d="M878 229.5L896 229.5L896 229.5L914 229.5" stroke="#323232" stroke-width="2" fill="none" marker-end="url(#SvgjsMarker2710)"></path></g><g id="SvgjsG2712" transform="translate(954,212)"><path id="SvgjsPath2713" d="M 0 0L 36 0L 36 35L 0 35Z" stroke="rgba(50,50,50,1)" stroke-width="2" fill-opacity="1" fill="#ffffff"></path><g id="SvgjsG2714"><text id="SvgjsText2715" font-family="&quot;Lucida Console&quot;" text-anchor="middle" font-size="13px" width="16px" fill="#323232" font-weight="400" align="middle" lineHeight="125%" anchor="middle" family="&quot;Lucida Console&quot;" size="13px" weight="400" font-style="" opacity="1" y="7.875" transform="rotate(0)"></text></g></g><g id="SvgjsG2716"><path id="SvgjsPath2717" d="M982 229.5L1000 229.5L1000 229.5L1018 229.5" stroke="#323232" stroke-width="2" fill="none" marker-end="url(#SvgjsMarker2718)"></path></g><g id="SvgjsG2720" transform="translate(962,219.5)"><path id="SvgjsPath2721" d="M 0 10C 0 -3.3333333333333335 20 -3.3333333333333335 20 10C 20 23.333333333333332 0 23.333333333333332 0 10Z" stroke="none" fill-opacity="1" fill="#323232"></path><g id="SvgjsG2722"><text id="SvgjsText2723" font-family="&quot;Lucida Console&quot;" text-anchor="middle" font-size="13px" width="60px" fill="#323232" font-weight="400" align="middle" lineHeight="125%" anchor="middle" family="&quot;Lucida Console&quot;" size="13px" weight="400" font-style="" opacity="1" y="25.375" transform="rotate(0)"></text></g></g><g id="SvgjsG2724" transform="translate(918,212)"><path id="SvgjsPath2725" d="M 0 0L 36 0L 36 35L 0 35Z" stroke="rgba(50,50,50,1)" stroke-width="2" fill-opacity="1" fill="#ffffff"></path><g id="SvgjsG2726"><text id="SvgjsText2727" font-family="&quot;Lucida Console&quot;" text-anchor="middle" font-size="13px" width="16px" fill="#323232" font-weight="400" align="middle" lineHeight="125%" anchor="middle" family="&quot;Lucida Console&quot;" size="13px" weight="400" font-style="" opacity="1" y="7.875" transform="rotate(0)"><tspan id="SvgjsTspan2728" dy="16" x="18"><tspan id="SvgjsTspan2729" style="text-decoration:;">25</tspan></tspan></text></g></g><g id="SvgjsG2730" transform="translate(1057,212)"><path id="SvgjsPath2731" d="M 0 0L 36 0L 36 35L 0 35Z" stroke="rgba(50,50,50,1)" stroke-width="2" fill-opacity="1" fill="#ffffff"></path><g id="SvgjsG2732"><text id="SvgjsText2733" font-family="&quot;Lucida Console&quot;" text-anchor="middle" font-size="13px" width="16px" fill="#323232" font-weight="400" align="middle" lineHeight="125%" anchor="middle" family="&quot;Lucida Console&quot;" size="13px" weight="400" font-style="" opacity="1" y="7.875" transform="rotate(0)"></text></g></g><g id="SvgjsG2734"><path id="SvgjsPath2735" d="M1085 229.5L1103 229.5L1103 229.5L1121 229.5" stroke="#323232" stroke-width="2" fill="none" marker-end="url(#SvgjsMarker2736)"></path></g><g id="SvgjsG2738" transform="translate(1065,219.5)"><path id="SvgjsPath2739" d="M 0 10C 0 -3.3333333333333335 20 -3.3333333333333335 20 10C 20 23.333333333333332 0 23.333333333333332 0 10Z" stroke="none" fill-opacity="1" fill="#323232"></path><g id="SvgjsG2740"><text id="SvgjsText2741" font-family="&quot;Lucida Console&quot;" text-anchor="middle" font-size="13px" width="60px" fill="#323232" font-weight="400" align="middle" lineHeight="125%" anchor="middle" family="&quot;Lucida Console&quot;" size="13px" weight="400" font-style="" opacity="1" y="25.375" transform="rotate(0)"></text></g></g><g id="SvgjsG2742" transform="translate(25,142)"><path id="SvgjsPath2743" d="M 0 0L 36 0L 36 35L 0 35Z" stroke="rgba(50,50,50,1)" stroke-width="2" fill-opacity="1" fill="#ffffff"></path><g id="SvgjsG2744"><text id="SvgjsText2745" font-family="微软雅黑" text-anchor="middle" font-size="13px" width="16px" fill="#323232" font-weight="400" align="middle" lineHeight="125%" anchor="middle" family="微软雅黑" size="13px" weight="400" font-style="" opacity="1" y="7.875" transform="rotate(0)"></text></g></g><g id="SvgjsG2746"><path id="SvgjsPath2747" d="M53 159.5L225.5 159.5L225.5 159.5L398 159.5" stroke="#323232" stroke-width="2" fill="none" marker-end="url(#SvgjsMarker2748)"></path></g><g id="SvgjsG2750" transform="translate(33,149.5)"><path id="SvgjsPath2751" d="M 0 10C 0 -3.3333333333333335 20 -3.3333333333333335 20 10C 20 23.333333333333332 0 23.333333333333332 0 10Z" stroke="none" fill-opacity="1" fill="#323232"></path><g id="SvgjsG2752"><text id="SvgjsText2753" font-family="微软雅黑" text-anchor="middle" font-size="13px" width="60px" fill="#323232" font-weight="400" align="middle" lineHeight="125%" anchor="middle" family="微软雅黑" size="13px" weight="400" font-style="" opacity="1" y="25.375" transform="rotate(0)"></text></g></g><g id="SvgjsG2754" transform="translate(434,142)"><path id="SvgjsPath2755" d="M 0 0L 36 0L 36 35L 0 35Z" stroke="rgba(50,50,50,1)" stroke-width="2" fill-opacity="1" fill="#ffffff"></path><g id="SvgjsG2756"><text id="SvgjsText2757" font-family="&quot;Lucida Console&quot;" text-anchor="middle" font-size="13px" width="16px" fill="#323232" font-weight="400" align="middle" lineHeight="125%" anchor="middle" family="&quot;Lucida Console&quot;" size="13px" weight="400" font-style="" opacity="1" y="7.875" transform="rotate(0)"></text></g></g><g id="SvgjsG2758"><path id="SvgjsPath2759" d="M462 159.5L638 159.5L638 160L814 160" stroke="#323232" stroke-width="2" fill="none" marker-end="url(#SvgjsMarker2760)"></path></g><g id="SvgjsG2762" transform="translate(442,149.5)"><path id="SvgjsPath2763" d="M 0 10C 0 -3.3333333333333335 20 -3.3333333333333335 20 10C 20 23.333333333333332 0 23.333333333333332 0 10Z" stroke="none" fill-opacity="1" fill="#323232"></path><g id="SvgjsG2764"><text id="SvgjsText2765" font-family="&quot;Lucida Console&quot;" text-anchor="middle" font-size="13px" width="60px" fill="#323232" font-weight="400" align="middle" lineHeight="125%" anchor="middle" family="&quot;Lucida Console&quot;" size="13px" weight="400" font-style="" opacity="1" y="25.375" transform="rotate(0)"></text></g></g><g id="SvgjsG2766" transform="translate(850,142)"><path id="SvgjsPath2767" d="M 0 0L 36 0L 36 35L 0 35Z" stroke="rgba(50,50,50,1)" stroke-width="2" fill-opacity="1" fill="#ffffff"></path><g id="SvgjsG2768"><text id="SvgjsText2769" font-family="&quot;Lucida Console&quot;" text-anchor="middle" font-size="13px" width="16px" fill="#323232" font-weight="400" align="middle" lineHeight="125%" anchor="middle" family="&quot;Lucida Console&quot;" size="13px" weight="400" font-style="" opacity="1" y="7.875" transform="rotate(0)"></text></g></g><g id="SvgjsG2770"><path id="SvgjsPath2771" d="M878 159.5L1002.5 159.5L1002.5 160L1127 160" stroke="#323232" stroke-width="2" fill="none" marker-end="url(#SvgjsMarker2772)"></path></g><g id="SvgjsG2774" transform="translate(858,149.5)"><path id="SvgjsPath2775" d="M 0 10C 0 -3.3333333333333335 20 -3.3333333333333335 20 10C 20 23.333333333333332 0 23.333333333333332 0 10Z" stroke="none" fill-opacity="1" fill="#323232"></path><g id="SvgjsG2776"><text id="SvgjsText2777" font-family="&quot;Lucida Console&quot;" text-anchor="middle" font-size="13px" width="60px" fill="#323232" font-weight="400" align="middle" lineHeight="125%" anchor="middle" family="&quot;Lucida Console&quot;" size="13px" weight="400" font-style="" opacity="1" y="25.375" transform="rotate(0)"></text></g></g><g id="SvgjsG2778" transform="translate(858,184.5)"><path id="SvgjsPath2779" d="M 0 10C 0 -3.3333333333333335 20 -3.3333333333333335 20 10C 20 23.333333333333332 0 23.333333333333332 0 10Z" stroke="none" fill-opacity="1" fill="#323232"></path><g id="SvgjsG2780"><text id="SvgjsText2781" font-family="&quot;Lucida Console&quot;" text-anchor="middle" font-size="13px" width="60px" fill="#323232" font-weight="400" align="middle" lineHeight="125%" anchor="middle" family="&quot;Lucida Console&quot;" size="13px" weight="400" font-style="" opacity="1" y="25.375" transform="rotate(0)"></text></g></g><g id="SvgjsG2782" transform="translate(858,219.5)"><path id="SvgjsPath2783" d="M 0 10C 0 -3.3333333333333335 20 -3.3333333333333335 20 10C 20 23.333333333333332 0 23.333333333333332 0 10Z" stroke="none" fill-opacity="1" fill="#323232"></path><g id="SvgjsG2784"><text id="SvgjsText2785" font-family="&quot;Lucida Console&quot;" text-anchor="middle" font-size="13px" width="60px" fill="#323232" font-weight="400" align="middle" lineHeight="125%" anchor="middle" family="&quot;Lucida Console&quot;" size="13px" weight="400" font-style="" opacity="1" y="25.375" transform="rotate(0)"></text></g></g><g id="SvgjsG2786" transform="translate(25,107)"><path id="SvgjsPath2787" d="M 0 0L 36 0L 36 35L 0 35Z" stroke="rgba(50,50,50,1)" stroke-width="2" fill-opacity="1" fill="#ffffff"></path><g id="SvgjsG2788"><text id="SvgjsText2789" font-family="微软雅黑" text-anchor="middle" font-size="13px" width="16px" fill="#323232" font-weight="400" align="middle" lineHeight="125%" anchor="middle" family="微软雅黑" size="13px" weight="400" font-style="" opacity="1" y="7.875" transform="rotate(0)"></text></g></g><g id="SvgjsG2790"><path id="SvgjsPath2791" d="M53 124.5L433.5 124.5L433.5 124.5L814 124.5" stroke="#323232" stroke-width="2" fill="none" marker-end="url(#SvgjsMarker2792)"></path></g><g id="SvgjsG2794" transform="translate(33,114.5)"><path id="SvgjsPath2795" d="M 0 10C 0 -3.3333333333333335 20 -3.3333333333333335 20 10C 20 23.333333333333332 0 23.333333333333332 0 10Z" stroke="none" fill-opacity="1" fill="#323232"></path><g id="SvgjsG2796"><text id="SvgjsText2797" font-family="微软雅黑" text-anchor="middle" font-size="13px" width="60px" fill="#323232" font-weight="400" align="middle" lineHeight="125%" anchor="middle" family="微软雅黑" size="13px" weight="400" font-style="" opacity="1" y="25.375" transform="rotate(0)"></text></g></g><g id="SvgjsG2798" transform="translate(850,107)"><path id="SvgjsPath2799" d="M 0 0L 36 0L 36 35L 0 35Z" stroke="rgba(50,50,50,1)" stroke-width="2" fill-opacity="1" fill="#ffffff"></path><g id="SvgjsG2800"><text id="SvgjsText2801" font-family="&quot;Lucida Console&quot;" text-anchor="middle" font-size="13px" width="16px" fill="#323232" font-weight="400" align="middle" lineHeight="125%" anchor="middle" family="&quot;Lucida Console&quot;" size="13px" weight="400" font-style="" opacity="1" y="7.875" transform="rotate(0)"></text></g></g><g id="SvgjsG2802"><path id="SvgjsPath2803" d="M878 124.5L1002.5 124.5L1002.5 124.5L1127 124.5" stroke="#323232" stroke-width="2" fill="none" marker-end="url(#SvgjsMarker2804)"></path></g><g id="SvgjsG2806" transform="translate(858,114.5)"><path id="SvgjsPath2807" d="M 0 10C 0 -3.3333333333333335 20 -3.3333333333333335 20 10C 20 23.333333333333332 0 23.333333333333332 0 10Z" stroke="none" fill-opacity="1" fill="#323232"></path><g id="SvgjsG2808"><text id="SvgjsText2809" font-family="&quot;Lucida Console&quot;" text-anchor="middle" font-size="13px" width="60px" fill="#323232" font-weight="400" align="middle" lineHeight="125%" anchor="middle" family="&quot;Lucida Console&quot;" size="13px" weight="400" font-style="" opacity="1" y="25.375" transform="rotate(0)"></text></g></g><g id="SvgjsG2810"><path id="SvgjsPath2811" d="M40 46C 94 25 84.34412723985248 130.02681531914516 53 124.5" stroke="#00ffff" stroke-width="2" fill="none" marker-end="url(#SvgjsMarker2812)"></path></g><g id="SvgjsG2814"><path id="SvgjsPath2815" d="M53 124.5C 126 137 78 147 53 159.5" stroke="#33ffff" stroke-width="2" fill="none" marker-end="url(#SvgjsMarker2816)"></path></g><g id="SvgjsG2818"><path id="SvgjsPath2819" d="M53 159.5C 210.22467342852164 187.22295195852564 353 97 452 149.5" stroke="#00ffff" stroke-width="2" fill="none" marker-end="url(#SvgjsMarker2820)"></path></g><g id="SvgjsG2822"><path id="SvgjsPath2823" d="M470 163C 511 167 497 186 462 194.5" stroke="#00ffff" stroke-width="2" fill="none" marker-end="url(#SvgjsMarker2824)"></path></g><g id="SvgjsG2826" transform="translate(544,266)"><path id="SvgjsPath2827" d="M 0 0L 120 0L 120 40L 0 40Z" stroke="none" fill="none"></path><g id="SvgjsG2828"><text id="SvgjsText2829" font-family="&quot;Lucida Console&quot;" text-anchor="middle" font-size="17px" width="120px" fill="#323232" font-weight="400" align="middle" lineHeight="125%" anchor="middle" family="&quot;Lucida Console&quot;" size="17px" weight="400" font-style="" opacity="1" y="7.375" transform="rotate(0)"><tspan id="SvgjsTspan2830" dy="21" x="60"><tspan id="SvgjsTspan2831" style="text-decoration:;">删除17</tspan></tspan></text></g></g><g id="SvgjsG2832"><path id="SvgjsPath2833" d="M460 194C 488 205 482 213 462 229.5" stroke="#00ffff" stroke-width="2" fill="none" marker-end="url(#SvgjsMarker2834)"></path></g><g id="SvgjsG2836"><path id="SvgjsPath2837" d="M462 230C 497 201 545 190 557 219.5" stroke="#00ffff" stroke-width="2" fill="none" marker-end="url(#SvgjsMarker2838)"></path></g></svg>