<svg id="SvgjsSvg2144" width="443" height="242" xmlns="http://www.w3.org/2000/svg" version="1.1" xmlns:xlink="http://www.w3.org/1999/xlink" xmlns:svgjs="http://svgjs.com/svgjs"><defs id="SvgjsDefs2145"><marker id="SvgjsMarker2160" markerWidth="16" markerHeight="12" refX="16" refY="6" viewBox="0 0 16 12" orient="auto" markerUnits="userSpaceOnUse" stroke-dasharray="0,0"><path id="SvgjsPath2161" d="M0,2 L14,6 L0,11 L0,2" fill="#323232" stroke="#323232" stroke-width="2"></path></marker><marker id="SvgjsMarker2164" markerWidth="16" markerHeight="12" refX="16" refY="6" viewBox="0 0 16 12" orient="auto" markerUnits="userSpaceOnUse" stroke-dasharray="0,0"><path id="SvgjsPath2165" d="M0,2 L14,6 L0,11 L0,2" fill="#323232" stroke="#323232" stroke-width="2"></path></marker><marker id="SvgjsMarker2168" markerWidth="16" markerHeight="12" refX="16" refY="6" viewBox="0 0 16 12" orient="auto" markerUnits="userSpaceOnUse" stroke-dasharray="0,0"><path id="SvgjsPath2169" d="M0,2 L14,6 L0,11 L0,2" fill="#323232" stroke="#323232" stroke-width="2"></path></marker><marker id="SvgjsMarker2182" markerWidth="16" markerHeight="12" refX="16" refY="6" viewBox="0 0 16 12" orient="auto" markerUnits="userSpaceOnUse" stroke-dasharray="0,0"><path id="SvgjsPath2183" d="M0,2 L14,6 L0,11 L0,2" fill="#323232" stroke="#323232" stroke-width="2"></path></marker><marker id="SvgjsMarker2190" markerWidth="16" markerHeight="12" refX="16" refY="6" viewBox="0 0 16 12" orient="auto" markerUnits="userSpaceOnUse" stroke-dasharray="0,0"><path id="SvgjsPath2191" d="M0,2 L14,6 L0,11 L0,2" fill="#323232" stroke="#323232" stroke-width="2"></path></marker><marker id="SvgjsMarker2194" markerWidth="16" markerHeight="12" refX="16" refY="6" viewBox="0 0 16 12" orient="auto" markerUnits="userSpaceOnUse" stroke-dasharray="0,0"><path id="SvgjsPath2195" d="M0,2 L14,6 L0,11 L0,2" fill="#323232" stroke="#323232" stroke-width="2"></path></marker><marker id="SvgjsMarker2198" markerWidth="16" markerHeight="12" refX="16" refY="6" viewBox="0 0 16 12" orient="auto" markerUnits="userSpaceOnUse" stroke-dasharray="0,0"><path id="SvgjsPath2199" d="M0,2 L14,6 L0,11 L0,2" fill="#323232" stroke="#323232" stroke-width="2"></path></marker><marker id="SvgjsMarker2202" markerWidth="16" markerHeight="12" refX="16" refY="6" viewBox="0 0 16 12" orient="auto" markerUnits="userSpaceOnUse" stroke-dasharray="0,0"><path id="SvgjsPath2203" d="M0,2 L14,6 L0,11 L0,2" fill="#323232" stroke="#323232" stroke-width="2"></path></marker></defs><g id="SvgjsG2146" transform="translate(89,100)"><path id="SvgjsPath2147" d="M 0 35C 0 -11.666666666666666 70 -11.666666666666666 70 35C 70 81.66666666666667 0 81.66666666666667 0 35Z" stroke="rgba(50,50,50,1)" stroke-width="2" fill-opacity="1" fill="#ffffff"></path><g id="SvgjsG2148"><text id="SvgjsText2149" font-family="&quot;Lucida Console&quot;" text-anchor="middle" font-size="20px" width="50px" fill="#323232" font-weight="400" align="middle" lineHeight="125%" anchor="middle" family="&quot;Lucida Console&quot;" size="20px" weight="400" font-style="" opacity="1" y="20" transform="rotate(0)"><tspan id="SvgjsTspan2150" dy="25" x="35"><tspan id="SvgjsTspan2151" style="text-decoration:;">\s</tspan></tspan></text></g></g><g id="SvgjsG2152" transform="translate(220,58)"><path id="SvgjsPath2153" d="M 0 35C 0 -11.666666666666666 70 -11.666666666666666 70 35C 70 81.66666666666667 0 81.66666666666667 0 35Z" stroke="rgba(50,50,50,1)" stroke-width="2" fill-opacity="1" fill="#ffffff"></path><g id="SvgjsG2154"><text id="SvgjsText2155" font-family="&quot;Lucida Console&quot;" text-anchor="middle" font-size="20px" width="50px" fill="#323232" font-weight="400" align="middle" lineHeight="125%" anchor="middle" family="&quot;Lucida Console&quot;" size="20px" weight="400" font-style="" opacity="1" y="20" transform="rotate(0)"><tspan id="SvgjsTspan2156" dy="25" x="35"><tspan id="SvgjsTspan2157" style="text-decoration:;">+</tspan></tspan></text></g></g><g id="SvgjsG2158"><path id="SvgjsPath2159" d="M159 135L189.5 135L189.5 93L220 93" stroke="#323232" stroke-width="2" fill="none" marker-end="url(#SvgjsMarker2160)"></path></g><g id="SvgjsG2162"><path id="SvgjsPath2163" d="M25 135L57 135L57 135L89 135" stroke="#323232" stroke-width="2" fill="none" marker-end="url(#SvgjsMarker2164)"></path></g><g id="SvgjsG2166"><path id="SvgjsPath2167" d="M148.46791111376206 110.28557521937307C 176 76 68 50 95 112" stroke="#323232" stroke-width="2" fill="none" marker-end="url(#SvgjsMarker2168)"></path><rect id="SvgjsRect2170" width="12" height="25" x="115.93348888922026" y="62.535696902421634" fill="#ffffff"></rect><text id="SvgjsText2171" font-family="&quot;Lucida Console&quot;" text-anchor="middle" font-size="20px" width="12px" fill="#323232" font-weight="400" align="top" lineHeight="25px" anchor="middle" family="&quot;Lucida Console&quot;" size="20px" weight="400" font-style="" opacity="1" y="60.035696902421634" transform="rotate(0)"><tspan id="SvgjsTspan2172" dy="25" x="121.93348888922026"><tspan id="SvgjsTspan2173" style="text-decoration:;">*</tspan></tspan></text></g><g id="SvgjsG2174" transform="translate(220,147)"><path id="SvgjsPath2175" d="M 0 35C 0 -11.666666666666666 70 -11.666666666666666 70 35C 70 81.66666666666667 0 81.66666666666667 0 35Z" stroke="rgba(50,50,50,1)" stroke-width="2" fill-opacity="1" fill="#ffffff"></path><g id="SvgjsG2176"><text id="SvgjsText2177" font-family="&quot;Lucida Console&quot;" text-anchor="middle" font-size="20px" width="50px" fill="#323232" font-weight="400" align="middle" lineHeight="125%" anchor="middle" family="&quot;Lucida Console&quot;" size="20px" weight="400" font-style="" opacity="1" y="20" transform="rotate(0)"><tspan id="SvgjsTspan2178" dy="25" x="35"><tspan id="SvgjsTspan2179" style="text-decoration:;">-</tspan></tspan></text></g></g><g id="SvgjsG2180"><path id="SvgjsPath2181" d="M159 135L189.5 135L189.5 182L220 182" stroke="#323232" stroke-width="2" fill="none" marker-end="url(#SvgjsMarker2182)"></path></g><g id="SvgjsG2184" transform="translate(348,100)"><path id="SvgjsPath2185" d="M 0 35C 0 -11.666666666666666 70 -11.666666666666666 70 35C 70 81.66666666666667 0 81.66666666666667 0 35Z" stroke="rgba(50,50,50,1)" stroke-width="2" fill-opacity="1" fill="#ffffff"></path><g id="SvgjsG2186"><text id="SvgjsText2187" font-family="&quot;Lucida Console&quot;" text-anchor="middle" font-size="20px" width="50px" fill="#323232" font-weight="400" align="middle" lineHeight="125%" anchor="middle" family="&quot;Lucida Console&quot;" size="20px" weight="400" font-style="" opacity="1" y="20" transform="rotate(0)"></text></g></g><g id="SvgjsG2188"><path id="SvgjsPath2189" d="M159 135L253.5 135L253.5 135L348 135" stroke="#323232" stroke-width="2" fill="none" marker-end="url(#SvgjsMarker2190)"></path></g><g id="SvgjsG2192"><path id="SvgjsPath2193" d="M290 93L319 93L319 135L348 135" stroke="#323232" stroke-width="2" fill="none" marker-end="url(#SvgjsMarker2194)"></path></g><g id="SvgjsG2196"><path id="SvgjsPath2197" d="M290 182L319 182L319 135L348 135" stroke="#323232" stroke-width="2" fill="none" marker-end="url(#SvgjsMarker2198)"></path></g><g id="SvgjsG2200"><path id="SvgjsPath2201" d="M413 113C 402 25 312 81 356.09576022144495 112.86788218175525" stroke="#323232" stroke-width="2" fill="none" marker-end="url(#SvgjsMarker2202)"></path><rect id="SvgjsRect2204" width="12" height="25" x="357.8869700276806" y="55.483485272719406" fill="#ffffff"></rect><text id="SvgjsText2205" font-family="&quot;Lucida Console&quot;" text-anchor="middle" font-size="20px" width="12px" fill="#323232" font-weight="400" align="top" lineHeight="25px" anchor="middle" family="&quot;Lucida Console&quot;" size="20px" weight="400" font-style="" opacity="1" y="52.983485272719406" transform="rotate(0)"><tspan id="SvgjsTspan2206" dy="25" x="363.8869700276806"><tspan id="SvgjsTspan2207" style="text-decoration:;">*</tspan></tspan></text></g><g id="SvgjsG2208" transform="translate(355,106.5)"><path id="SvgjsPath2209" d="M 0 28.5C 0 -9.5 56 -9.5 56 28.5C 56 66.5 0 66.5 0 28.5Z" stroke="rgba(50,50,50,1)" stroke-width="2" fill-opacity="1" fill="#ffffff"></path><g id="SvgjsG2210"><text id="SvgjsText2211" font-family="&quot;Lucida Console&quot;" text-anchor="middle" font-size="18px" width="36px" fill="#323232" font-weight="400" align="middle" lineHeight="125%" anchor="middle" family="&quot;Lucida Console&quot;" size="18px" weight="400" font-style="" opacity="1" y="15.25" transform="rotate(0)"><tspan id="SvgjsTspan2212" dy="22" x="28"><tspan id="SvgjsTspan2213" style="text-decoration:;">\d</tspan></tspan></text></g></g></svg>