<?xml version="1.0" encoding="UTF-8" standalone="no"?>
<!DOCTYPE svg PUBLIC "-//W3C//DTD SVG 1.1//EN"
 "http://www.w3.org/Graphics/SVG/1.1/DTD/svg11.dtd">
<!-- Generated by graphviz version 2.40.1 (20161225.0304)
 -->
<!-- Title: structs Pages: 1 -->
<svg width="242pt" height="75pt"
 viewBox="0.00 0.00 242.00 75.00" xmlns="http://www.w3.org/2000/svg" xmlns:xlink="http://www.w3.org/1999/xlink">
<g id="graph0" class="graph" transform="scale(1 1) rotate(0) translate(4 71)">
<title>structs</title>
<polygon fill="#ffffff" stroke="transparent" points="-4,4 -4,-71 238,-71 238,4 -4,4"/>
<!-- struct1 -->
<g id="node1" class="node">
<title>struct1</title>
<polygon fill="none" stroke="#ff0000" points="0,-.5 0,-66.5 234,-66.5 234,-.5 0,-.5"/>
<text text-anchor="middle" x="9.75" y="-51.3" font-family="Times,serif" font-size="14.00" fill="#000000"> </text>
<polyline fill="none" stroke="#ff0000" points="19.5,-44.5 19.5,-66.5 "/>
<text text-anchor="middle" x="29.25" y="-51.3" font-family="Times,serif" font-size="14.00" fill="#000000"> </text>
<polyline fill="none" stroke="#ff0000" points="39,-44.5 39,-66.5 "/>
<text text-anchor="middle" x="48.75" y="-51.3" font-family="Times,serif" font-size="14.00" fill="#000000"> </text>
<polyline fill="none" stroke="#ff0000" points="58.5,-44.5 58.5,-66.5 "/>
<text text-anchor="middle" x="68.25" y="-51.3" font-family="Times,serif" font-size="14.00" fill="#000000"> </text>
<polyline fill="none" stroke="#ff0000" points="0,-44.5 78,-44.5 "/>
<text text-anchor="middle" x="39" y="-29.3" font-family="Times,serif" font-size="14.00" fill="#000000">int len</text>
<polyline fill="none" stroke="#ff0000" points="0,-22.5 78,-22.5 "/>
<text text-anchor="middle" x="39" y="-7.3" font-family="Times,serif" font-size="14.00" fill="#000000">in struct</text>
<polyline fill="none" stroke="#ff0000" points="78,-.5 78,-66.5 "/>
<text text-anchor="middle" x="87.75" y="-51.3" font-family="Times,serif" font-size="14.00" fill="#000000"> </text>
<polyline fill="none" stroke="#ff0000" points="97.5,-44.5 97.5,-66.5 "/>
<text text-anchor="middle" x="107.25" y="-51.3" font-family="Times,serif" font-size="14.00" fill="#000000"> </text>
<polyline fill="none" stroke="#ff0000" points="117,-44.5 117,-66.5 "/>
<text text-anchor="middle" x="126.75" y="-51.3" font-family="Times,serif" font-size="14.00" fill="#000000"> </text>
<polyline fill="none" stroke="#ff0000" points="136.5,-44.5 136.5,-66.5 "/>
<text text-anchor="middle" x="146.25" y="-51.3" font-family="Times,serif" font-size="14.00" fill="#000000"> </text>
<polyline fill="none" stroke="#ff0000" points="156,-44.5 156,-66.5 "/>
<text text-anchor="middle" x="165.75" y="-51.3" font-family="Times,serif" font-size="14.00" fill="#000000"> </text>
<polyline fill="none" stroke="#ff0000" points="175.5,-44.5 175.5,-66.5 "/>
<text text-anchor="middle" x="185.25" y="-51.3" font-family="Times,serif" font-size="14.00" fill="#000000"> </text>
<polyline fill="none" stroke="#ff0000" points="195,-44.5 195,-66.5 "/>
<text text-anchor="middle" x="204.75" y="-51.3" font-family="Times,serif" font-size="14.00" fill="#000000"> </text>
<polyline fill="none" stroke="#ff0000" points="214.5,-44.5 214.5,-66.5 "/>
<text text-anchor="middle" x="224.25" y="-51.3" font-family="Times,serif" font-size="14.00" fill="#000000"> </text>
<polyline fill="none" stroke="#ff0000" points="78,-44.5 234,-44.5 "/>
<text text-anchor="middle" x="155.7881" y="-29.3" font-family="Times,serif" font-size="14.00" fill="#000000">char buf[]</text>
<polyline fill="none" stroke="#ff0000" points="78,-22.5 234,-22.5 "/>
<text text-anchor="middle" x="156" y="-7.3" font-family="Times,serif" font-size="14.00" fill="#000000">out of range of struct</text>
</g>
</g>
</svg>
