<?xml version="1.0" encoding="UTF-8" standalone="no"?>
<!DOCTYPE svg PUBLIC "-//W3C//DTD SVG 1.1//EN"
 "http://www.w3.org/Graphics/SVG/1.1/DTD/svg11.dtd">
<!-- Generated by graphviz version 2.40.1 (20161225.0304)
 -->
<!-- Title: structs Pages: 1 -->
<svg width="330pt" height="134pt"
 viewBox="0.00 0.00 330.25 134.00" xmlns="http://www.w3.org/2000/svg" xmlns:xlink="http://www.w3.org/1999/xlink">
<g id="graph0" class="graph" transform="scale(1 1) rotate(0) translate(4 130)">
<title>structs</title>
<polygon fill="#ffffff" stroke="transparent" points="-4,4 -4,-130 326.25,-130 326.25,4 -4,4"/>
<!-- struct1 -->
<g id="node1" class="node">
<title>struct1</title>
<polygon fill="none" stroke="#000000" points="0,-81.5 0,-125.5 234,-125.5 234,-81.5 0,-81.5"/>
<text text-anchor="middle" x="9.75" y="-110.3" font-family="Times,serif" font-size="14.00" fill="#000000"> </text>
<polyline fill="none" stroke="#000000" points="19.5,-103.5 19.5,-125.5 "/>
<text text-anchor="middle" x="29.25" y="-110.3" font-family="Times,serif" font-size="14.00" fill="#000000"> </text>
<polyline fill="none" stroke="#000000" points="39,-103.5 39,-125.5 "/>
<text text-anchor="middle" x="48.75" y="-110.3" font-family="Times,serif" font-size="14.00" fill="#000000"> </text>
<polyline fill="none" stroke="#000000" points="58.5,-103.5 58.5,-125.5 "/>
<text text-anchor="middle" x="68.25" y="-110.3" font-family="Times,serif" font-size="14.00" fill="#000000"> </text>
<polyline fill="none" stroke="#000000" points="0,-103.5 78,-103.5 "/>
<text text-anchor="middle" x="39" y="-88.3" font-family="Times,serif" font-size="14.00" fill="#000000">int len</text>
<polyline fill="none" stroke="#000000" points="78,-81.5 78,-125.5 "/>
<text text-anchor="middle" x="87.75" y="-110.3" font-family="Times,serif" font-size="14.00" fill="#000000"> </text>
<polyline fill="none" stroke="#000000" points="97.5,-103.5 97.5,-125.5 "/>
<text text-anchor="middle" x="107.25" y="-110.3" font-family="Times,serif" font-size="14.00" fill="#000000"> </text>
<polyline fill="none" stroke="#000000" points="117,-103.5 117,-125.5 "/>
<text text-anchor="middle" x="126.75" y="-110.3" font-family="Times,serif" font-size="14.00" fill="#000000"> </text>
<polyline fill="none" stroke="#000000" points="136.5,-103.5 136.5,-125.5 "/>
<text text-anchor="middle" x="146.25" y="-110.3" font-family="Times,serif" font-size="14.00" fill="#000000"> </text>
<polyline fill="none" stroke="#000000" points="156,-103.5 156,-125.5 "/>
<text text-anchor="middle" x="165.75" y="-110.3" font-family="Times,serif" font-size="14.00" fill="#000000"> </text>
<polyline fill="none" stroke="#000000" points="175.5,-103.5 175.5,-125.5 "/>
<text text-anchor="middle" x="185.25" y="-110.3" font-family="Times,serif" font-size="14.00" fill="#000000"> </text>
<polyline fill="none" stroke="#000000" points="195,-103.5 195,-125.5 "/>
<text text-anchor="middle" x="204.75" y="-110.3" font-family="Times,serif" font-size="14.00" fill="#000000"> </text>
<polyline fill="none" stroke="#000000" points="214.5,-103.5 214.5,-125.5 "/>
<text text-anchor="middle" x="224.25" y="-110.3" font-family="Times,serif" font-size="14.00" fill="#000000"> </text>
<polyline fill="none" stroke="#000000" points="78,-103.5 234,-103.5 "/>
<text text-anchor="middle" x="156" y="-88.3" font-family="Times,serif" font-size="14.00" fill="#000000">char *buf</text>
</g>
<!-- struct2 -->
<g id="node2" class="node">
<title>struct2</title>
<polygon fill="none" stroke="#000000" points="107.75,-.5 107.75,-44.5 322.25,-44.5 322.25,-.5 107.75,-.5"/>
<text text-anchor="middle" x="117.5" y="-29.3" font-family="Times,serif" font-size="14.00" fill="#000000"> </text>
<polyline fill="none" stroke="#000000" points="127.25,-22.5 127.25,-44.5 "/>
<text text-anchor="middle" x="137" y="-29.3" font-family="Times,serif" font-size="14.00" fill="#000000"> </text>
<polyline fill="none" stroke="#000000" points="146.75,-22.5 146.75,-44.5 "/>
<text text-anchor="middle" x="156.5" y="-29.3" font-family="Times,serif" font-size="14.00" fill="#000000"> </text>
<polyline fill="none" stroke="#000000" points="166.25,-22.5 166.25,-44.5 "/>
<text text-anchor="middle" x="176" y="-29.3" font-family="Times,serif" font-size="14.00" fill="#000000"> </text>
<polyline fill="none" stroke="#000000" points="185.75,-22.5 185.75,-44.5 "/>
<text text-anchor="middle" x="195.5" y="-29.3" font-family="Times,serif" font-size="14.00" fill="#000000"> </text>
<polyline fill="none" stroke="#000000" points="205.25,-22.5 205.25,-44.5 "/>
<text text-anchor="middle" x="215" y="-29.3" font-family="Times,serif" font-size="14.00" fill="#000000"> </text>
<polyline fill="none" stroke="#000000" points="224.75,-22.5 224.75,-44.5 "/>
<text text-anchor="middle" x="234.5" y="-29.3" font-family="Times,serif" font-size="14.00" fill="#000000"> </text>
<polyline fill="none" stroke="#000000" points="244.25,-22.5 244.25,-44.5 "/>
<text text-anchor="middle" x="254" y="-29.3" font-family="Times,serif" font-size="14.00" fill="#000000"> </text>
<polyline fill="none" stroke="#000000" points="263.75,-22.5 263.75,-44.5 "/>
<text text-anchor="middle" x="273.5" y="-29.3" font-family="Times,serif" font-size="14.00" fill="#000000"> </text>
<polyline fill="none" stroke="#000000" points="283.25,-22.5 283.25,-44.5 "/>
<text text-anchor="middle" x="293" y="-29.3" font-family="Times,serif" font-size="14.00" fill="#000000"> </text>
<polyline fill="none" stroke="#000000" points="302.75,-22.5 302.75,-44.5 "/>
<text text-anchor="middle" x="312.5" y="-29.3" font-family="Times,serif" font-size="14.00" fill="#000000"> </text>
<polyline fill="none" stroke="#000000" points="107.75,-22.5 322.25,-22.5 "/>
<text text-anchor="middle" x="214.5776" y="-7.3" font-family="Times,serif" font-size="14.00" fill="#000000">memory</text>
</g>
<!-- struct1&#45;&gt;struct2 -->
<g id="edge1" class="edge">
<title>struct1:pointer&#45;&gt;struct2:m</title>
<path fill="none" stroke="#000000" d="M234,-92.5C239.1111,-92.5 236.7433,-85.3125 234,-81 215.6235,-52.1118 167.7092,-76.3263 157.8067,-54.3589"/>
<polygon fill="#000000" stroke="#000000" points="161.2453,-53.7053 156,-44.5 154.3599,-54.9671 161.2453,-53.7053"/>
</g>
</g>
</svg>
